<svg width="470" height="414" viewBox="0 0 470 414" xmlns="http://www.w3.org/2000/svg" xmlns:xlink="http://www.w3.org/1999/xlink"><title>acc_2</title><defs><path d="M4.267 337C1.91 337 0 334.035 0 330.344V6.656C0 2.98 1.914 0 4.27 0h460.46c2.358 0 4.27 2.965 4.27 6.656v323.688c0 3.676-1.907 6.656-4.254 6.656H4.266z" id="a"/><path d="M1.592 122C.712 122 0 120.927 0 119.59V2.41C0 1.079.714 0 1.593 0h171.814c.88 0 1.593 1.073 1.593 2.41v117.18c0 1.331-.712 2.41-1.587 2.41H1.592z" id="b"/></defs><g fill="none" fill-rule="evenodd"><g><use fill="#FFF" xlink:href="#a"/><path stroke="#256782" stroke-width="4" d="M4.267 335h460.479c1.008 0 2.254-1.95 2.254-4.656V6.656C467 3.938 465.754 2 464.73 2H4.27C3.251 2 2 3.95 2 6.656v323.688C2 333.062 3.244 335 4.267 335z"/></g><path fill="#E7EDF1" d="M324 309h141v24H324z"/><path d="M445.548 335.452L468 313" stroke="#256782" stroke-width="2" stroke-linecap="square"/><path d="M2.55 34h434.902" stroke="#256782" stroke-width="4" stroke-linecap="round"/><g stroke="#256782" stroke-width="4" stroke-linecap="round" opacity=".3"><path d="M25 62h405M25 77h405M25 92h221.01M25 107h221.01M25 122h221.01M25 137h184.01M25 167h221.01M25 182h221.01M25 197h128.01"/></g><g stroke="#256782" stroke-width="4" stroke-linecap="round"><path d="M45 19h22M85 19h22M129 19h22"/></g><g stroke="#256782" stroke-width="4" stroke-linecap="round"><path d="M452 66.546v82.024M452 161.538V175"/></g><g transform="translate(14 9)"><circle fill="#0A90EB" cx="9" cy="9" r="9"/><path d="M5.5 9h7.13M9 10v4.031" stroke="#FFF" stroke-width="2" stroke-linecap="round"/><circle fill="#FFF" cx="9" cy="5" r="2"/></g><g><g transform="translate(258 90)"><use fill="#FFF" xlink:href="#b"/><path stroke="#19B159" stroke-width="4" d="M2.053 120h170.894c.032-.112.053-.253.053-.41V2.41c0-.157-.021-.298-.053-.41H2.053A1.51 1.51 0 0 0 2 2.41v117.18c0 .157.02.298.053.41z"/></g><path d="M364 161.625v-20.25c0-1.856-1.514-3.375-3.364-3.375h-30.272c-1.85 0-3.364 1.519-3.364 3.375v20.25c0 1.856 1.514 3.375 3.364 3.375h30.272c1.85 0 3.364-1.519 3.364-3.375zm-24.386-9.281l4.204 5.08 5.887-7.612 7.568 10.125h-23.546l5.887-7.593z" fill="#BDD1D9"/><path d="M260 223h92.36M361 223h5.36" stroke="#BDD1D9" stroke-width="4" stroke-linecap="round"/></g><g><path d="M49 335h264" stroke="#FFF" stroke-width="4" stroke-linecap="round"/><path d="M299 335h22M42 335h22M73 335h11" stroke="#256782" stroke-width="4" stroke-linecap="round"/><path d="M92.533 322.327l1.932-1.786 1.204 2.34c.69 1.339 1.372 2.742 2.45 5.01 1.2 2.528 1.897 3.967 2.73 5.615a71.826 71.826 0 0 0 13.341 19.131 83.982 83.982 0 0 0 6.54 5.905l1.673 1.415-.527 1.335a12.947 12.947 0 0 0 11.97 17.701l2 .012-.012 2a12.926 12.926 0 0 0 12.995 13.004h2.415l.03 1.97a12.971 12.971 0 0 0 8.09 11.823 12.984 12.984 0 0 0 14.062-2.854l3.086-3.002 1.023 2.989a12.69 12.69 0 0 0 12.072 8.576c2.532.016 5.01-.738 7.177-2.21.713-.442 1.37-.967 1.983-1.592l6.336-6.225a12.793 12.793 0 0 0 3.017-4.84l1.043-3.023 2.261 2.26 2.47 2.47a12.952 12.952 0 0 0 22.13-9.024l.017-1.983h1.983c6.257.018 11.364-3.837 12.936-9.426l.616-2.186 2.09.887a12.952 12.952 0 0 0 13.87-2.434 12.948 12.948 0 0 0 3.45-13.652l-.424-1.247.979-.882a72.406 72.406 0 0 0 17.697-24.391c3.676-7.416 5.528-10.321 9.06-13.192l1.01-.82 1.16.59a2.269 2.269 0 0 0 2.532-.325l8.105-7.066a2.442 2.442 0 0 0 .159-3.359 2.306 2.306 0 0 0-3.257-.222l-6.417 5.603-43.294-49.639c-.185-.405-.264-.54-.356-.665l-1.093-1.484 1.39-1.21L278.46 246.6a2.35 2.35 0 1 0-3.131-3.507l-23.496 20.562a2.287 2.287 0 0 0-.747 1.374l-.272 1.82-1.836-.12a75.645 75.645 0 0 1-18.613-3.595 38.747 38.747 0 0 0-32.997 4.774l-1.11.74-1.11-.74c-9.739-6.49-21.888-8.237-33.12-4.735l-1.692.47a68.653 68.653 0 0 1-17.002 3.066l-1.746.09-.324-1.717a2.279 2.279 0 0 0-.725-1.284l-23.615-20.569c-.718-.712-1.626-.935-2.457-.672a2.332 2.332 0 0 0-.707 4.08l21.728 18.932-1.045 1.476c-.041.058-.134.22-.277.487l-43.394 49.826-6.418-5.604c-.708-.695-1.615-.911-2.443-.645a2.332 2.332 0 0 0-.696 4.076l8.241 7.183c.437.361.985.56 1.546.562.697-.052 1.163-.263 1.53-.602z" fill="#256782"/><path d="M128.088 360.21l1.7-1.701a8.332 8.332 0 0 1 12.892 10.376l-.12.191-2.914 2.914a4.76 4.76 0 0 0-.217.236l-.09.104c-.105.12-.153.176-.22.25l-.15.167-.186.13a8.332 8.332 0 0 1-10.699-.935l-.582-.585v-.095a8.36 8.36 0 0 1 .586-11.053zM142.155 376.162l.139-.188.178-.15c.25-.212.476-.42.7-.643l1.686-1.686c.414-.416.8-.86 1.154-1.328l.084-.11 7.538-7.537.097-.076a8.332 8.332 0 0 1 11.693 11.693l-.076.097-.087.087-10.566 10.564a8.354 8.354 0 0 1-11.741.146l-1.467-1.414.224-.224a8.332 8.332 0 0 1 .444-9.23zM158.345 390.019l13.46-13.46.098-.075a8.332 8.332 0 0 1 11.693 11.692l-.076.097-.087.087-3.126 3.126-10.216 10.303a8.51 8.51 0 0 1-11.733 0l-1.485-1.413.24-.24a8.365 8.365 0 0 1 1.232-10.117zM201.842 400.14l-6.382 6.315a6.544 6.544 0 0 1-1.267 1.005 8.31 8.31 0 0 1-10.486-1.185c-2.764-2.85-3.127-7.255-.897-10.472.226-.346.485-.67.794-.986l3.065-3.066 3.21-3.208a8.42 8.42 0 0 1 10.342-1.165l.176.122.13.103c.421.3.812.64 1.116.965.352.35.674.729.975 1.156a8.352 8.352 0 0 1-.73 10.368l-1-.916.954.964z" fill="#FFF"/><path d="M224.646 350.563c.032.044 6.89 6.97 20.574 20.781 3.069 3.677 2.585 8.946-.963 11.897-3.549 2.952-8.818 2.468-11.762-1.07l-.296-.352-8.697-8.585-11.04-11.04a2.32 2.32 0 0 0-3.282 3.28l9.53 9.529 10.28 10.278c3.176 3.246 3.176 8.436-.065 11.745-3.27 3.054-8.346 3.054-11.665-.047l-11.682-11.681a2.31 2.31 0 0 0-.44-.334l-.377-.283a12.206 12.206 0 0 0-1.438-1.177c-3.252-2.054-6.95-2.632-10.44-1.75l-2.09.53-.37-2.125a12.905 12.905 0 0 0-12.747-10.693 13.13 13.13 0 0 0-3.008.366l-2.078.501-.362-2.107a12.823 12.823 0 0 0-3.581-6.905c-4.814-4.854-12.57-5.14-17.728-.654l-2.188 1.903-1.001-2.721a12.928 12.928 0 0 0-21.164-4.79l-3.396 3.314v-3.908a80.061 80.061 0 0 1-5.613-5.11 67.73 67.73 0 0 1-12.477-17.948c-.812-1.604-1.467-2.96-2.667-5.49-1.787-3.776-2.866-5.91-4.068-7.945l-.734-1.241 39.816-45.817 1.095.173c5.56.876 13.372-.078 22.842-2.897l2.098-.705a34.394 34.394 0 0 1 26.77 2.83l2.372 1.318-1.96 1.875-29.593 28.3c-4.272 4.076-4.88 10.677-1.393 15.51.325.478.687.928 1.08 1.342l1.429 1.495a11.815 11.815 0 0 0 8.368 3.685 11.525 11.525 0 0 0 8.48-3.312l3.488-3.332 15.895-15.183a5.266 5.266 0 0 1 7.452.001l56.914 57.04 1.637 1.637a8.33 8.33 0 0 1 .058 11.78 8.344 8.344 0 0 1-11.733-.005l-3.957-4.024a13.53 13.53 0 0 0-1.119-1.317l-19.61-19.608-.419-.336-.63-.347.991-1.736-.55 1.923.084-2.057v2h-2.222v-2l.588 1.912-.865.266-.456-2 .776 1.843c-.199.102-.657-.409-1.376-1.532l1.228 1.579a10.74 10.74 0 0 0-.459.353c-.016.014-.495-.452-1.435-1.399l1.496 1.327c-.059.07-.215.267-.468.589l-1.561-1.25 1.695 1.02-1.917-.598h2c-.026.36-.05.482-.083.597a2.603 2.603 0 0 1-.188.454c-.058.108-.739.017-2.04-.273h2V349.85l-2 .333 1.95-.44c.038.137.099.326.183.569-.154-.395-.177-.442-.202-.488.219.372.24.414.262.456.011.021-.542.396-1.66 1.125l1.561-1.25.323.407z" fill="#FFF"/><path d="M269.182 356.13l-1.413 1.324-1.724-1.724-56.897-56.89c-3.82-3.839-10.005-3.93-13.93-.208l-15.932 15.197-3.495 3.317a7.113 7.113 0 0 1-5.186 2.008 7.228 7.228 0 0 1-5.107-2.252l-1.369-1.414a6.62 6.62 0 0 1-.7-.874 7.243 7.243 0 0 1 .836-9.502l30.762-29.38a39.147 39.147 0 0 1 4.365-3.526 33.987 33.987 0 0 1 29.635-4.724c10.625 3.209 19.044 4.35 24.978 3.511l1.076-.152 41.25 47.414-1.54 1.31c-3.692 3.144-5.873 6.473-9.365 13.462l-.448.9-.196.394a68.438 68.438 0 0 1-15.6 21.81z" fill="#FFF" fill-rule="nonzero"/></g></g></svg>