<svg width="398" height="272" viewBox="0 0 398 272" xmlns="http://www.w3.org/2000/svg"><title>Group 8</title><g fill="none" fill-rule="evenodd"><g stroke="#256782" stroke-width="4"><path d="M3.62 270h390.77c.68 0 1.61-1.382 1.61-3.372V5.372C396 3.374 395.072 2 394.376 2H3.624C2.933 2 2 3.382 2 5.372v261.256c0 1.999.927 3.372 1.62 3.372z" fill="#FFF"/><path d="M2.55 34h370.472" stroke-linecap="round"/><g stroke-linecap="round"><path d="M20 19h13M48.333 19h13M76.667 19h13M105 19h13M133.333 19h13M161.667 19h13M190 19h13"/></g><g stroke-linecap="round"><path d="M382 66.546v82.024M382 161.538V175"/></g><g opacity=".3" stroke-linecap="round"><path d="M23.637 59h323.16M23.637 71h323.16M23.637 83h323.16M23.637 95h263.16"/></g><g opacity=".3" stroke-linecap="round"><path d="M23.637 119h323.16M23.637 131h323.16M23.637 143h323.16M23.637 155h263.16"/></g><g opacity=".3" stroke-linecap="round"><path d="M23.637 179h323.16M23.637 191h323.16M23.637 203h323.16M23.637 215h263.16"/></g></g><path d="M220.5 18.296c0 4.03 3.688 7.307 8.23 7.307 1.172 0 2.299-.216 3.357-.637 1.878 1.058 2.037 1.115 4.12 1.855.342.125.65.148.695.057.045-.09.022-.49-.091-.854-.547-1.855-.99-2.014-1.15-3.778a6.681 6.681 0 0 0 1.309-3.95c0-4.018-3.7-7.296-8.24-7.296-4.542 0-8.23 3.278-8.23 7.296zm10.972 0c0-.592.501-1.081 1.104-1.081.604 0 1.093.49 1.093 1.081 0 .603-.49 1.081-1.093 1.081a1.093 1.093 0 0 1-1.104-1.081zm-3.835 0c0-.592.49-1.081 1.092-1.081.615 0 1.104.49 1.104 1.081 0 .603-.49 1.081-1.104 1.081-.599 0-1.086-.482-1.092-1.081zm-3.848 0c0-.592.501-1.081 1.105-1.081.603 0 1.092.49 1.092 1.081 0 .603-.49 1.081-1.092 1.081a1.093 1.093 0 0 1-1.105-1.081z" fill="#F15649" fill-rule="nonzero"/><path d="M124 83h98.082" stroke="#F15649" stroke-width="4" stroke-linecap="round"/></g></svg>