<svg width="322" height="340" viewBox="0 0 322 340" xmlns="http://www.w3.org/2000/svg" xmlns:xlink="http://www.w3.org/1999/xlink"><title>window</title><defs><path d="M2.93 340C1.311 340 0 337.009 0 333.285V6.715C0 3.006 1.314 0 2.932 0h316.136C320.688 0 322 2.991 322 6.715v326.57c0 3.709-1.31 6.715-2.92 6.715H2.93z" id="a"/><path d="M.81 94C.362 94 0 93.173 0 92.143V1.857C0 .83.363 0 .81 0h87.38c.447 0 .81.827.81 1.857v90.286C89 93.17 88.638 94 88.193 94H.81z" id="b"/><path d="M.81 94C.362 94 0 93.173 0 92.143V1.857C0 .83.363 0 .81 0h87.38c.447 0 .81.827.81 1.857v90.286C89 93.17 88.638 94 88.193 94H.81z" id="c"/><path d="M.81 94C.362 94 0 93.173 0 92.143V1.857C0 .83.363 0 .81 0h87.38c.447 0 .81.827.81 1.857v90.286C89 93.17 88.638 94 88.193 94H.81z" id="d"/><path d="M0 83V1.672C0 .75.363 0 .81 0h87.38c.447 0 .81.745.81 1.672V83" id="e"/><path d="M.81 94C.362 94 0 93.173 0 92.143V1.857C0 .83.363 0 .81 0h87.38c.447 0 .81.827.81 1.857v90.286C89 93.17 88.638 94 88.193 94H.81z" id="f"/></defs><g fill="none" fill-rule="evenodd"><g><use fill="#FFF" xlink:href="#a"/><path stroke="#256782" stroke-width="4" d="M3.143 338h315.715c.135-.148.297-.408.452-.765.428-.984.69-2.406.69-3.95V6.715c0-1.55-.262-2.972-.691-3.953-.156-.356-.318-.616-.454-.762H3.148c-.136.147-.3.409-.456.767C2.262 3.75 2 5.172 2 6.715v326.57c0 1.55.262 2.972.69 3.953.156.356.318.616.453.762z"/></g><path fill="#E7EDF1" d="M4 36h92v300H4z"/><path d="M30 9H16a2 2 0 0 0-2 2v14a2 2 0 0 0 2 2h14a2 2 0 0 0 2-2V11a2 2 0 0 0-2-2zm-8.681 14L17 18.681l1.218-1.217 3.1 3.092L27.875 14l1.218 1.226L21.32 23z" fill="#19B159"/><path d="M43 19h36.36M93 19h36.36M239 19h36.36M286 19h7.36" stroke="#256782" stroke-width="4" stroke-linecap="round"/><path d="M2.5 34h316.36" stroke="#256782" stroke-width="4" stroke-linecap="square"/><path d="M15.5 52h51.36M76.5 52h5.36M15.5 67h51.36M76.5 67h5.36M15.5 82h51.36M76.5 82h5.36M15.5 97h51.36M76.5 97h5.36M306 51.546V254.57M306 266.538V280" stroke="#256782" stroke-width="4" stroke-linecap="round"/><g><g transform="translate(106 45)"><use fill="#FFF" xlink:href="#b"/><path stroke="#A1B0C2" stroke-width="2" d="M1.13 93h86.74c.079-.212.13-.52.13-.857V1.857c0-.339-.051-.646-.13-.857H1.13c-.08.212-.131.52-.131.857v90.286c0 .339.051.645.13.857z"/></g><path d="M164.875 87.375v-15.75A2.633 2.633 0 0 0 162.25 69h-23.625A2.633 2.633 0 0 0 136 71.625v15.75A2.633 2.633 0 0 0 138.625 90h23.625a2.633 2.633 0 0 0 2.625-2.625zm-19.031-7.219l3.281 3.95 4.594-5.918 5.906 7.874H141.25l4.594-5.906z" fill="#A1B0C2"/><path d="M106.5 111.5h88.023" stroke="#A1B0C2" stroke-linecap="square"/><path d="M116.5 120h51.36M177.5 120h5.36M116.5 128h27.36" stroke="#A1B0C2" stroke-width="4" stroke-linecap="round"/><g><g transform="translate(205 45)"><use fill="#FFF" xlink:href="#c"/><path stroke="#A1B0C2" stroke-width="2" d="M1.13 93h86.74c.079-.212.13-.52.13-.857V1.857c0-.339-.051-.646-.13-.857H1.13c-.08.212-.131.52-.131.857v90.286c0 .339.051.645.13.857z"/></g><path d="M263.875 87.375v-15.75A2.633 2.633 0 0 0 261.25 69h-23.625A2.633 2.633 0 0 0 235 71.625v15.75A2.633 2.633 0 0 0 237.625 90h23.625a2.633 2.633 0 0 0 2.625-2.625zm-19.031-7.219l3.281 3.95 4.594-5.918 5.906 7.874H240.25l4.594-5.906z" fill="#A1B0C2"/><path d="M205.5 111.5h88.023" stroke="#A1B0C2" stroke-linecap="square"/><path d="M215.5 120h51.36M276.5 120h5.36M215.5 128h27.36" stroke="#A1B0C2" stroke-width="4" stroke-linecap="round"/></g><g><g transform="translate(106 149)"><use fill="#FFF" xlink:href="#d"/><path stroke="#A1B0C2" stroke-width="2" d="M1.13 93h86.74c.079-.212.13-.52.13-.857V1.857c0-.339-.051-.646-.13-.857H1.13c-.08.212-.131.52-.131.857v90.286c0 .339.051.645.13.857z"/></g><path d="M164.875 191.375v-15.75A2.633 2.633 0 0 0 162.25 173h-23.625a2.633 2.633 0 0 0-2.625 2.625v15.75a2.633 2.633 0 0 0 2.625 2.625h23.625a2.633 2.633 0 0 0 2.625-2.625zm-19.031-7.219l3.281 3.95 4.594-5.918 5.906 7.875H141.25l4.594-5.907z" fill="#A1B0C2"/><path d="M106.5 215.5h88.023" stroke="#A1B0C2" stroke-linecap="square"/><path d="M116.5 224h51.36M177.5 224h5.36M116.5 232h27.36" stroke="#A1B0C2" stroke-width="4" stroke-linecap="round"/></g><g><g transform="translate(106 253)"><use fill="#FFF" xlink:href="#e"/><path stroke="#A1B0C2" stroke-width="2" d="M1 82h87V1.672c0-.265-.042-.504-.105-.672H1.105A1.98 1.98 0 0 0 1 1.672V82z"/></g><path d="M164.875 295.375v-15.75A2.633 2.633 0 0 0 162.25 277h-23.625a2.633 2.633 0 0 0-2.625 2.625v15.75a2.633 2.633 0 0 0 2.625 2.625h23.625a2.633 2.633 0 0 0 2.625-2.625zm-19.031-7.219l3.281 3.95 4.594-5.918 5.906 7.875H141.25l4.594-5.907z" fill="#A1B0C2"/><path d="M106.5 319.5h88.023" stroke="#A1B0C2" stroke-linecap="square"/><path d="M116.5 328h51.36M177.5 328h5.36" stroke="#A1B0C2" stroke-width="4" stroke-linecap="round"/></g><g><g transform="translate(205 149)"><use fill="#FFF" xlink:href="#f"/><path stroke="#A1B0C2" stroke-width="2" d="M1.13 93h86.74c.079-.212.13-.52.13-.857V1.857c0-.339-.051-.646-.13-.857H1.13c-.08.212-.131.52-.131.857v90.286c0 .339.051.645.13.857z"/></g><path d="M263.875 191.375v-15.75A2.633 2.633 0 0 0 261.25 173h-23.625a2.633 2.633 0 0 0-2.625 2.625v15.75a2.633 2.633 0 0 0 2.625 2.625h23.625a2.633 2.633 0 0 0 2.625-2.625zm-19.031-7.219l3.281 3.95 4.594-5.918 5.906 7.875H240.25l4.594-5.907z" fill="#A1B0C2"/><path d="M205.5 215.5h88.023" stroke="#A1B0C2" stroke-linecap="square"/><path d="M215.5 224h51.36M276.5 224h5.36M215.5 232h27.36" stroke="#A1B0C2" stroke-width="4" stroke-linecap="round"/></g></g></g></svg>