<svg width="524" height="381" viewBox="0 0 524 381" xmlns="http://www.w3.org/2000/svg" xmlns:xlink="http://www.w3.org/1999/xlink"><title>cke4_03</title><defs><path d="M4.267 337C1.91 337 0 334.035 0 330.344V6.656C0 2.98 1.914 0 4.27 0h460.46c2.358 0 4.27 2.965 4.27 6.656v323.688c0 3.676-1.907 6.656-4.254 6.656H4.266z" id="a"/><path d="M1.592 122C.712 122 0 120.927 0 119.59V2.41C0 1.079.714 0 1.593 0h171.814c.88 0 1.593 1.073 1.593 2.41v117.18c0 1.331-.712 2.41-1.587 2.41H1.592z" id="b"/><path d="M226.426 12H3.37C1.51 12 0 13.309 0 14.923v142.154C0 158.698 1.507 160 3.366 160h363.278c1.851 0 3.356-1.309 3.356-2.923V14.923c0-1.621-1.508-2.923-3.369-2.923H250.426L238.794.368c-.203-.203-.725-.01-1.166.43L226.426 12z" id="c"/></defs><g fill="none" fill-rule="evenodd"><g><use fill="#FFF" xlink:href="#a"/><path stroke="#256782" stroke-width="4" d="M4.267 335h460.479c1.008 0 2.254-1.95 2.254-4.656V6.656C467 3.938 465.754 2 464.73 2H4.27C3.251 2 2 3.95 2 6.656v323.688C2 333.062 3.244 335 4.267 335z"/></g><path d="M445.548 335.452L468 313" stroke="#256782" stroke-width="2" stroke-linecap="square"/><path d="M2.55 34h434.902" stroke="#256782" stroke-width="4" stroke-linecap="round"/><g stroke="#256782" stroke-width="4" stroke-linecap="round" opacity=".3"><path d="M25 62h405M25 79h405M25 95h221.01M25 111h221.01M25 127h221.01M25 143h184.01M25 167h221.01M25 183h221.01M25 199h128.01"/></g><g stroke="#256782" stroke-width="4" stroke-linecap="round"><path d="M45 19h22M85 19h22M129 19h22"/></g><g stroke="#256782" stroke-width="4" stroke-linecap="round"><path d="M452 66.546v82.024M452 161.538V175"/></g><g transform="translate(14 9)"><circle fill="#0A90EB" cx="9" cy="9" r="9"/><path d="M5.5 9h7.13M9 10v4.031" stroke="#FFF" stroke-width="2" stroke-linecap="round"/><circle fill="#FFF" cx="9" cy="5" r="2"/></g><g><g transform="translate(258 90)"><use fill="#FFF" xlink:href="#b"/><path stroke="#F15649" stroke-width="4" d="M2.053 120h170.894c.032-.112.053-.253.053-.41V2.41c0-.157-.021-.298-.053-.41H2.053A1.51 1.51 0 0 0 2 2.41v117.18c0 .157.02.298.053.41z"/></g><path d="M364 161.625v-20.25c0-1.856-1.514-3.375-3.364-3.375h-30.272c-1.85 0-3.364 1.519-3.364 3.375v20.25c0 1.856 1.514 3.375 3.364 3.375h30.272c1.85 0 3.364-1.519 3.364-3.375zm-24.386-9.281l4.204 5.08 5.887-7.612 7.568 10.125h-23.546l5.887-7.593z" fill="#BDD1D9"/><path d="M260 223h92.36M361 223h5.36" stroke="#BDD1D9" stroke-width="4" stroke-linecap="round"/></g><g transform="translate(154 221)"><use fill="#FFF" xlink:href="#c"/><path stroke="#256782" stroke-width="4" d="M238.426 2.828L227.255 14H3.369C2.556 14 2 14.482 2 14.923v142.154c0 .446.55.923 1.366.923h363.278c.804 0 1.356-.48 1.356-.923V14.923c0-.445-.552-.923-1.369-.923H249.598L238.426 2.828z"/><path d="M3 46h363.36" stroke="#256782" stroke-width="4" stroke-linecap="square"/><path fill="#E7EDF1" d="M4 16h362v28H4z"/><path fill="#E7EDF1" d="M238.627 6l15.814 15.814-15.814 15.813-15.814-15.813z"/><path d="M17 31h118.36M340 31h11.36" stroke="#256782" stroke-width="4" stroke-linecap="round"/><g stroke-linecap="round" stroke="#256782" stroke-width="4"><path d="M345 139l5.799-5.799M345 127l5.799 5.799"/><g><path d="M331 139l-5.799-5.799M331 127l-5.799 5.799"/></g></g><path d="M17 66h334.01M17 82h334.01M17 98h128.01" stroke="#256782" stroke-width="4" opacity=".3" stroke-linecap="round"/><rect fill="#19B159" x="17" y="121" width="97" height="24" rx="4"/><path fill="#FFF" d="M63.319 137L59 132.681l1.218-1.217 3.1 3.092L69.875 128l1.218 1.226z"/></g></g></svg>