<svg width="470" height="361" viewBox="0 0 470 361" xmlns="http://www.w3.org/2000/svg" xmlns:xlink="http://www.w3.org/1999/xlink"><title>window</title><defs><path d="M4.267 337C1.91 337 0 334.035 0 330.344V6.656C0 2.98 1.914 0 4.27 0h460.46c2.358 0 4.27 2.965 4.27 6.656v323.688c0 3.676-1.907 6.656-4.254 6.656H4.266z" id="a"/><path d="M1.592 122C.712 122 0 120.927 0 119.59V2.41C0 1.079.714 0 1.593 0h171.814c.88 0 1.593 1.073 1.593 2.41v117.18c0 1.331-.712 2.41-1.587 2.41H1.592z" id="b"/></defs><g fill="none" fill-rule="evenodd"><g><use fill="#FFF" xlink:href="#a"/><path stroke="#256782" stroke-width="4" d="M4.267 335h460.479c1.008 0 2.254-1.95 2.254-4.656V6.656C467 3.938 465.754 2 464.73 2H4.27C3.251 2 2 3.95 2 6.656v323.688C2 333.062 3.244 335 4.267 335z"/></g><path fill="#E7EDF1" d="M29 309h436v24H29z"/><path d="M445.548 335.452L468 313" stroke="#256782" stroke-width="2" stroke-linecap="square"/><path d="M2.55 34h434.902" stroke="#256782" stroke-width="4" stroke-linecap="round"/><g stroke="#256782" stroke-width="4" stroke-linecap="round" opacity=".3"><path d="M25 62h405M25 77h405M25 92.333h403.192M25 107.333h403.192M25 122.333h403.192M25 137h184.01M25 167h221.01M25 182h221.01M25 197h128.01"/></g><g stroke="#256782" stroke-width="4" stroke-linecap="round"><path d="M45 19h22M85 19h22M129 19h22"/></g><g stroke="#256782" stroke-width="4" stroke-linecap="round"><path d="M452 66.546v82.024M452 161.538V175"/></g><g transform="translate(14 9)"><circle fill="#0A90EB" cx="9" cy="9" r="9"/><path d="M5.5 9h7.13M9 10v4.031" stroke="#FFF" stroke-width="2" stroke-linecap="round"/><circle fill="#FFF" cx="9" cy="5" r="2"/></g><g><g transform="translate(258 140)"><use fill="#FFF" xlink:href="#b"/><path stroke="#F15649" stroke-width="4" d="M2.053 120h170.894c.032-.112.053-.253.053-.41V2.41c0-.157-.021-.298-.053-.41H2.053A1.51 1.51 0 0 0 2 2.41v117.18c0 .157.02.298.053.41z"/></g><path d="M364 211.625v-20.25c0-1.856-1.514-3.375-3.364-3.375h-30.272c-1.85 0-3.364 1.519-3.364 3.375v20.25c0 1.856 1.514 3.375 3.364 3.375h30.272c1.85 0 3.364-1.519 3.364-3.375zm-24.386-9.281l4.204 5.08 5.887-7.612 7.568 10.125h-23.546l5.887-7.593z" fill="#BDD1D9"/><path d="M260 273h92.36M361 273h5.36" stroke="#BDD1D9" stroke-width="4" stroke-linecap="round"/></g><path fill="#FFF" d="M197.319 361L193 356.681l1.218-1.217 3.1 3.092 6.556-6.556 1.218 1.226z"/></g></svg>