<svg width="440" height="445" viewBox="0 0 440 445" xmlns="http://www.w3.org/2000/svg" xmlns:xlink="http://www.w3.org/1999/xlink"><title>icon-ei-2</title><defs><rect id="b" x=".703" width="219.872" height="157.881" rx="2.226"/><path id="c" d="M138.648 187.353H82.629l5.976-32.278h44.067z"/><path d="M.72 48.417c-.398 0-.72-.426-.72-.956V.956C0 .428.323 0 .72 0h77.685c.398 0 .72.426.72.956v46.505c0 .528-.32.956-.717.956H.72z" id="a"/><mask id="d" x="0" y="0" width="79.126" height="48.417" fill="#fff"><use xlink:href="#a"/></mask><path d="M38.696 66c13.372 0 24.526-9.448 27.087-22H77c-2.682 18.658-18.81 33-38.304 33-13.513 0-25.408-6.891-32.33-17.335L0 66V44H22.112l-7.694 7.655A27.655 27.655 0 0 0 38.696 66z" id="e"/><path d="M65.391 33H54.888l7.694-7.655A27.655 27.655 0 0 0 38.304 11c-13.372 0-24.526 9.448-27.087 22H0C2.682 14.342 18.81 0 38.304 0c13.513 0 25.408 6.892 32.33 17.335L77 11V33H65.391z" id="f"/></defs><g fill="none" fill-rule="evenodd"><g transform="translate(214)"><use fill="#FFF" xlink:href="#b"/><rect stroke="#256782" stroke-width="2.8" x="2.103" y="1.4" width="217.072" height="155.081" rx="2.226"/></g><g transform="translate(214)"><use fill="#FFF" xlink:href="#c"/><path stroke="#256782" stroke-width="2.8" d="M136.965 185.953l-5.457-29.478H89.769l-5.457 29.478h52.653z"/></g><path fill="#BDD1D9" opacity=".567" d="M303.11 165.77l1.495-8.07h40.067l1.494 8.07z"/><path d="M216.103 120.692h217.07M286.826 185.95h76.325" stroke="#256782" stroke-width="2.8" stroke-linecap="round" stroke-linejoin="round"/><path d="M229.407 16.572H417.07M229.407 25.612h125.341M229.407 43.505H417.07M229.407 52.627H417.07M229.407 61.75h103.634M229.407 70.871h103.634M229.407 79.993h103.634M229.407 89.115h103.634M229.407 98.237h103.634M229.407 107.36h103.634" stroke="#256782" stroke-width="2.8" opacity=".3" stroke-linecap="round"/><g transform="translate(340.043 60.346)"><use stroke="#BDD1D9" mask="url(#d)" stroke-width="5.6" fill="#FFF" stroke-linecap="square" stroke-linejoin="round" stroke-dasharray="5.6,5.6,5.6,5.6" xlink:href="#a"/><path d="M47.07 28.77v-8.42c0-.773-.636-1.404-1.414-1.404H32.925c-.778 0-1.415.631-1.415 1.403v8.42c0 .772.637 1.404 1.415 1.404h12.731c.778 0 1.415-.632 1.415-1.404zm-10.255-3.86l1.768 2.112 2.476-3.164 3.183 4.21H34.34l2.475-3.158z" fill="#BDD1D9"/></g><g fill="#19B159"><path d="M345.645 65.96h29.59v3.507h-29.59z"/><path opacity=".254" d="M375.235 65.96h38.332v3.507h-38.332z"/></g><g><g transform="translate(105 33.376)" stroke="#256782" stroke-linecap="round" stroke-linejoin="round"><rect stroke-width="2.8" fill="#FFF" x=".063" y=".578" width="62.221" height="83.966" rx="5.837"/><ellipse stroke-width="2.541" cx="31.172" cy="76.945" rx="1" ry="1"/><path d="M26.622 7.19h8.531M.692 69.701h60.945" stroke-width="2.541"/></g><path d="M112.703 50.217h48.315M112.703 56.532h35.011" stroke="#256782" stroke-width="2.8" opacity=".3" stroke-linecap="round"/><path d="M143.363 84.345v-7.42c0-.68-.513-1.236-1.141-1.236h-10.276c-.627 0-1.141.556-1.141 1.236v7.42c0 .68.514 1.237 1.141 1.237h10.276c.628 0 1.141-.557 1.141-1.237zm-8.277-3.4l1.427 1.86 1.998-2.788 2.57 3.71h-7.993l1.998-2.783z" fill="#BDD1D9"/><g fill="#19B159"><path d="M116.204 70.566h17.998v2.807h-17.998z"/><path opacity=".254" d="M134.202 70.566h23.316v2.807h-23.316z"/></g><path stroke="#BDD1D9" stroke-width="2.8" d="M112.702 67.054h48.317v28.075h-48.317z"/></g><g><g transform="translate(1.622 147.129)" stroke="#256782" stroke-linecap="round" stroke-linejoin="round" stroke-width="2.541"><rect fill="#FFF" x=".522" y=".585" width="39.207" height="69.916" rx="5.837"/><ellipse cx="20.11" cy="63.938" rx="1" ry="1"/><path d="M15.581 6.733h8.505M.921 58.145h38.393"/></g><path d="M8.625 162.566h26.608M8.625 167.478H26.13" stroke="#256782" stroke-width="2.1" opacity=".3" stroke-linecap="round"/><path d="M26.713 189.916v-5.858c0-.537-.406-.976-.901-.976H17.7c-.496 0-.902.439-.902.976v5.858c0 .537.406.976.902.976h8.112c.495 0 .9-.44.9-.976zm-6.535-2.685l1.127 1.47 1.577-2.202 2.028 2.928H18.6l1.578-2.196z" fill="#BDD1D9"/><g fill="#19B159"><path d="M11.426 178.003h9.152v2.105h-9.152z"/><path opacity=".254" d="M20.578 178.003h11.855v2.105H20.578z"/></g><path stroke="#BDD1D9" stroke-width="2.1" d="M8.274 174.843h27.31v24.564H8.274z"/></g><g><path d="M141.19 358a47.17 47.17 0 0 1-9.69 1c-25.129 0-45.5-19.7-45.5-44 0-16.841 9.785-31.473 24.156-38.869A68.497 68.497 0 0 1 110 271.5c0-37.28 30.22-67.5 67.5-67.5 24.738 0 46.368 13.308 58.122 33.155A45.472 45.472 0 0 1 249.5 235c20.764 0 38.28 13.909 43.738 32.917C315.357 272.147 332 290.5 332 312.5c0 23.061-18.288 42.115-42 45.095V358H141.19z" fill="#FFF"/><path d="M123 357.997a46.42 46.42 0 0 1-.5.003C97.371 358 77 337.629 77 312.5c0-17.835 10.261-33.273 25.202-40.733A68.438 68.438 0 0 1 102 266.5c0-37.28 30.22-67.5 67.5-67.5 26.968 0 50.242 15.815 61.054 38.676A45.352 45.352 0 0 1 248.5 234c21.303 0 39.187 14.64 44.138 34.408C314.692 273.424 331 291.263 331 312.5c0 24.531-21.76 44.529-49 45.466V358H123z" stroke="#256782" stroke-width="4"/><g transform="rotate(22 -544.72 594.998)"><use fill="#256782" xlink:href="#e"/><path stroke="#256782" stroke-width="4" d="M17.266 46H2v15.189l4.686-4.663 1.348 2.035A36.706 36.706 0 0 0 38.696 75c17.527 0 32.42-12.296 35.921-29H67.37C64 58.817 52.294 68 38.696 68a29.65 29.65 0 0 1-26.032-15.383l-.723-1.319L17.266 46z"/></g><g transform="rotate(22 -544.72 594.998)"><use fill="#256782" xlink:href="#f"/><path stroke="#256782" stroke-width="4" d="M75 31V15.812l-4.686 4.662-1.348-2.034A36.706 36.706 0 0 0 38.304 2C20.777 2 5.884 14.296 2.383 31H9.63C13 18.183 24.706 9 38.304 9a29.65 29.65 0 0 1 26.032 15.383l.723 1.319L59.734 31H75z"/></g></g><g><path d="M295.019 405L294 403.48v-73.96l1.02-1.52h109.96l1.02 1.52v73.96l-1.016 1.52H295.019z" stroke="#256782" stroke-width="3" fill="#FFF" stroke-linecap="round" stroke-linejoin="round" stroke-dasharray="1,1,1"/><path d="M371 378.25v-22.5c0-2.063-1.677-3.75-3.727-3.75h-33.546c-2.05 0-3.727 1.688-3.727 3.75v22.5c0 2.063 1.677 3.75 3.727 3.75h33.546c2.05 0 3.727-1.688 3.727-3.75zm-27.06-10l4.686 5.853 6.56-8.77L363.62 377h-26.24l6.56-8.75z" fill="#256782"/><g><path d="M413.5 442.866l24-14s-3-16-7-22c-1.298-1.947-4.27-12.688-8-15-3.73-2.312-8 2-8 2s-4.285-.488-7 0c-1.02.184-12 3-12 3s-5.793-10.278-9-11c-7.057-1.588-5 3-5 3s-.418 4.608 1 7c.662 1.118 6.93 12.305 14 23 .721 1.091-5.32-2.027-9-2-3.68.027-3.608 3.12-3 4 .302.437-1.224 2.256 1 4 1.09.855 9.4 2.794 16 7 6.6 4.206 12 11 12 11z" fill="#FFF"/><path d="M415.03 396.03a7.856 7.856 0 0 0-.464-.654 7.834 7.834 0 0 0-1.561-1.541c-1.805-1.326-3.71-1.41-5.712-.254-1.163.672-2.055 1.157-2.676 1.458l-.545.315 1.575 2.729 2.813 4.873m-2.813-4.873a7.856 7.856 0 0 0-.464-.655 7.834 7.834 0 0 0-1.562-1.541c-1.805-1.326-3.709-1.41-5.712-.254-1.163.672-2.055 1.158-2.675 1.458l-.546.315 4.389 7.602m-4.387-7.603l-4.693-8.127a7.639 7.639 0 0 0-.458-.659 8.408 8.408 0 0 0-1.522-1.564c-1.631-1.27-3.31-1.479-5.036-.627-1.598 1.068-2.255 2.625-1.971 4.673.095.684.293 1.385.593 2.1.12.287.232.53.338.728l13.993 24.237c-10.091-3.885-13.787-1.637-11.088 6.744 10.616 2.218 20.344 8.268 29.184 18.147l23.612-13.718c-.53-2.972-1.434-6.89-2.716-11.756-1.279-4.866-3.996-11.36-8.15-19.48l-1.897-3.323a6.852 6.852 0 0 0-.545-.794 7.834 7.834 0 0 0-1.561-1.542c-1.805-1.325-3.71-1.41-5.712-.253-1.163.671-2.055 1.157-2.676 1.457l-.583.25 1.23 2.132.047.08 2.556 4.45.593 1.005" stroke="#256782" stroke-width="3" stroke-linecap="round" stroke-linejoin="round"/></g></g><path d="M411.688 176.246c0 47.948-10.489 104.172-64.81 118.336M61.219 327.84c-42.617 0-53.043-67.25-42.617-98.774M106.457 212.098C65.82 184.828 58.27 94.785 92.18 71.82" stroke="#BDD1D9" stroke-width="5" stroke-linecap="round" stroke-linejoin="round" stroke-dasharray="1,10"/></g></svg>