<svg width="112" height="126" viewBox="0 0 112 126" xmlns="http://www.w3.org/2000/svg"><title>logo 4</title><path d="M45.795 73.762a2.5 2.5 0 0 0-2.932 2.463V88.01h-9.8c-8.027 0-14.563-6.536-14.563-14.563 0-6.48 4.291-12.142 10.414-13.961a2.5 2.5 0 0 0 1.786-2.5 14.578 14.578 0 0 1-.012-.601c0-8.027 6.535-14.563 14.562-14.563 1.121 0 2.228.133 3.321.397a2.5 2.5 0 0 0 2.587-.93 16.966 16.966 0 0 1 13.592-6.78c9.372 0 17 7.63 17 17 0 .758-.05 1.503-.152 2.224a2.5 2.5 0 0 0 1.246 2.524c5.316 3.003 8.656 8.64 8.656 14.753 0 9.374-7.626 17-17 17H63.601a2.5 2.5 0 1 0 0 5H74.5c12.135 0 22-9.865 22-22 0-7.372-3.736-14.195-9.787-18.238.025-.419.037-.84.037-1.262 0-12.132-9.866-22-22-22-6.42 0-12.442 2.779-16.586 7.536a19.06 19.06 0 0 0-2.914-.224c-10.429 0-18.976 8.2-19.534 18.492C18.445 58.262 13.5 65.381 13.5 73.448c0 10.788 8.775 19.563 19.563 19.563h10.3a4.5 4.5 0 0 0 4.5-4.5v-9.386h21.22a2.708 2.708 0 1 0 0-5.417h-22.75c-.184 0-.364.019-.538.054zM62 2.464l43.426 25.072a12 12 0 0 1 6 10.392v50.144a12 12 0 0 1-6 10.392L62 123.536a12 12 0 0 1-12 0L6.574 98.464a12 12 0 0 1-6-10.392V37.928a12 12 0 0 1 6-10.392L50 2.464a12 12 0 0 1 12 0zM46.333 50.958a2.708 2.708 0 0 0 0 5.417h22.75a2.708 2.708 0 1 0 0-5.417h-22.75zm0 11.375a2.708 2.708 0 0 0 0 5.417h15.951a2.708 2.708 0 1 0 0-5.417h-15.95z" fill="#FFF" fill-rule="evenodd"/></svg>