<svg xmlns="http://www.w3.org/2000/svg" width="102" height="97" viewBox="0 0 102 97"><path fill="#0287D0" fill-rule="evenodd" d="M68.526 13.321a19.266 19.266 0 0 0-1.994 8.564c0 10.658 8.616 19.299 19.243 19.299.138 0 .275-.001.411-.004v27.029a9.087 9.087 0 0 1-4.527 7.865L47.62 95.784a9.033 9.033 0 0 1-9.056 0L4.528 76.073A9.087 9.087 0 0 1 0 68.21V28.791a9.087 9.087 0 0 1 4.528-7.865l34.037-19.71a9.033 9.033 0 0 1 9.056 0l20.905 12.105zM24.365 31.345a2.267 2.267 0 0 0-2.264 2.27V34.7a2.267 2.267 0 0 0 2.264 2.27h38.234a2.267 2.267 0 0 0 2.264-2.27v-1.083a2.267 2.267 0 0 0-2.264-2.27H24.365zm0 13.985A2.267 2.267 0 0 0 22.1 47.6v1.084a2.267 2.267 0 0 0 2.264 2.27h27.719a2.267 2.267 0 0 0 2.264-2.27V47.6a2.267 2.267 0 0 0-2.264-2.27h-27.72zm0 13.984a2.267 2.267 0 0 0-2.264 2.27v1.084a2.267 2.267 0 0 0 2.264 2.271h38.234a2.267 2.267 0 0 0 2.264-2.27v-1.084a2.267 2.267 0 0 0-2.264-2.27H24.365zM86.153 37.4c-8.752 0-15.847-7.116-15.847-15.894 0-8.777 7.095-15.893 15.847-15.893 8.752 0 15.847 7.116 15.847 15.893 0 8.778-7.095 15.894-15.847 15.894zm2.697-11.86h1.67v-2.517h-1.687v-8.03h-3.46l-4.96 7.938v2.609h5.734v2.553h2.703V25.54zm-2.686-7.364v4.847H83.22l2.892-4.847h.052z"/></svg>