<svg xmlns="http://www.w3.org/2000/svg" width="86" height="95" viewBox="0 0 86 95"><path fill="#6C7A89" fill-rule="evenodd" d="M36.297 56.286a1.924 1.924 0 0 0-.325-.028c-1.04 0-1.883.83-1.883 1.853v8.736h-7.38c-6.044 0-10.965-4.844-10.965-10.794 0-4.803 3.231-9 7.841-10.348a1.856 1.856 0 0 0 1.345-1.853c-.006-.147-.009-.294-.009-.446 0-5.95 4.922-10.794 10.965-10.794.845 0 1.678.098 2.501.294a1.898 1.898 0 0 0 1.948-.689c2.407-3.156 6.182-5.025 10.235-5.025 7.057 0 12.8 5.655 12.8 12.6 0 .562-.037 1.114-.113 1.648a1.844 1.844 0 0 0 .938 1.872c4.003 2.225 6.518 6.404 6.518 10.934 0 6.949-5.743 12.601-12.801 12.601h-8.207c-1.04 0-1.882.83-1.882 1.853 0 1.024.842 1.853 1.882 1.853h8.207c9.137 0 16.566-7.312 16.566-16.307 0-5.463-2.814-10.521-7.37-13.518.019-.31.028-.622.028-.935 0-8.993-7.43-16.307-16.566-16.307-4.835 0-9.37 2.06-12.49 5.586a14.576 14.576 0 0 0-2.194-.166c-7.852 0-14.288 6.078-14.708 13.706-5.476 2.185-9.2 7.461-9.2 13.441 0 7.996 6.608 14.5 14.731 14.5h7.757c1.871 0 3.388-1.493 3.388-3.335V60.26h15.979c1.126 0 2.04-.899 2.04-2.008 0-1.108-.914-2.007-2.04-2.007h-17.13a2.08 2.08 0 0 0-.406.04zM47.518 1.192l33.964 19.302C84.278 22.084 86 25.02 86 28.197v38.606c0 3.177-1.722 6.114-4.518 7.703L47.518 93.808a9.16 9.16 0 0 1-9.036 0L4.518 74.506C1.722 72.916 0 69.98 0 66.803V28.197c0-3.177 1.722-6.114 4.518-7.703L38.482 1.192a9.16 9.16 0 0 1 9.036 0zM36.702 39.383c-1.126 0-2.04.899-2.04 2.007 0 1.11.914 2.008 2.04 2.008h17.13c1.127 0 2.04-.899 2.04-2.008 0-1.108-.913-2.007-2.04-2.007h-17.13zm0 8.431c-1.126 0-2.04.9-2.04 2.008 0 1.109.914 2.007 2.04 2.007h12.011c1.127 0 2.04-.898 2.04-2.007s-.913-2.008-2.04-2.008h-12.01z"/></svg>