<svg xmlns="http://www.w3.org/2000/svg" width="102" height="97" viewBox="0 0 102 97"><path fill="#1EBC61" fill-rule="evenodd" d="M68.526 13.321a19.266 19.266 0 0 0-1.994 8.564c0 10.658 8.616 19.299 19.243 19.299.138 0 .275-.001.411-.004v27.029a9.087 9.087 0 0 1-4.527 7.865L47.62 95.784a9.033 9.033 0 0 1-9.056 0L4.528 76.073A9.087 9.087 0 0 1 0 68.21V28.791a9.087 9.087 0 0 1 4.528-7.865l34.037-19.71a9.033 9.033 0 0 1 9.056 0l20.905 12.105zM24.365 31.345a2.267 2.267 0 0 0-2.264 2.27V34.7a2.267 2.267 0 0 0 2.264 2.27h38.234a2.267 2.267 0 0 0 2.264-2.27v-1.083a2.267 2.267 0 0 0-2.264-2.27H24.365zm0 13.985A2.267 2.267 0 0 0 22.1 47.6v1.084a2.267 2.267 0 0 0 2.264 2.27h27.719a2.267 2.267 0 0 0 2.264-2.27V47.6a2.267 2.267 0 0 0-2.264-2.27h-27.72zm0 13.984a2.267 2.267 0 0 0-2.264 2.27v1.084a2.267 2.267 0 0 0 2.264 2.271h38.234a2.267 2.267 0 0 0 2.264-2.27v-1.084a2.267 2.267 0 0 0-2.264-2.27H24.365zM86.153 37.4c-8.752 0-15.847-7.116-15.847-15.894 0-8.777 7.095-15.893 15.847-15.893 8.752 0 15.847 7.116 15.847 15.893 0 8.778-7.095 15.894-15.847 15.894zm5.133-13.157c0-.707-.126-1.325-.377-1.855a3.855 3.855 0 0 0-1.03-1.335 4.317 4.317 0 0 0-1.538-.805 6.563 6.563 0 0 0-1.888-.265c-.201 0-.425.01-.67.028a4.04 4.04 0 0 0-.67.105l.113-2.121h5.38v-2.727h-8.193l-.321 7.669a9.44 9.44 0 0 1 1.633-.426 9.545 9.545 0 0 1 1.633-.161c.327 0 .654.031.982.095.327.063.62.173.878.33.258.159.468.37.632.635.164.265.245.593.245.985 0 .644-.198 1.13-.594 1.458a2.137 2.137 0 0 1-1.407.492c-.528 0-.985-.151-1.369-.454a2.255 2.255 0 0 1-.783-1.155l-2.889.89c.151.53.387 1.006.708 1.43.321.422.705.779 1.152 1.069.447.29.944.514 1.491.672a6.208 6.208 0 0 0 1.728.237c.654 0 1.29-.098 1.907-.294a5.018 5.018 0 0 0 1.652-.88 4.257 4.257 0 0 0 1.16-1.487c.29-.6.435-1.31.435-2.13z"/></svg>