<svg width="112" height="126" viewBox="0 0 112 126" xmlns="http://www.w3.org/2000/svg"><title>logo 4</title><path d="M47.63 80h23.678a2.692 2.692 0 1 0 0-5.385H45.692c-1.195 0-2.209.78-2.56 1.858a2.489 2.489 0 0 0-.501 1.502V91.5H33.5v-57h37.393v11.424a2.5 2.5 0 0 0 2.5 2.5H84.5V91.5H64.495a2.5 2.5 0 1 0 0 5H87a2.5 2.5 0 0 0 2.5-2.5V45.924a2.49 2.49 0 0 0-.647-1.679 1.994 1.994 0 0 0-.439-.66L75.528 30.7a2.499 2.499 0 0 0-2.135-1.2H31a2.5 2.5 0 0 0-2.5 2.5v62a2.5 2.5 0 0 0 2.5 2.5h14.13a2.5 2.5 0 0 0 2.5-2.5V80zm28.263-43.279l6.702 6.703h-6.702V36.72zM62 2.464l43.426 25.072a12 12 0 0 1 6 10.392v50.144a12 12 0 0 1-6 10.392L62 123.536a12 12 0 0 1-12 0L6.574 98.464a12 12 0 0 1-6-10.392V37.928a12 12 0 0 1 6-10.392L50 2.464a12 12 0 0 1 12 0zM45.692 52a2.692 2.692 0 1 0 0 5.385h25.616a2.692 2.692 0 1 0 0-5.385H45.692zm0 11.308a2.692 2.692 0 1 0 0 5.384h17.866a2.692 2.692 0 1 0 0-5.384H45.692z" fill="#FFF" fill-rule="evenodd"/></svg>