<svg width="280" height="207" viewBox="0 0 280 207" xmlns="http://www.w3.org/2000/svg" xmlns:xlink="http://www.w3.org/1999/xlink"><title>let_icon_3</title><defs><path d="M0 15.995C0 7.16 7.17 0 15.995 0h130.01C154.839 0 162 7.157 162 16v24.555l22.747 51.09c1.796 4.036-.335 7.308-4.742 7.308H162v38.05c0 8.835-7.165 15.997-16.005 15.997H54.707v14.509c0 2.204-1.343 2.82-3.016 1.36L33.5 153H16.002C7.164 153 0 145.838 0 137.005V15.995z" id="a"/></defs><g fill="none" fill-rule="evenodd"><path d="M280 15.995C280 7.16 272.83 0 264.005 0h-130.01C125.161 0 118 7.157 118 16v24.555l-22.747 51.09c-1.796 4.036.335 7.308 4.742 7.308H118v38.05c0 8.835 7.165 15.997 16.005 15.997h91.288v14.509c0 2.204 1.343 2.82 3.016 1.36L246.5 153h17.498c8.838 0 16.002-7.162 16.002-15.995V15.995z" fill="#FFF"/><g transform="translate(0 37)"><use fill="#FFF" xlink:href="#a"/><path stroke="#256782" stroke-width="4" d="M52.707 167.101V151h93.288c7.736 0 14.005-6.266 14.005-13.996v-40.05h20.005c2.962 0 4.121-1.785 2.914-4.495L160 40.979V16C160 8.264 153.736 2 146.005 2H15.995C8.271 2 2 8.269 2 15.995v121.01C2 144.734 8.269 151 16.002 151H34.25l18.457 16.101z"/></g><g stroke="#9AB5C6" stroke-width="4" stroke-linecap="round"><path d="M22 59h69.916M22 72h69.916M22 85h50.134M22 108h69.916M22 121h69.916M22 134h50.134"/></g><g><path d="M114.5 39h11.02" stroke="#FFF" stroke-width="4" stroke-linecap="square"/><path d="M160.5 146v9" stroke="#FFF" stroke-width="5" stroke-linecap="square"/><path d="M227.293 167.101V151h-93.288c-7.736 0-14.005-6.266-14.005-13.996v-40.05H99.995c-2.962 0-4.121-1.785-2.914-4.495L120 40.979V16C120 8.264 126.264 2 133.995 2h130.01C271.729 2 278 8.269 278 15.995v121.01c0 7.729-6.269 13.995-14.002 13.995H245.75l-18.457 16.101z" stroke="#256782" stroke-width="4"/><g stroke="#9AB5C6" stroke-width="4" stroke-linecap="round"><path d="M261 25h-84M261 38h-84M261 51h-84M239.032 64H177"/></g><g transform="translate(234 85)"><circle fill="#17C5A9" cx="14" cy="14" r="14"/><path fill="#FFF" d="M11.25 17.823L7.428 14l-1.302 1.293 5.124 5.124 11-11-1.293-1.293z"/></g><g stroke="#256782" stroke-width="4" stroke-linecap="round" stroke-linejoin="round"><path d="M100.5 39h12.166M127.5 39h12.166M160 135v8M160 158v8"/></g></g></g></svg>