<svg width="115" height="150" viewBox="0 0 115 150" xmlns="http://www.w3.org/2000/svg"><title>Group 3</title><g transform="translate(3 3)" stroke="#CCD6E5" stroke-width="5" fill="none" fill-rule="evenodd"><path d="M91 8h10a8 8 0 0 1 8 8v120a8 8 0 0 1-8 8H8a8 8 0 0 1-8-8V16a8 8 0 0 1 8-8h10" stroke-linecap="round" stroke-linejoin="round"/><rect x="29" width="51" height="22" rx="5"/><rect x="16" y="41" width="19" height="19" rx="4"/><path d="M48.5 41.5h44M48.5 52.5h30" stroke-linecap="round" stroke-linejoin="round"/><rect x="16" y="73" width="19" height="19" rx="4"/><path d="M48.5 73.5h44M48.5 84.5h30" stroke-linecap="round" stroke-linejoin="round"/><rect x="16" y="105" width="19" height="19" rx="4"/><path d="M48.5 105.5h44M48.5 116.5h30" stroke-linecap="round" stroke-linejoin="round"/></g></svg>