<svg width="527" height="340" viewBox="0 0 527 340" xmlns="http://www.w3.org/2000/svg"><title>cke4_04@2x</title><g fill="none" fill-rule="evenodd"><path d="M4.267 278A4.26 4.26 0 0 1 0 273.734V66.266A4.27 4.27 0 0 1 4.27 62h460.46c2.358 0 4.27 1.9 4.27 4.266v207.468a4.262 4.262 0 0 1-4.254 4.266H4.266z" fill="#FFF"/><path d="M4.267 276h460.479a2.262 2.262 0 0 0 2.254-2.266V66.266A2.262 2.262 0 0 0 464.73 64H4.27A2.27 2.27 0 0 0 2 66.266v207.468A2.26 2.26 0 0 0 4.267 276z" stroke="#256782" stroke-width="4"/><path d="M445.548 276.452L468 254" stroke="#256782" stroke-width="2" stroke-linecap="square"/><path d="M2.55 96h434.902" stroke="#256782" stroke-width="4" stroke-linecap="round"/><g opacity=".3" stroke-linecap="round" stroke="#256782" stroke-width="4"><path d="M25 124h238M25 139h238M25 154h160"/></g><g stroke-linecap="round" stroke="#256782" stroke-width="4"><path d="M452 128.546v82.024M452 223.538V237M15 81h22M55 81h22M99 81h22"/></g><g><path d="M207.93 340c-1.618 0-2.93-2.991-2.93-6.715V6.715C205 3.006 206.314 0 207.932 0h316.136C525.688 0 527 2.991 527 6.715v326.57c0 3.709-1.31 6.715-2.92 6.715H207.93z" fill="#FFF"/><path d="M208.143 338h315.715c.135-.148.297-.408.452-.765.428-.984.69-2.406.69-3.95V6.715c0-1.55-.262-2.972-.691-3.953-.156-.356-.318-.616-.454-.762H208.148c-.136.147-.3.409-.456.767-.43.983-.692 2.405-.692 3.948v326.57c0 1.55.262 2.972.69 3.953.156.356.318.616.453.762z" stroke="#256782" stroke-width="4"/><path d="M236.083 285c-.598 0-1.083-1.064-1.083-2.39V166.39c0-1.32.486-2.39 1.084-2.39h116.832c.599 0 1.084 1.064 1.084 2.39v116.22c0 1.32-.484 2.39-1.08 2.39H236.084z" fill="#FFF"/><path d="M237.023 283h114.954c.014-.12.023-.251.023-.39V166.39c0-.139-.009-.27-.023-.39H237.023c-.014.12-.023.251-.023.39v116.22c0 .139.008.27.023.39zM237 166h115v-30H237z" stroke="#256782" stroke-width="4"/><g stroke="#256782" stroke-width="4"><path d="M223 19h80.156M469 321h36.36" stroke-linecap="round"/><path d="M207.5 34h316.36M207.5 304h316.36" stroke-linecap="square"/></g></g><g><path fill="#E7EDF1" fill-rule="nonzero" opacity=".41" d="M239 193.683h111v22.634H239z"/><path d="M235 74h260M235 89h260M235 104h190.084M253 186h84.832M253 206h84.832M253 226h84.832M253 246h84.832M253 266h84.832" stroke="#256782" stroke-width="4" opacity=".3" stroke-linecap="round"/><path d="M257.941 74h62.27M397.941 89h38.27M252.941 151h62.27" stroke="#F15649" stroke-width="4" stroke-linecap="round"/></g><g stroke-linecap="round" stroke="#256782" stroke-width="2.5"><path d="M500 15l6.6 6.6M507 15l-6.6 6.6"/></g><g transform="translate(373 170)" fill-rule="nonzero"><rect fill="#19B159" y="90" width="135" height="24" rx="4"/><rect fill="#E7EDF1" width="65" height="24" rx="4"/><rect fill="#E7EDF1" x="70" width="65" height="24" rx="4"/><rect fill="#E7EDF1" y="30" width="65" height="24" rx="4"/><rect fill="#E7EDF1" x="70" y="30" width="65" height="24" rx="4"/><rect fill="#E7EDF1" y="60" width="65" height="24" rx="4"/><rect fill="#E7EDF1" x="70" y="60" width="65" height="24" rx="4"/><path fill="#FFF" d="M65.319 106L61 101.681l1.218-1.217 3.1 3.092L71.875 97l1.218 1.226z"/></g></g></svg>