<svg width="507" height="300" viewBox="0 0 507 300" xmlns="http://www.w3.org/2000/svg" xmlns:xlink="http://www.w3.org/1999/xlink"><title>finder_1</title><defs><path d="M4.167 300C1.865 300 0 297.36 0 294.075V5.925C0 2.653 1.87 0 4.17 0h449.66c2.303 0 4.17 2.64 4.17 5.925v288.15c0 3.272-1.863 5.925-4.155 5.925H4.167z" id="a"/><path d="M1.213 140.39c-.67 0-1.213-1.235-1.213-2.773V2.773C0 1.24.544 0 1.214 0H132.08c.67 0 1.214 1.235 1.214 2.773v134.844c0 1.532-.542 2.773-1.21 2.773H1.214z" id="b"/><path d="M1.213 140.39c-.67 0-1.213-1.235-1.213-2.773V2.773C0 1.24.544 0 1.214 0H132.08c.67 0 1.214 1.235 1.214 2.773v134.844c0 1.532-.542 2.773-1.21 2.773H1.214z" id="c"/><path d="M1.213 140.39c-.67 0-1.213-1.235-1.213-2.773V2.773C0 1.24.544 0 1.214 0H132.08c.67 0 1.214 1.235 1.214 2.773v134.844c0 1.532-.542 2.773-1.21 2.773H1.214z" id="d"/><path d="M60.458 44.684C45.246 48.573 34 62.367 34 78.794 34 98.238 49.754 114 69.206 114h105.588C194.238 114 210 98.242 210 78.794c0-14.05-8.226-26.178-20.13-31.825C189.218 20.918 167.9 0 141.695 0c-17.876 0-33.48 9.735-41.798 24.195a30.975 30.975 0 0 0-9.745-1.563c-14.01 0-25.85 9.293-29.694 22.052z" id="e"/></defs><g fill="none" fill-rule="evenodd"><g><use fill="#FFF" xlink:href="#a"/><path stroke="#256782" stroke-width="4" d="M4.167 298h449.678c1.006 0 2.155-1.638 2.155-3.925V5.925C456 3.63 454.852 2 453.83 2H4.17C3.154 2 2 3.639 2 5.925v288.15C2 296.37 3.147 298 4.167 298z"/></g><g stroke-width="4"><path d="M2.5 34h453.36" stroke="#256782" stroke-linecap="square"/><path d="M43 19h36.36M93 19h36.36M33 52h36.36M18 55l5.4-7.2" stroke="#256782" stroke-linecap="round"/><path d="M456 287V139.48" stroke="#F2FAFF" stroke-linecap="round"/><path d="M81 52h36.36" stroke="#0A90EB" stroke-linecap="round"/><path d="M387 19h36.36M456 162v-24.515M456 294v-7.52M434 19h7.36M446 51.467v173.767M446 235.478V247" stroke="#256782" stroke-linecap="round"/></g><path d="M30 9H16a2 2 0 0 0-2 2v14a2 2 0 0 0 2 2h14a2 2 0 0 0 2-2V11a2 2 0 0 0-2-2zm-8.681 14L17 18.681l1.218-1.217 3.1 3.092L27.875 14l1.218 1.226L21.32 23z" fill="#19B159"/><g transform="translate(14 69)"><use fill="#FFF" xlink:href="#b"/><path stroke="#A1B0C2" stroke-width="2" d="M1.384 139.39H131.91c.034-.05.073-.122.113-.212.167-.383.27-.946.27-1.56V2.772c0-.617-.103-1.18-.27-1.562a1.334 1.334 0 0 0-.114-.211H1.386c-.035.05-.074.122-.114.213C1.104 1.596 1 2.16 1 2.773v134.844c0 .617.104 1.18.271 1.562.04.09.079.161.113.211z"/></g><path d="M14.749 168.318h131.83" stroke="#A1B0C2" stroke-linecap="square"/><path d="M29.726 181.013h76.92M121.084 181.013h8.028M29.726 192.961h40.976" stroke="#A1B0C2" stroke-width="4" stroke-linecap="round"/><g fill-rule="nonzero" fill="#007EE5"><path d="M35.055 137.257h6.296c5.391 0 8.8 3.498 8.8 8.954s-3.391 8.953-8.8 8.953h-6.296v-17.907zm6.156 14.637c3.392 0 5.253-2.186 5.253-5.666 0-3.497-1.861-5.683-5.253-5.683h-2.47v11.349h2.47zM59.7 145.703c-.488-.297-1.131-.437-1.81-.437-1.217 0-2.208.647-2.47 1.836v8.08h-3.582v-13.046h3.6v1.277c.557-.927 1.618-1.574 2.905-1.574.609 0 1.165.122 1.356.227v3.637zM66.882 155.479c-3.774 0-6.365-2.798-6.365-6.803 0-4.022 2.591-6.837 6.365-6.837 3.775 0 6.349 2.798 6.349 6.837 0 4.005-2.574 6.803-6.349 6.803zm0-10.562c-1.808 0-2.782 1.573-2.782 3.76 0 2.15.991 3.742 2.782 3.742 1.792 0 2.783-1.574 2.783-3.743 0-2.186-.991-3.76-2.783-3.76zM78.379 160.008h-3.6v-17.872h3.6v1.084c.574-.7 1.86-1.364 3.252-1.364 3.774 0 5.913 3.148 5.913 6.838 0 3.672-2.139 6.802-5.913 6.802-1.391 0-2.678-.664-3.252-1.364v5.876zm0-9.198a2.717 2.717 0 0 0 2.435 1.521c1.948 0 3.113-1.574 3.113-3.655 0-2.098-1.165-3.672-3.113-3.672-1.079 0-2 .647-2.435 1.521v4.285zM92.727 155.181h-3.635v-18.973h3.635v7.012c.574-.7 1.861-1.364 3.253-1.364 3.774 0 5.896 3.096 5.896 6.838s-2.122 6.802-5.896 6.802c-1.392 0-2.679-.664-3.253-1.364v1.05zm0-4.371c.4.909 1.357 1.521 2.435 1.521 1.948 0 3.113-1.574 3.113-3.655 0-2.098-1.165-3.672-3.113-3.672-1.043 0-2.035.647-2.435 1.521v4.285zM109.528 155.514c-3.774 0-6.365-2.798-6.365-6.803 0-4.022 2.591-6.837 6.365-6.837s6.348 2.798 6.348 6.837c0 4.005-2.591 6.803-6.348 6.803zm0-10.562c-1.809 0-2.782 1.573-2.782 3.76 0 2.15.99 3.741 2.782 3.741s2.783-1.573 2.783-3.742c0-2.186-.991-3.76-2.783-3.76z"/><path d="M123.964 148.449l4.73 6.75h-3.982l-2.783-4.092-2.818 4.092h-3.774l4.679-6.663-4.4-6.382h3.982l2.505 3.707 2.54-3.707h3.773z"/><g><path d="M72.241 84.184l-14.808 9.585 10.248 8.315 14.89-9.254z"/><path d="M57.433 110.205l14.808 9.78 10.33-8.647-14.89-9.254zM82.571 111.338l10.33 8.646 14.754-9.668-10.22-8.232zM107.655 93.852l-14.753-9.668-10.33 8.646 14.863 9.254z"/><path d="M82.599 113.189l-10.358 8.646-4.45-2.9v3.259l14.808 8.922 14.78-8.922v-3.26l-4.422 2.9z"/></g></g><g><g transform="translate(157.128 69)"><use fill="#FFF" xlink:href="#c"/><path stroke="#A1B0C2" stroke-width="2" d="M1.384 139.39H131.91c.034-.05.073-.122.113-.212.167-.383.27-.946.27-1.56V2.772c0-.617-.103-1.18-.27-1.562a1.334 1.334 0 0 0-.114-.211H1.386c-.035.05-.074.122-.114.213C1.104 1.596 1 2.16 1 2.773v134.844c0 .617.104 1.18.271 1.562.04.09.079.161.113.211z"/></g><path d="M157.877 168.318h131.83" stroke="#A1B0C2" stroke-linecap="square"/><path d="M172.854 181.013h76.921M264.213 181.013h8.027M172.854 192.961h40.977" stroke="#A1B0C2" stroke-width="4" stroke-linecap="round"/><g><path fill="#F68D11" fill-rule="nonzero" d="M199.33 112.762l-6.005-1.962v-8.503l6.013 1.744-.007 8.72M200.897 104.041l6.013-1.744-.02 8.497-5.993 1.968v-8.72M205.685 101.377l-5.604-1.696-5.531 1.696 5.539 1.453 5.596-1.453M214.475 112.762l-6.006-1.962v-8.503l6.014 1.744-.008 8.72M216.042 104.041l6.013-1.744-.021 8.497-5.992 1.968v-8.72M220.83 101.377l-5.604-1.696-5.532 1.696 5.54 1.453 5.596-1.453M176.621 116.468l-6.013-1.744v8.502l6.006 1.962.007-8.72M178.18 116.468l6.013-1.744-.02 8.496-5.993 1.968v-8.72M182.968 113.803l-5.604-1.695-5.531 1.695 5.539 1.453 5.596-1.453M191.758 125.188l-6.006-1.962v-8.502l6.014 1.744-.008 8.72M193.325 116.468l6.013-1.744-.021 8.496-5.992 1.968v-8.72M198.113 113.803l-5.604-1.695-5.532 1.695 5.54 1.453 5.596-1.453M184.186 137.614l-6.006-1.962v-8.502l6.013 1.744-.007 8.72M185.752 128.894l6.014-1.744-.021 8.497-5.993 1.967v-8.72M190.54 126.23l-5.604-1.696-5.531 1.695 5.54 1.454 5.596-1.454"/><path d="M210.783 130.099l-.442.001c-.162 0-.368.107-.42.281l-1.34 4.623-1.326-4.613a.395.395 0 0 0-.368-.291h-.523c-.188 0-.326.148-.364.294l-1.233 4.565-1.275-4.579c-.05-.167-.262-.28-.428-.28l-.636-.001a.41.41 0 0 0-.33.149.211.211 0 0 0-.037.195l1.969 6.822c.043.144.17.288.356.288h.632a.38.38 0 0 0 .364-.295l1.212-4.544 1.318 4.55c.04.139.168.29.354.29h.622a.372.372 0 0 0 .362-.29l1.895-6.819a.218.218 0 0 0-.036-.2.405.405 0 0 0-.326-.146M216.25 132.995h-3.34c.077-.917.686-1.869 1.717-1.905 1.097.035 1.6.964 1.624 1.905zm-1.626-2.945c-2.256 0-3.283 1.952-3.283 3.766 0 2.264 1.277 3.727 3.254 3.727 1.415 0 2.494-.7 2.96-1.922a.253.253 0 0 0-.022-.214.369.369 0 0 0-.244-.168l-.626-.117c-.169-.026-.361.072-.425.213-.304.68-.859 1.065-1.555 1.085-.67-.02-1.284-.41-1.566-.992-.229-.475-.263-.943-.267-1.42l4.535-.001a.382.382 0 0 0 .263-.11.278.278 0 0 0 .09-.2c-.012-1.763-.835-3.647-3.114-3.647zM223.316 133.827c0 .418-.077 2.504-1.591 2.557a1.696 1.696 0 0 1-1.307-.742c-.21-.327-.334-.778-.365-1.336v-1.228c.024-.94.7-1.971 1.667-2.011 1.519.059 1.596 2.31 1.596 2.76zm-1.354-3.84h-.12c-.749 0-1.337.304-1.79.928v-2.876c0-.162-.17-.309-.359-.309h-.652c-.17 0-.36.132-.361.309v8.978c0 .163.171.312.359.312l.191-.001c.181 0 .31-.143.353-.276l.204-.633c.474.659 1.188 1.045 1.952 1.045h.117c2.012 0 2.913-1.915 2.913-3.814 0-.945-.238-1.849-.653-2.48-.48-.73-1.305-1.184-2.154-1.184zM231.91 133.625c-.425-.298-.934-.398-1.445-.497l-.98-.178c-.702-.113-1.109-.298-1.109-.905 0-.641.68-.887 1.256-.902.703.018 1.232.325 1.489.865a.38.38 0 0 0 .408.205l.611-.132a.379.379 0 0 0 .243-.175.252.252 0 0 0 .025-.212c-.374-1.066-1.324-1.63-2.76-1.63-1.298.003-2.685.568-2.685 2.145 0 1.079.693 1.763 2.06 2.036l1.095.204c.602.113 1.218.314 1.218.946 0 .937-1.114 1.032-1.45 1.039-.755-.016-1.61-.346-1.818-1.044-.041-.153-.238-.262-.412-.227l-.639.13a.37.37 0 0 0-.235.163.27.27 0 0 0-.036.217c.33 1.158 1.473 1.856 3.056 1.868h.035c1.415 0 2.926-.592 2.926-2.255 0-.677-.311-1.282-.854-1.66M238.374 133.002h-3.34c.076-.919.684-1.87 1.716-1.905 1.096.034 1.6.963 1.624 1.905zm-1.626-2.946c-2.257 0-3.285 1.953-3.285 3.767 0 2.264 1.278 3.726 3.255 3.726 1.415 0 2.494-.7 2.96-1.922a.254.254 0 0 0-.022-.214.367.367 0 0 0-.244-.168l-.627-.117c-.147-.023-.352.05-.424.213-.304.68-.859 1.065-1.554 1.086-.67-.021-1.285-.41-1.566-.992-.23-.475-.263-.943-.267-1.42l4.535-.002c.094 0 .192-.04.261-.11a.279.279 0 0 0 .09-.2c-.011-1.763-.834-3.647-3.112-3.647zM244.141 130.139a2.387 2.387 0 0 0-.256-.014c-.76 0-1.379.405-1.808 1.179l.002-.678c0-.164-.168-.308-.358-.308h-.566c-.186 0-.35.145-.351.31l-.001 6.583c0 .165.164.31.35.31h.662c.171 0 .365-.132.367-.31v-3.319c0-.547.052-.959.32-1.447.38-.694.913-1.035 1.628-1.04a.343.343 0 0 0 .336-.328v-.616c0-.161-.143-.303-.325-.322M251.08 130.01h-.523c-.163 0-.373.115-.423.283l-1.692 5.204-1.727-5.198c-.051-.173-.261-.289-.426-.289h-.745a.425.425 0 0 0-.337.151.21.21 0 0 0-.035.197l2.364 6.865c.046.136.166.295.357.295h.901c.166 0 .302-.11.364-.295l2.293-6.862a.21.21 0 0 0-.035-.198.424.424 0 0 0-.337-.153M252.794 127.371a.864.864 0 0 0-.872.856c0 .472.391.855.872.855.48 0 .872-.383.872-.855a.865.865 0 0 0-.872-.856M253.153 129.968h-.716c-.195 0-.372.153-.372.322l-.004 6.99c0 .084.045.168.122.23.07.057.16.09.251.09h.721c.198-.001.372-.15.372-.32v-6.99c0-.171-.175-.322-.374-.322M259.84 134.707l-.598.003a.385.385 0 0 0-.368.268c-.219.922-.713 1.4-1.463 1.42-1.46-.042-1.573-2.034-1.573-2.644 0-1.215.43-2.527 1.63-2.562.725.022 1.252.53 1.41 1.36.03.169.163.297.344.32l.64.005c.19-.02.34-.162.34-.337-.227-1.498-1.287-2.466-2.704-2.466l-.05.001-.055-.001c-2.06 0-2.983 1.883-2.983 3.749 0 1.71.777 3.708 2.972 3.708h.105c1.382 0 2.424-.948 2.723-2.485a.272.272 0 0 0-.072-.206.427.427 0 0 0-.298-.133M265.742 133.002H262.4c.076-.919.685-1.87 1.717-1.905 1.097.034 1.6.963 1.625 1.905zm-1.627-2.946c-2.257 0-3.284 1.953-3.284 3.767 0 2.264 1.277 3.726 3.255 3.726 1.414 0 2.492-.7 2.96-1.922a.257.257 0 0 0-.024-.214.365.365 0 0 0-.243-.168l-.627-.117c-.147-.023-.351.05-.423.213-.306.68-.86 1.065-1.556 1.086-.67-.021-1.284-.41-1.565-.992-.23-.475-.264-.944-.267-1.42l4.535-.002a.383.383 0 0 0 .263-.11.278.278 0 0 0 .088-.2c-.01-1.763-.833-3.647-3.112-3.647zM272.908 133.625c-.425-.298-.935-.398-1.445-.497l-.98-.178c-.701-.113-1.108-.298-1.108-.905 0-.827 1.05-.896 1.254-.902.704.018 1.233.325 1.49.865a.382.382 0 0 0 .41.205l.61-.132a.379.379 0 0 0 .243-.175.252.252 0 0 0 .024-.212c-.373-1.066-1.323-1.63-2.76-1.63-1.297.003-2.684.568-2.684 2.145 0 1.079.692 1.764 2.059 2.036l1.096.204c.602.113 1.217.314 1.217.946 0 .937-1.113 1.032-1.45 1.039-.7-.015-1.595-.298-1.816-1.043-.041-.154-.238-.263-.414-.228l-.638.13a.37.37 0 0 0-.236.164.268.268 0 0 0-.035.216c.329 1.158 1.47 1.856 3.055 1.868h.035c1.414 0 2.926-.592 2.926-2.255 0-.678-.311-1.283-.853-1.66" fill="#100F0D" fill-rule="nonzero"/><path d="M243.818 116.512v-1.587c0-.241.187-.403.411-.402h7.264c.232 0 .419.165.419.4v1.36c-.002.229-.199.527-.547 1l-3.763 5.258c1.396-.032 2.874.172 4.143.87.287.158.363.391.386.62v1.693c0 .233-.26.503-.535.363-2.236-1.147-5.203-1.272-7.676.013-.252.132-.517-.134-.517-.368v-1.609c0-.256.006-.697.27-1.09l4.36-6.121-3.795-.001c-.232 0-.418-.162-.42-.4M217.321 126.42h-2.21a.413.413 0 0 1-.395-.366l.001-11.102c0-.222.191-.4.427-.4l2.058-.001c.215.012.388.17.402.373v1.45h.041c.536-1.402 1.547-2.055 2.908-2.055 1.382 0 2.249.653 2.868 2.055.537-1.402 1.753-2.055 3.054-2.055.928 0 1.938.373 2.557 1.214.701.935.557 2.289.557 3.48l-.002 7.008c0 .221-.19.4-.426.4h-2.207a.41.41 0 0 1-.397-.4v-5.886c0-.467.04-1.635-.062-2.079-.165-.748-.66-.957-1.3-.957-.536 0-1.094.35-1.32.91-.227.561-.206 1.496-.206 2.126v5.886c0 .221-.191.4-.427.4h-2.207a.41.41 0 0 1-.397-.4l-.002-5.886c0-1.238.206-3.06-1.361-3.06-1.588 0-1.526 1.775-1.526 3.06l-.002 5.886c.001.221-.19.4-.426.4M258.186 116.584c-1.63 0-1.733 2.173-1.733 3.528s-.02 4.252 1.713 4.252c1.712 0 1.794-2.336 1.794-3.761 0-.935-.04-2.056-.33-2.944-.247-.771-.742-1.075-1.444-1.075zm-.02-2.265c3.28 0 5.054 2.756 5.054 6.26 0 3.388-1.96 6.075-5.054 6.075-3.219 0-4.973-2.758-4.973-6.192 0-3.457 1.774-6.143 4.973-6.143zM267.474 126.42h-2.202a.41.41 0 0 1-.397-.398l-.003-11.108c.018-.202.202-.362.424-.362l2.05-.001c.194.01.352.139.393.311v1.699h.041c.619-1.519 1.486-2.242 3.011-2.242.99 0 1.96.35 2.58 1.307.577.888.577 2.383.577 3.457v6.987a.416.416 0 0 1-.423.35h-2.216a.415.415 0 0 1-.394-.35v-6.028c0-1.215.145-2.991-1.382-2.991-.536 0-1.03.351-1.278.888-.31.677-.351 1.355-.351 2.103v5.979a.42.42 0 0 1-.43.4M240.255 126.392a.466.466 0 0 1-.522.05c-.733-.596-.865-.873-1.266-1.441-1.213 1.21-2.073 1.572-3.643 1.572-1.862 0-3.308-1.124-3.308-3.372 0-1.755.971-2.95 2.356-3.535 1.2-.515 2.874-.61 4.155-.75v-.28c0-.515.042-1.124-.269-1.57-.268-.397-.785-.56-1.24-.56-.843 0-1.592.422-1.776 1.299-.038.194-.184.388-.384.397l-2.142-.227c-.18-.04-.382-.182-.33-.452.493-2.544 2.84-3.313 4.943-3.313 1.074 0 2.48.281 3.328 1.077 1.075.984.971 2.295.971 3.723v3.37c0 1.014.43 1.46.835 2.005.14.198.172.431-.008.576a90.395 90.395 0 0 0-1.694 1.436l-.006-.005zm-2.228-5.274c0 .843.02 1.546-.413 2.294-.352.61-.91.984-1.53.984-.847 0-1.343-.632-1.343-1.57 0-1.841 1.688-2.176 3.286-2.176v.468zM211.286 126.392a.468.468 0 0 1-.523.05c-.734-.596-.865-.873-1.267-1.441-1.212 1.21-2.072 1.572-3.644 1.572-1.86 0-3.307-1.124-3.307-3.372 0-1.755.972-2.95 2.357-3.535 1.2-.515 2.874-.61 4.155-.75v-.28c0-.515.042-1.124-.269-1.57-.268-.397-.786-.56-1.24-.56-.843 0-1.592.422-1.776 1.299-.039.194-.184.388-.384.397l-2.142-.227c-.181-.04-.382-.182-.33-.452.492-2.544 2.839-3.313 4.942-3.313 1.075 0 2.48.281 3.329 1.077 1.075.984.97 2.295.97 3.723v3.37c0 1.014.432 1.46.835 2.005.141.198.173.431-.007.576a88.338 88.338 0 0 0-1.694 1.436l-.005-.005zm-2.229-5.274c0 .843.02 1.546-.413 2.294-.351.61-.91.984-1.53.984-.848 0-1.344-.632-1.344-1.57 0-1.841 1.688-2.176 3.287-2.176v.468z" fill="#100F0D"/></g></g><g><g transform="translate(300.257 69)"><use fill="#FFF" xlink:href="#d"/><path stroke="#A1B0C2" stroke-width="2" d="M1.384 139.39H131.91c.034-.05.073-.122.113-.212.167-.383.27-.946.27-1.56V2.772c0-.617-.103-1.18-.27-1.562a1.334 1.334 0 0 0-.114-.211H1.386c-.035.05-.074.122-.114.213C1.104 1.596 1 2.16 1 2.773v134.844c0 .617.104 1.18.271 1.562.04.09.079.161.113.211z"/></g><path d="M301.006 168.318h131.83" stroke="#A1B0C2" stroke-linecap="square"/><path d="M315.983 181.013h76.92M407.341 181.013h8.028M315.983 192.961h40.976" stroke="#A1B0C2" stroke-width="4" stroke-linecap="round"/><g fill-rule="nonzero"><path d="M311.001 109.556l13.39-1.825v12.812h-13.389v-10.987zm13.39 12.627v12.667l-13.388-1.822v-10.845h13.389zm1.481-14.653l17.818-2.43v15.443h-17.818V107.53zm17.818 14.653v15.295l-17.818-2.427v-12.868h17.818z" fill="#0DADEA"/><path d="M362.736 120.665h-1.987v-7.618c0-.624.04-1.387.118-2.29h-.033c-.124.514-.234.883-.329 1.108l-3.603 8.8h-1.38l-3.612-8.734c-.101-.257-.208-.648-.32-1.173h-.033c.045.47.067 1.239.067 2.306v7.601h-1.852v-11.771h2.82l3.174 7.84c.241.601.398 1.05.471 1.345h.042c.208-.618.376-1.078.505-1.38l3.233-7.805h2.72l-.001 11.771zm3.73-10.17c-.32 0-.594-.102-.82-.304a.988.988 0 0 1-.342-.772c0-.312.114-.572.341-.78.228-.208.501-.312.821-.312.33 0 .612.104.842.312.23.208.345.467.345.78a.995.995 0 0 1-.345.759c-.23.211-.511.316-.842.316zm.968 10.17h-1.953v-8.406h1.953v8.406zm8.73-.386c-.69.389-1.507.583-2.45.583-1.28 0-2.312-.39-3.098-1.17-.785-.78-1.179-1.79-1.179-3.033 0-1.385.423-2.496 1.267-3.337.845-.84 1.974-1.26 3.39-1.26.785 0 1.478.134 2.078.403v1.772c-.6-.437-1.24-.656-1.919-.656-.825 0-1.501.272-2.028.817-.528.544-.792 1.257-.792 2.138 0 .87.248 1.557.744 2.06.497.504 1.164.755 2 .755.702 0 1.363-.243 1.987-.73v1.658zm6.946-6.206c-.236-.18-.576-.27-1.02-.27-.577 0-1.06.254-1.447.763-.388.508-.582 1.201-.582 2.076v4.023h-1.953v-8.406h1.953v1.732h.034c.19-.591.483-1.052.88-1.383.395-.33.837-.497 1.325-.497.354 0 .623.053.809.156v1.806zm5.22 6.789c-1.33 0-2.392-.393-3.187-1.178-.795-.785-1.192-1.826-1.192-3.123 0-1.412.414-2.515 1.242-3.309.828-.793 1.943-1.19 3.347-1.19 1.347 0 2.396.386 3.148 1.158.753.772 1.128 1.841 1.128 3.209 0 1.341-.405 2.415-1.216 3.222-.81.807-1.9 1.21-3.27 1.21zm.092-7.281c-.763 0-1.367.26-1.81.78-.444.52-.665 1.236-.665 2.15 0 .88.225 1.574.674 2.08.448.506 1.05.76 1.802.76.77 0 1.36-.25 1.772-.747.412-.499.619-1.207.619-2.127 0-.924-.206-1.638-.619-2.142-.413-.503-1.004-.754-1.773-.754zm5.852 6.822v-1.765c.73.542 1.535.812 2.415.812 1.18 0 1.768-.339 1.768-1.017a.79.79 0 0 0-.15-.489 1.413 1.413 0 0 0-.41-.356 3.342 3.342 0 0 0-.606-.28 91.816 91.816 0 0 1-.779-.279 8.308 8.308 0 0 1-.955-.435 2.879 2.879 0 0 1-.707-.52 1.947 1.947 0 0 1-.425-.662 2.37 2.37 0 0 1-.143-.862c0-.405.098-.762.295-1.07.197-.31.46-.57.79-.78.333-.211.708-.37 1.13-.476a5.287 5.287 0 0 1 1.304-.16c.797 0 1.51.117 2.138.352v1.666c-.606-.405-1.302-.607-2.088-.607-.247 0-.47.025-.669.073-.2.05-.37.118-.51.205-.14.088-.25.193-.328.316a.74.74 0 0 0-.118.406c0 .18.04.334.118.46.079.126.195.237.35.333.154.096.34.183.555.262.217.08.465.166.746.259.34.134.673.285.997.452.295.153.547.326.754.52.205.19.368.42.48.674.112.254.169.557.169.907 0 .427-.101.798-.304 1.116-.202.318-.472.58-.808.788a3.824 3.824 0 0 1-1.166.463 6.179 6.179 0 0 1-1.393.152c-.944 0-1.76-.152-2.45-.458zm11.803.459c-1.33 0-2.393-.393-3.187-1.178-.794-.785-1.191-1.826-1.191-3.123 0-1.412.414-2.515 1.242-3.309.828-.793 1.943-1.19 3.346-1.19 1.348 0 2.396.386 3.149 1.158.752.772 1.128 1.841 1.128 3.209 0 1.341-.405 2.415-1.216 3.222-.811.807-1.902 1.21-3.271 1.21zm.092-7.281c-.763 0-1.367.26-1.81.78-.444.52-.665 1.236-.665 2.15 0 .88.224 1.574.673 2.08.45.506 1.05.76 1.802.76.769 0 1.36-.25 1.772-.747.413-.499.62-1.207.62-2.127 0-.924-.207-1.638-.62-2.142-.412-.503-1.003-.754-1.772-.754zm11.265-3.809a1.812 1.812 0 0 0-.901-.222c-.949 0-1.423.523-1.423 1.568v1.141h2.004v1.494h-1.995v6.912h-1.953v-6.912h-1.473v-1.494h1.473v-1.362c0-.887.297-1.586.892-2.098.595-.512 1.339-.767 2.231-.767.483 0 .865.051 1.145.156v1.584zm5.632 10.803c-.381.186-.884.28-1.507.28-1.672 0-2.508-.783-2.508-2.348v-4.753h-1.44v-1.494h1.44v-1.945l1.953-.542v2.487h2.063v1.494h-2.063v4.203c0 .497.092.853.278 1.067.186.213.494.32.926.32.33 0 .617-.093.858-.28v1.51zm-62.03 14.546h-2.197l-1.086-2.997h-4.748l-1.044 2.997h-2.19l4.521-11.772h2.256l4.487 11.772zm-4.156-4.636l-1.675-4.695c-.05-.154-.104-.4-.16-.739h-.033c-.05.312-.107.559-.169.739l-1.658 4.695h3.695zm11.662-2.935l-4.656 6.123h4.639v1.487h-7.375v-.715l4.756-6.206h-4.301v-1.486h6.937v.797zm9.396 7.61h-1.953v-1.33h-.033c-.567 1.017-1.448 1.526-2.643 1.526-2.038 0-3.057-1.192-3.057-3.579v-5.024h1.954v4.827c0 1.51.597 2.266 1.793 2.266.578 0 1.053-.208 1.427-.624.373-.415.56-.96.56-1.633v-4.836h1.953l-.001 8.407zm7.556-6.445c-.236-.18-.576-.27-1.02-.27-.577 0-1.06.254-1.448.763-.387.508-.58 1.201-.58 2.076v4.023h-1.954v-8.406h1.953v1.732h.033c.191-.591.484-1.052.88-1.383.396-.33.838-.497 1.326-.497.353 0 .623.053.808.156l.002 1.806zm8.542 2.955h-5.876c.022.777.267 1.377.737 1.798.468.421 1.112.632 1.932.632.92 0 1.765-.268 2.534-.804v1.534c-.786.482-1.825.723-3.116.723-1.268 0-2.263-.382-2.984-1.145-.722-.764-1.081-1.837-1.081-3.222 0-1.308.396-2.374 1.191-3.197.794-.824 1.781-1.236 2.96-1.236s2.09.37 2.736 1.108c.645.739.968 1.765.968 3.078v.731zm-2.157-1.616c-.009-.684-.171-1.216-.497-1.596-.326-.38-.774-.57-1.347-.57-.561 0-1.037.2-1.427.6-.39.398-.63.921-.72 1.567h3.99z" fill="#00ADEF"/></g></g><g><g transform="translate(297 166)"><use fill="#FFF" xlink:href="#e"/><path stroke="#256782" stroke-width="4" d="M62.373 45.26l-.326 1.082-1.094.28C46.378 50.346 36 63.532 36 78.793 36 97.136 50.862 112 69.206 112h105.588C193.134 112 208 97.136 208 78.794a33.201 33.201 0 0 0-18.987-30.018l-1.111-.527-.031-1.23C187.245 22.005 166.766 2 141.695 2c-16.72 0-31.876 8.959-40.065 23.192l-.813 1.414-1.548-.513a28.974 28.974 0 0 0-9.117-1.46c-12.884 0-24.118 8.477-27.78 20.628z"/></g><path d="M340.417 278h49.166M323 278h8M310.417 268h32.17M297 268h3M359.5 211.5l-1 5" stroke="#256782" stroke-width="4" stroke-linecap="round" stroke-linejoin="round"/><path d="M471 276c17.673 0 32-14.216 32-31.753S488.263 216.253 483.21 215c0 0 10.106 7.938 10.527 29.247C494.157 265.555 471 276 471 276z" fill="#E7EDF1"/></g></g></svg>