<svg width="464" height="357" viewBox="0 0 464 357" xmlns="http://www.w3.org/2000/svg" xmlns:xlink="http://www.w3.org/1999/xlink"><title>cloud_04</title><defs><path d="M318.5 337H3.84C1.718 337 0 334.035 0 330.344V6.656C0 2.98 1.722 0 3.842 0h414.316C420.28 0 422 2.965 422 6.656V197" id="a"/></defs><g fill="none" fill-rule="evenodd"><g><use fill="#FFF" xlink:href="#a"/><path stroke="#256782" stroke-width="4" d="M317.491 335L420 196.341V6.656C420 3.929 418.885 2 418.158 2H3.842C3.12 2 2 3.94 2 6.656v323.688C2 333.071 3.114 335 3.84 335H317.49z"/></g><path d="M2.55 34h416.9" stroke="#256782" stroke-width="4" stroke-linecap="round"/><path d="M391.5 355c38.936 0 70.5-31.564 70.5-70.5 0-19.367-14.221-40.964-42.664-64.792V189c-15.303 16.667-24.581 25-27.836 25-38.936 0-70.5 31.564-70.5 70.5 0 7.209-1 24.193-3 50.953h25.5c2.018 2.248 3.496 3.74 4.435 4.48C359.927 349.37 375.055 355 391.5 355z" fill="#FFF"/><g transform="translate(19 10)"><path d="M16 67h248M16 82h248M16 97h246.893M16 112h246.893M16 127h246.893M16 142h102.649" stroke="#256782" stroke-width="4" opacity=".3" stroke-linecap="round"/><g stroke="#256782" stroke-width="4" stroke-linecap="round" opacity=".3"><path d="M16 177h248M16 192h248M16 207h159.845"/></g><g stroke="#256782" stroke-width="4" stroke-linecap="round" opacity=".3"><path d="M16 237h248M16 252h248M16 267h214.865"/></g><path d="M0 9h69.007" stroke="#256782" stroke-width="4" stroke-linecap="round"/><g stroke="#256782" stroke-width="4" stroke-linecap="round"><path d="M383 56.546v82.024M383 151.538V165"/></g><circle fill="#BDD1D9" cx="360.5" cy="8.5" r="8.5"/><circle fill="#BDD1D9" cx="338.5" cy="8.5" r="8.5"/><g transform="translate(286 64)"><circle fill="#BDD1D9" cx="8.5" cy="8.5" r="8.5"/><path d="M23 4h57M23 13h44" stroke="#256782" stroke-width="4" opacity=".3" stroke-linecap="round"/></g><g transform="translate(286 94)"><circle fill="#BDD1D9" cx="8.5" cy="8.5" r="8.5"/><path d="M23 4h57M23 13h44" stroke="#256782" stroke-width="4" opacity=".3" stroke-linecap="round"/></g><g transform="translate(286 124)"><circle fill="#BDD1D9" cx="8.5" cy="8.5" r="8.5"/><path d="M23 4h57M23 13h44" stroke="#256782" stroke-width="4" opacity=".3" stroke-linecap="round"/></g><g transform="translate(286 154)"><circle fill="#BDD1D9" cx="8.5" cy="8.5" r="8.5"/><path d="M23 4h57M23 13h44" stroke="#256782" stroke-width="4" opacity=".3" stroke-linecap="round"/></g></g><g fill-rule="nonzero"><path d="M415.876 314h-48.752a2.12 2.12 0 0 1-2.124-2.133v-33.734a2.12 2.12 0 0 1 2.124-2.133h48.752a2.12 2.12 0 0 1 2.124 2.133v33.734a2.138 2.138 0 0 1-2.124 2.133z" fill-opacity=".085" fill="#19B159"/><path d="M324.86 310c.298 0 .626-.06.925-.149 1.404-.505 2.15-2.05 1.643-3.447-8.84-24.46-2.987-51.21 15.262-69.814 12.633-12.84 29.508-20.032 47.578-20.24 18.04-.208 35.123 6.598 48.025 19.17l.418.386-8.183.09a2.74 2.74 0 0 0-2.688 2.734 2.715 2.715 0 0 0 2.718 2.674h.03l14.724-.178c.717 0 1.404-.297 1.911-.802a2.667 2.667 0 0 0 .777-1.903l-.18-14.652c-.03-1.486-1.224-2.704-2.747-2.675a2.74 2.74 0 0 0-2.688 2.735l.09 8.143-.418-.386C428.317 218.31 410.219 211 391.044 211h-.866c-19.503.208-37.752 7.995-51.37 21.875-9.767 9.926-16.428 22.35-19.265 35.902-2.748 13.196-1.822 26.838 2.748 39.5.418 1.04 1.463 1.723 2.568 1.723zM459.69 259.794c-.508-1.397-2.061-2.14-3.465-1.635-1.403.505-2.15 2.05-1.642 3.448 8.81 24.465 2.956 51.22-15.29 69.798-13.228 13.467-30.787 20.214-48.346 20.214-17.051 0-34.103-6.361-47.242-19.144l-.418-.386 8.182-.09a2.74 2.74 0 0 0 2.688-2.734 2.715 2.715 0 0 0-2.718-2.675h-.03l-14.721.178a2.74 2.74 0 0 0-2.688 2.735l.18 14.655a2.715 2.715 0 0 0 2.717 2.675h.03a2.74 2.74 0 0 0 2.687-2.734l-.09-8.146.419.387c14.184 13.793 32.609 20.66 51.034 20.66 18.962 0 37.955-7.313 52.229-21.85 9.765-9.928 16.424-22.354 19.26-35.909a72.474 72.474 0 0 0-2.777-39.447z" fill="#256782"/><path d="M391.5 241c-11.92 0-21.604 9.679-21.604 21.59v10.781h-.864c-3.873 0-7.032 3.157-7.032 7.029v29.572c0 3.871 3.159 7.028 7.032 7.028h44.936c3.873 0 7.032-3.157 7.032-7.028V280.4c0-3.872-3.159-7.029-7.032-7.029h-.864v-10.78c0-11.912-9.685-21.591-21.604-21.591zm-16.18 21.59c0-8.933 7.27-16.2 16.21-16.2 8.94 0 16.21 7.267 16.21 16.2v10.781h-32.42v-10.78zm40.257 17.78v29.572c0 .893-.715 1.608-1.61 1.608h-44.905c-.894 0-1.609-.715-1.609-1.608V280.37c0-.894.715-1.608 1.61-1.608h44.905c.894 0 1.609.714 1.609 1.608z" fill="#19B159"/><path d="M392.684 288.073c-1.73-.366-3.576.672-4.326 2.443a4.286 4.286 0 0 0 1.297 5.1c.318.244.375.488.375.855v5.435c0 1.497 1.5 2.626 3 1.832.634-.335 1.009-1.068.951-1.832v-5.435c0-.397.087-.641.404-.886 1.067-.824 1.615-1.985 1.615-3.39-.029-2.045-1.384-3.694-3.316-4.122z" fill="#19B159"/></g><path d="M297 335h20" stroke="#256782" stroke-width="4" stroke-linecap="round"/><g stroke="#256782" stroke-width="4" stroke-linecap="round"><path d="M420 174.962V199"/></g></g></svg>