<svg width="517" height="340" viewBox="0 0 517 340" xmlns="http://www.w3.org/2000/svg" xmlns:xlink="http://www.w3.org/1999/xlink"><title>finder_2</title><defs><path d="M4.267 216A4.26 4.26 0 0 1 0 211.734V4.266A4.27 4.27 0 0 1 4.27 0h460.46c2.358 0 4.27 1.9 4.27 4.266v207.468a4.262 4.262 0 0 1-4.254 4.266H4.266z" id="a"/><path d="M2.93 340C1.311 340 0 337.009 0 333.285V6.715C0 3.006 1.314 0 2.932 0h316.136C320.688 0 322 2.991 322 6.715v326.57c0 3.709-1.31 6.715-2.92 6.715H2.93z" id="b"/><path d="M0 83V1.672C0 .75.363 0 .81 0h87.38c.447 0 .81.745.81 1.672V83" id="c"/><path d="M.81 94C.362 94 0 93.173 0 92.143V1.857C0 .83.363 0 .81 0h87.38c.447 0 .81.827.81 1.857v90.286C89 93.17 88.638 94 88.193 94H.81z" id="d"/><path d="M.81 94C.362 94 0 93.173 0 92.143V1.857C0 .83.363 0 .81 0h87.38c.447 0 .81.827.81 1.857v90.286C89 93.17 88.638 94 88.193 94H.81z" id="e"/><path d="M.81 94C.362 94 0 93.173 0 92.143V1.857C0 .83.363 0 .81 0h87.38c.447 0 .81.827.81 1.857v90.286C89 93.17 88.638 94 88.193 94H.81z" id="f"/><path d="M.81 94C.362 94 0 93.173 0 92.143V1.857C0 .83.363 0 .81 0h87.38c.447 0 .81.827.81 1.857v90.286C89 93.17 88.638 94 88.193 94H.81z" id="g"/><rect id="h" y="40" width="106" height="99" rx="11"/></defs><g fill="none" fill-rule="evenodd"><g transform="translate(0 42)"><use fill="#FFF" xlink:href="#a"/><path stroke="#256782" stroke-width="4" d="M4.267 214h460.479a2.262 2.262 0 0 0 2.254-2.266V4.266A2.262 2.262 0 0 0 464.73 2H4.27A2.27 2.27 0 0 0 2 4.266v207.468A2.26 2.26 0 0 0 4.267 214z"/></g><path d="M445.548 256.452L468 234" stroke="#256782" stroke-width="2" stroke-linecap="square"/><path d="M2.55 76h434.902" stroke="#256782" stroke-width="4" stroke-linecap="round"/><g><path d="M158 54h-8l-2-2h-6c-1.1 0-1.99.9-1.99 2L140 66c0 1.1.9 2 2 2h16c1.1 0 2-.9 2-2V56c0-1.1-.9-2-2-2zm-15 11l4.5-6 3.5 4.51 2.5-3.01L157 65h-14z" fill="#F15649"/><path d="M452 108.546v82.024M452 203.538V217M15 61h22M55 61h22M99 61h22" stroke="#256782" stroke-width="4" stroke-linecap="round"/><path d="M25 104h238M25 119h238M25 134h174" stroke="#256782" stroke-width="4" opacity=".3" stroke-linecap="round"/></g><g><g transform="translate(195)"><use fill="#FFF" xlink:href="#b"/><path stroke="#256782" stroke-width="4" d="M3.143 338h315.715c.135-.148.297-.408.452-.765.428-.984.69-2.406.69-3.95V6.715c0-1.55-.262-2.972-.691-3.953-.156-.356-.318-.616-.454-.762H3.148c-.136.147-.3.409-.456.767C2.262 3.75 2 5.172 2 6.715v326.57c0 1.55.262 2.972.69 3.953.156.356.318.616.453.762z"/></g><path fill="#E7EDF1" d="M199 36h92v300h-92z"/><path d="M501 51.546V254.57M501 266.538V280M238 19h36.36M288 19h36.36M434 19h36.36M481 19h7.36" stroke="#256782" stroke-width="4" stroke-linecap="round"/><path d="M225 9h-14a2 2 0 0 0-2 2v14a2 2 0 0 0 2 2h14a2 2 0 0 0 2-2V11a2 2 0 0 0-2-2zm-8.681 14L212 18.681l1.218-1.217 3.1 3.092L222.875 14l1.218 1.226L216.32 23z" fill="#19B159"/><path d="M197.5 34h316.36" stroke="#256782" stroke-width="4" stroke-linecap="square"/><path d="M210.5 52h51.36M271.5 52h5.36M210.5 67h51.36M271.5 67h5.36M210.5 82h51.36M271.5 82h5.36M210.5 97h51.36M271.5 97h5.36" stroke="#256782" stroke-width="4" stroke-linecap="round"/><g><g transform="translate(301 253)"><use fill="#FFF" xlink:href="#c"/><path stroke="#A1B0C2" stroke-width="2" d="M1 82h87V1.672c0-.265-.042-.504-.105-.672H1.105A1.98 1.98 0 0 0 1 1.672V82z"/></g><path d="M359.875 295.375v-15.75A2.633 2.633 0 0 0 357.25 277h-23.625a2.633 2.633 0 0 0-2.625 2.625v15.75a2.633 2.633 0 0 0 2.625 2.625h23.625a2.633 2.633 0 0 0 2.625-2.625zm-19.031-7.219l3.281 3.95 4.594-5.918 5.906 7.875H336.25l4.594-5.907z" fill="#A1B0C2"/><path d="M301.5 319.5h88.023" stroke="#A1B0C2" stroke-linecap="square"/><path d="M311.5 328h51.36M372.5 328h5.36" stroke="#A1B0C2" stroke-width="4" stroke-linecap="round"/><g><g transform="translate(400 149)"><use fill="#FFF" xlink:href="#d"/><path stroke="#A1B0C2" stroke-width="2" d="M1.13 93h86.74c.079-.212.13-.52.13-.857V1.857c0-.339-.051-.646-.13-.857H1.13c-.08.212-.131.52-.131.857v90.286c0 .339.051.645.13.857z"/></g><path d="M458.875 191.375v-15.75A2.633 2.633 0 0 0 456.25 173h-23.625a2.633 2.633 0 0 0-2.625 2.625v15.75a2.633 2.633 0 0 0 2.625 2.625h23.625a2.633 2.633 0 0 0 2.625-2.625zm-19.031-7.219l3.281 3.95 4.594-5.918 5.906 7.875H435.25l4.594-5.907z" fill="#A1B0C2"/><path d="M400.5 215.5h88.023" stroke="#A1B0C2" stroke-linecap="square"/><path d="M410.5 224h51.36M471.5 224h5.36M410.5 232h27.36" stroke="#A1B0C2" stroke-width="4" stroke-linecap="round"/></g><g><g transform="translate(301 149)"><use fill="#FFF" xlink:href="#e"/><path stroke="#A1B0C2" stroke-width="2" d="M1.13 93h86.74c.079-.212.13-.52.13-.857V1.857c0-.339-.051-.646-.13-.857H1.13c-.08.212-.131.52-.131.857v90.286c0 .339.051.645.13.857z"/></g><path d="M359.875 191.375v-15.75A2.633 2.633 0 0 0 357.25 173h-23.625a2.633 2.633 0 0 0-2.625 2.625v15.75a2.633 2.633 0 0 0 2.625 2.625h23.625a2.633 2.633 0 0 0 2.625-2.625zm-19.031-7.219l3.281 3.95 4.594-5.918 5.906 7.875H336.25l4.594-5.907z" fill="#A1B0C2"/><path d="M301.5 215.5h88.023" stroke="#A1B0C2" stroke-linecap="square"/><path d="M311.5 224h51.36M372.5 224h5.36M311.5 232h27.36" stroke="#A1B0C2" stroke-width="4" stroke-linecap="round"/></g><g><g transform="translate(400 45)"><use fill="#FFF" xlink:href="#f"/><path stroke="#A1B0C2" stroke-width="2" d="M1.13 93h86.74c.079-.212.13-.52.13-.857V1.857c0-.339-.051-.646-.13-.857H1.13c-.08.212-.131.52-.131.857v90.286c0 .339.051.645.13.857z"/></g><path d="M458.875 87.375v-15.75A2.633 2.633 0 0 0 456.25 69h-23.625A2.633 2.633 0 0 0 430 71.625v15.75A2.633 2.633 0 0 0 432.625 90h23.625a2.633 2.633 0 0 0 2.625-2.625zm-19.031-7.219l3.281 3.95 4.594-5.918 5.906 7.874H435.25l4.594-5.906z" fill="#A1B0C2"/><path d="M400.5 111.5h88.023" stroke="#A1B0C2" stroke-linecap="square"/><path d="M410.5 120h51.36M471.5 120h5.36M410.5 128h27.36" stroke="#A1B0C2" stroke-width="4" stroke-linecap="round"/></g><g><g transform="translate(301 45)"><use fill="#FFF" xlink:href="#g"/><path stroke="#A1B0C2" stroke-width="2" d="M1.13 93h86.74c.079-.212.13-.52.13-.857V1.857c0-.339-.051-.646-.13-.857H1.13c-.08.212-.131.52-.131.857v90.286c0 .339.051.645.13.857z"/></g><path d="M359.875 87.375v-15.75A2.633 2.633 0 0 0 357.25 69h-23.625A2.633 2.633 0 0 0 331 71.625v15.75A2.633 2.633 0 0 0 333.625 90h23.625a2.633 2.633 0 0 0 2.625-2.625zm-19.031-7.219l3.281 3.95 4.594-5.918 5.906 7.874H336.25l4.594-5.906z" fill="#A1B0C2"/><path d="M301.5 111.5h88.023" stroke="#A1B0C2" stroke-linecap="square"/><path d="M311.5 120h51.36M372.5 120h5.36M311.5 128h27.36" stroke="#A1B0C2" stroke-width="4" stroke-linecap="round"/></g></g></g><g transform="translate(161 180)"><rect stroke="#256782" stroke-width="4" x="25" y="2" width="56" height="76" rx="28"/><use fill="#FFF" xlink:href="#h"/><rect stroke="#256782" stroke-width="4" x="2" y="42" width="102" height="95" rx="11"/><path d="M4 51.008C4 47.138 7.142 44 11 44h7v91h-7a7 7 0 0 1-7-7.008V51.008z" fill="#E7EDF1"/><g transform="translate(46 61)"><path d="M7 4.5v27.04" stroke="#256782" stroke-width="4" stroke-linecap="round"/><circle fill="#256782" cx="7" cy="7" r="7"/></g><path d="M4.5 123h39.01M52.5 123h6.01M4.5 113h67.01" stroke="#256782" stroke-width="4" stroke-linecap="round"/></g></g></svg>