<svg width="470" height="272" viewBox="0 0 470 272" xmlns="http://www.w3.org/2000/svg" xmlns:xlink="http://www.w3.org/1999/xlink"><title>window</title><defs><path d="M4.267 272C1.91 272 0 269.607 0 266.628V5.372C0 2.405 1.914 0 4.27 0h460.46c2.358 0 4.27 2.393 4.27 5.372v261.256c0 2.967-1.907 5.372-4.254 5.372H4.266z" id="a"/></defs><g fill="none" fill-rule="evenodd"><g><use fill="#FFF" xlink:href="#a"/><path stroke="#256782" stroke-width="4" d="M4.267 270h460.479c1.127 0 2.254-1.422 2.254-3.372V5.372C467 3.414 465.874 2 464.73 2H4.27C3.132 2 2 3.423 2 5.372v261.256C2 268.586 3.125 270 4.267 270z"/></g><path fill="#E7EDF1" d="M4 36h84v232H4z"/><path d="M445.548 270.452L468 248" stroke="#256782" stroke-width="2" stroke-linecap="square"/><path d="M2.55 34h434.902" stroke="#256782" stroke-width="4" stroke-linecap="round"/><g stroke="#256782" stroke-width="4" stroke-linecap="round"><path d="M53 19h22M15 19h22M93 19h22M383 19h22M423 19h22M20 55h46M20 73h46M20 91h46M20 109h46M20 127h46M20 145h46M20 163h46"/></g><g stroke="#256782" stroke-width="4" stroke-linecap="round"><path d="M452 66.546v82.024M452 161.538V175"/></g><g stroke="#256782" stroke-width="4" stroke-linecap="round" opacity=".3"><path d="M127.408 69H365M127.408 83h222.225M103.413 69h13.721M103.413 83h13.721"/></g><g stroke="#256782" stroke-width="4" stroke-linecap="round" opacity=".3"><path d="M127.408 109H365M127.408 123h222.225M103.413 109h13.721M103.413 123h13.721"/></g><g stroke="#256782" stroke-width="4" stroke-linecap="round" opacity=".3"><path d="M127.408 149H365M127.408 163h222.225M103.413 149h13.721M103.413 163h13.721"/></g><g stroke="#256782" stroke-width="4" stroke-linecap="round" opacity=".3"><path d="M127.408 189H365M127.408 203h222.225M103.413 189h13.721M103.413 203h13.721"/></g></g></svg>