<svg width="417" height="197" viewBox="0 0 417 197" xmlns="http://www.w3.org/2000/svg"><title>cke5_b_02</title><g fill="none" fill-rule="evenodd"><path fill="#FFF" d="M4 35h410v161H4zM4 3h410v32H4z"/><path d="M3.004 195h410.213c.97 0 1.783-.835 1.783-1.89V3.89c0-1.06-.812-1.89-1.797-1.89H3.797C2.817 2 2 2.837 2 3.89v190.115c0 .55.446.995 1.004.995z" stroke="#256782" stroke-width="4"/><path d="M2.55 34h384.9" stroke="#256782" stroke-width="4" stroke-linecap="round"/><g stroke="#256782" stroke-linecap="round" stroke-width="4"><path d="M15 19h22M55 19h22M99 19h22M143 19h22"/></g><g stroke="#256782" stroke-linecap="round" stroke-width="4"><path d="M400 50.4v60.202M400 120.12V130"/></g><path d="M404.548 194.452l9.722-9.722" stroke="#256782" stroke-width="2" stroke-linecap="square"/><path d="M185 195h189.003" stroke="#F2FAFF" stroke-width="4" stroke-linecap="round"/><path d="M195.53 195h7.09M177.53 195h7.09M372 195h21" stroke="#256782" stroke-width="4" stroke-linecap="round"/><g><path d="M29 152h123V62H29v90zm122.966.397a.527.527 0 0 0-.003.004.093.093 0 0 0 .007-.018z" stroke="#B7CED9" stroke-width="4"/><path d="M103 115.375v-15.75c0-1.444-1.023-2.625-2.273-2.625H80.273C79.023 97 78 98.181 78 99.625v15.75c0 1.444 1.023 2.625 2.273 2.625h20.454c1.25 0 2.273-1.181 2.273-2.625zm-16.477-7.219l2.84 3.95 3.978-5.918 5.114 7.874h-15.91l3.978-5.906z" fill="#B7CED9"/><g opacity=".3" stroke="#256782" stroke-linecap="round" stroke-width="4"><path d="M168 63h210M168 79h210M168 95h210"/></g><g opacity=".3" stroke="#256782" stroke-linecap="round" stroke-width="4"><path d="M168 111h210M168 127h155"/></g></g></g></svg>