<svg width="469" height="323" viewBox="0 0 469 323" xmlns="http://www.w3.org/2000/svg" xmlns:xlink="http://www.w3.org/1999/xlink"><title>cke5_f_02</title><defs><path d="M4.267 267C1.91 267 0 264.651 0 261.727V5.273C0 2.361 1.914 0 4.27 0h460.46c2.358 0 4.27 2.349 4.27 5.273v256.454c0 2.912-1.907 5.273-4.254 5.273H4.266z" id="b"/><path d="M1.083 81C.485 81 0 80.287 0 79.4V1.6C0 .716.486 0 1.084 0h116.832c.599 0 1.084.713 1.084 1.6v77.8c0 .884-.484 1.6-1.08 1.6H1.084z" id="a"/><mask id="c" x="0" y="0" width="119" height="81" fill="#fff"><use xlink:href="#a"/></mask><path d="M67.3 49.825c4.245-14.237 17.375-24.612 32.914-24.612 3.772 0 7.402.611 10.797 1.74C120.227 10.847 137.515 0 157.32 0c29.054 0 52.688 23.337 53.378 52.388C223.889 58.705 233 72.178 233 87.779 233 109.445 215.438 127 193.773 127H77.227C55.563 127 38 109.44 38 87.78c0-18.237 12.442-33.56 29.3-37.955z" id="d"/></defs><g fill="none" fill-rule="evenodd"><g><use fill="#FFF" xlink:href="#b"/><path stroke="#256782" stroke-width="4" d="M4.267 265h460.479c1.137 0 2.254-1.384 2.254-3.273V5.273C467 3.376 465.884 2 464.73 2H4.27C3.122 2 2 3.385 2 5.273v256.454C2 263.624 3.115 265 4.267 265z"/></g><path d="M2.55 34h434.902" stroke="#256782" stroke-width="4" stroke-linecap="round"/><g stroke="#256782" stroke-width="4" stroke-linecap="round" opacity=".3"><path d="M25 62h293M25 77h293M25 92h161"/></g><g stroke="#256782" stroke-width="4" stroke-linecap="round" opacity=".3"><path d="M25 108h161M25 123h161M25 138h118"/></g><g stroke="#256782" stroke-width="4" stroke-linecap="round" opacity=".3"><path d="M25 169h161M25 184h293M25 199h292M25 214h213"/></g><g stroke="#256782" stroke-width="4" stroke-linecap="round"><path d="M452 66.796v119.578M452.333 198.77V212M15 19h18M47 19h18M79 19h18M111 19h18M143 19h18M175 19h18"/></g><g transform="translate(199 90)"><use stroke="#BDD1D9" mask="url(#c)" stroke-width="8" fill="#FFF" stroke-linecap="square" stroke-linejoin="round" stroke-dasharray="8,8,8,8" xlink:href="#a"/><path d="M74.556 50.25v-16.5c0-1.513-1.25-2.75-2.778-2.75h-25C45.25 31 44 32.237 44 33.75v16.5c0 1.513 1.25 2.75 2.778 2.75h25c1.528 0 2.778-1.237 2.778-2.75zm-20.14-7.563l3.473 4.14 4.861-6.202 6.25 8.25H49.556l4.86-6.188z" fill="#BDD1D9"/></g><g fill="#19B159"><path d="M206 97h44v9h-44z"/><path opacity=".254" d="M250 97h61v9h-61z"/></g><g stroke="#9AB5C6" stroke-width="3" stroke-linecap="round"><path d="M356 67.5h50.134M356 75.5h50.134M356 83.5h35.949M356 99.5h50.134M356 107.5h23.13M356 122.5h50.134M356 130.5h50.134M356 138.5h35.949"/></g><g><g transform="translate(216 167)"><use fill="#FFF" xlink:href="#d"/><path stroke="#256782" stroke-width="4" d="M69.217 50.397l-.322 1.08-1.09.284C51.548 55.998 40 70.738 40 87.779 40 108.336 56.667 125 77.227 125h116.546C214.335 125 231 108.339 231 87.78c0-14.475-8.337-27.445-21.165-33.589l-1.107-.53-.029-1.226C208.034 24.417 185.236 2 157.321 2c-18.6 0-35.462 10.022-44.574 25.947l-.814 1.421-1.554-.517a32.147 32.147 0 0 0-10.165-1.638c-14.385 0-26.926 9.53-30.997 23.184z"/></g><path d="M264 292h55M245 292h9M231 281h35M216 281h3M286 218l-1 5" stroke="#256782" stroke-width="4" stroke-linecap="round" stroke-linejoin="round"/><path d="M409 290c19.33 0 35-15.848 35-35.397 0-19.55-16.118-31.206-21.645-32.603 0 0 11.053 8.85 11.513 32.603C434.328 278.356 409 290 409 290z" fill="#E7EDF1"/></g><g><g transform="translate(320 205)"><path d="M26.457 52.727h-.228l-4.788-.226c-2.341-.096-4.252-1.894-4.478-4.211l-.43-4.045a21.876 21.876 0 0 1-4.059-2.605l-4.022 1.261a4.717 4.717 0 0 1-5.71-2.296l-2.203-4.27a4.645 4.645 0 0 1 1.424-5.949l3.328-2.379v-2.486c.04-.826.131-1.648.276-2.462l-3.173-2.713a4.643 4.643 0 0 1-.862-6.055l2.598-4.02a4.806 4.806 0 0 1 5.938-1.714l3.795 1.678a20.601 20.601 0 0 1 4.25-2.201l.945-4.092c.468-2.288 2.537-3.9 4.885-3.807l4.788.226c2.341.096 4.252 1.894 4.477 4.211l.431 4.069a21.672 21.672 0 0 1 4.059 2.605l4.022-1.261a4.705 4.705 0 0 1 5.71 2.296l2.203 4.235a4.657 4.657 0 0 1-1.424 5.948l-3.328 2.379v2.486c-.04.826-.132 1.648-.276 2.463l-1.508 1.76 1.532-1.737 3.089 2.7a4.643 4.643 0 0 1 .862 6.068l-2.598 4.02a4.806 4.806 0 0 1-5.902 1.75l-3.795-1.678a20.686 20.686 0 0 1-4.25 2.189l-.91 4.14a4.686 4.686 0 0 1-4.668 3.723z" fill="#256782" fill-rule="nonzero"/><path d="M11.82 37.428a5.013 5.013 0 0 1 3.208 1.167 15.82 15.82 0 0 0 3.134 2.01 4.965 4.965 0 0 1 2.835 3.933l.4 4.256 5.069.297.911-4.243a4.973 4.973 0 0 1 3.196-3.66 15.893 15.893 0 0 0 3.31-1.712 5.021 5.021 0 0 1 4.806-.472l3.958 1.75 2.797-4.219-3.234-2.903a4.859 4.859 0 0 1-1.61-4.455c.112-.648.183-1.303.212-1.96.042-.657.042-1.316 0-1.973a4.865 4.865 0 0 1 2.023-4.293l3.47-2.481-2.272-4.504-4.182 1.328a5.019 5.019 0 0 1-4.745-.919 15.732 15.732 0 0 0-3.134-2.01 4.965 4.965 0 0 1-2.834-3.933l-.45-4.305-5.07-.298-.91 4.243a4.973 4.973 0 0 1-3.185 3.66 15.88 15.88 0 0 0-3.309 1.713 5.021 5.021 0 0 1-4.807.471L7.45 12.154l-2.797 4.219 3.234 2.903a4.847 4.847 0 0 1 1.61 4.455 15.502 15.502 0 0 0-.211 1.96 15.289 15.289 0 0 0 0 1.973 4.865 4.865 0 0 1-2.023 4.293L3.79 34.438l2.272 4.504 4.22-1.315a4.836 4.836 0 0 1 1.536-.199z" fill="#FFF"/><path d="M25.08 34.824h-.407c-4.587-.111-8.232-3.867-8.176-8.426.056-4.56 3.791-8.226 8.38-8.226 4.588 0 8.323 3.667 8.379 8.226.055 4.559-3.589 8.315-8.176 8.426z" fill="#256782" fill-rule="nonzero"/><path d="M25.08 22.654c-2.096-.046-3.832 1.605-3.879 3.688-.046 2.082 1.615 3.808 3.711 3.854 2.048.027 3.748-1.565 3.841-3.598.094-2.033-1.452-3.773-3.493-3.932l-.18-.012z" fill="#FFF"/><path d="M70.715 117.143a4.378 4.378 0 0 1-4.178-3.057l-1.33-4.187a32.603 32.603 0 0 1-5.398-.987l-2.754 3.437a4.4 4.4 0 0 1-5.83.94l-8.451-5.448a4.326 4.326 0 0 1-1.509-5.674l2.035-3.89a32.267 32.267 0 0 1-3.112-4.497l-4.394.488c-2.253.268-4.337-1.228-4.788-3.438l-2.095-9.79a4.35 4.35 0 0 1 2.969-5.068l4.214-1.32a32.056 32.056 0 0 1 1.017-5.425l-3.46-2.736a4.335 4.335 0 0 1-.945-5.794l5.483-8.398a4.386 4.386 0 0 1 5.71-1.5l3.915 2.023a32.247 32.247 0 0 1 4.525-3.093l-.491-4.294a4.357 4.357 0 0 1 3.448-4.759l9.852-2.081c2.211-.472 4.421.806 5.1 2.95l1.329 4.187c1.824.176 3.63.507 5.399.988l2.753-3.438a4.4 4.4 0 0 1 5.83-.94l8.464 5.472a4.326 4.326 0 0 1 1.508 5.674l-2.035 3.843a32.244 32.244 0 0 1 3.113 4.496l4.393-.5c2.245-.25 4.317 1.231 4.789 3.427l2.095 9.79a4.351 4.351 0 0 1-2.981 5.068l-4.214 1.32a31.937 31.937 0 0 1-.994 5.365l3.46 2.736a4.335 4.335 0 0 1 .946 5.794l-5.483 8.398a4.398 4.398 0 0 1-5.71 1.5l-3.915-2.023a32.546 32.546 0 0 1-4.525 3.093l.49 4.366a4.357 4.357 0 0 1-3.447 4.758l-9.853 2.082a4.42 4.42 0 0 1-.945.142z" fill="#256782" fill-rule="nonzero"/><path d="M59.495 104.913c.415.001.827.059 1.227.17 1.63.451 3.298.757 4.983.915a4.498 4.498 0 0 1 3.902 3.098l1.35 4.244 9.622-2.037-.503-4.427a4.468 4.468 0 0 1 2.307-4.402 28.32 28.32 0 0 0 4.173-2.854 4.527 4.527 0 0 1 4.91-.549l3.975 2.049 5.364-8.195-3.498-2.781a4.46 4.46 0 0 1-1.51-4.732 28 28 0 0 0 .92-4.951 4.482 4.482 0 0 1 3.118-3.878l4.271-1.342-2.05-9.561-4.454.5a4.524 4.524 0 0 1-4.431-2.293 28.142 28.142 0 0 0-2.872-4.146 4.465 4.465 0 0 1-.552-4.879l2.062-3.95-8.248-5.33-2.785 3.475a4.533 4.533 0 0 1-4.762 1.5 28.462 28.462 0 0 0-4.983-.914 4.51 4.51 0 0 1-3.903-3.098l-1.35-4.268-9.622 2.036.504 4.427a4.48 4.48 0 0 1-2.246 4.415 28.308 28.308 0 0 0-4.173 2.854 4.54 4.54 0 0 1-4.91.549l-3.976-2.05-5.363 8.196 3.498 2.769a4.459 4.459 0 0 1 1.46 4.756 28.341 28.341 0 0 0-.945 4.878 4.482 4.482 0 0 1-3.117 3.878l-4.246 1.378 2.05 9.561 4.454-.5a4.512 4.512 0 0 1 4.43 2.293 28.215 28.215 0 0 0 2.873 4.147 4.465 4.465 0 0 1 .552 4.878l-2.087 3.988 8.248 5.33 2.798-3.477a4.503 4.503 0 0 1 3.535-1.67z" fill="#FFF"/><ellipse fill="#7DD6EA" fill-rule="nonzero" cx="71.823" cy="81.065" rx="16.871" ry="16.789"/><path d="M68.392 100.656c-12.239-.003-22.334-9.526-22.973-21.671-.638-12.146 8.403-22.662 20.575-23.932 12.172-1.27 23.215 7.15 25.129 19.163 1.914 12.013-5.97 23.411-17.942 25.94-1.574.332-3.18.5-4.789.5zm0-41.951c-8.14.008-15.391 5.111-18.102 12.739-2.71 7.627-.292 16.123 6.037 21.21 6.33 5.086 15.197 5.658 22.136 1.428 6.938-4.23 10.443-12.344 8.748-20.255-1.89-8.818-9.733-15.119-18.806-15.11l-.012-.012z" fill="#256782"/></g></g></g></svg>