<svg width="398" height="306" viewBox="0 0 398 306" xmlns="http://www.w3.org/2000/svg"><title>icon</title><g fill="none" fill-rule="evenodd"><path d="M3.62 304h390.77c.68 0 1.61-1.382 1.61-3.372V39.372c0-1.998-.928-3.372-1.624-3.372H3.624C2.933 36 2 37.382 2 39.372v261.256c0 1.999.927 3.372 1.62 3.372z" stroke="#256782" stroke-width="4" fill="#FFF"/><path d="M2.55 68h370.472M20 53h13M48.333 53h13M76.667 53h13M105 53h13M133.333 53h13M161.667 53h13M190 53h13M382 100.546v82.024M382 195.538V209" stroke="#256782" stroke-width="4" stroke-linecap="round"/><path d="M23.637 93h323.16M23.637 105h161.37M23.637 117h323.16M23.637 129h129.38M23.637 153h323.16M122.98 165H346.8M23.637 165h22.53M231 129h22.53M292 105h54.01M23.637 177h323.16M23.637 189h263.16M23.637 213h323.16M23.637 225h192.36M270.9 225H346M23.637 237h323.16M23.637 249h263.16" stroke="#256782" stroke-width="4" opacity=".3" stroke-linecap="round"/><path d="M220.5 52.296c0 4.03 3.688 7.307 8.23 7.307 1.172 0 2.299-.216 3.357-.637 1.878 1.058 2.037 1.115 4.12 1.855.342.125.65.148.695.057.045-.09.022-.49-.091-.854-.547-1.855-.99-2.014-1.15-3.778a6.681 6.681 0 0 0 1.309-3.95c0-4.018-3.7-7.296-8.24-7.296-4.542 0-8.23 3.278-8.23 7.296zm10.972 0c0-.592.501-1.081 1.104-1.081.604 0 1.093.49 1.093 1.081 0 .603-.49 1.081-1.093 1.081a1.093 1.093 0 0 1-1.104-1.081zm-3.835 0c0-.592.49-1.081 1.092-1.081.615 0 1.104.49 1.104 1.081 0 .603-.49 1.081-1.104 1.081-.599 0-1.086-.482-1.092-1.081zm-3.848 0c0-.592.501-1.081 1.105-1.081.603 0 1.092.49 1.092 1.081 0 .603-.49 1.081-1.092 1.081a1.093 1.093 0 0 1-1.105-1.081z" fill="#F15649" fill-rule="nonzero"/><path d="M193 105h91.022" stroke="#FDCB6E" stroke-width="4" opacity=".8" stroke-linecap="round"/><path d="M161 129h62.032" stroke="#E17055" stroke-width="4" opacity=".8" stroke-linecap="round"/><path d="M53 165h62.032" stroke="#6C5CE7" stroke-width="4" opacity=".8" stroke-linecap="round"/><path d="M224 225h39.013" stroke="#E84393" stroke-width="4" opacity=".8" stroke-linecap="round"/><path d="M6 27h22.023" stroke="#FDCB6E" stroke-width="2" opacity=".8" stroke-linecap="round"/><circle fill="#BDD1D9" cx="17.5" cy="11.5" r="11.5"/><path d="M37 27h22.023" stroke="#E17055" stroke-width="2" opacity=".8" stroke-linecap="round"/><circle fill="#BDD1D9" cx="48.5" cy="11.5" r="11.5"/><path d="M68 27h22.023" stroke="#6C5CE7" stroke-width="2" opacity=".8" stroke-linecap="round"/><circle fill="#BDD1D9" cx="79.5" cy="11.5" r="11.5"/><path d="M99 27h22.023" stroke="#E84393" stroke-width="2" opacity=".8" stroke-linecap="round"/><circle fill="#BDD1D9" cx="110.5" cy="11.5" r="11.5"/></g></svg>