<svg width="469" height="239" viewBox="0 0 469 239" xmlns="http://www.w3.org/2000/svg" xmlns:xlink="http://www.w3.org/1999/xlink"><title>cke5_b_01</title><defs><path d="M4.267 239C1.91 239 0 236.897 0 234.28V4.72C0 2.113 1.914 0 4.27 0h460.46c2.358 0 4.27 2.103 4.27 4.72v229.56c0 2.607-1.907 4.72-4.254 4.72H4.266z" id="b"/><path d="M1.446 108C.648 108 0 107.05 0 105.867V2.133C0 .955.649 0 1.448 0h156.104c.8 0 1.448.95 1.448 2.133v103.734c0 1.178-.647 2.133-1.442 2.133H1.446z" id="a"/><mask id="c" x="0" y="0" width="159" height="108" fill="#fff"><use xlink:href="#a"/></mask></defs><g fill="none" fill-rule="evenodd"><g><use fill="#FFF" xlink:href="#b"/><path stroke="#256782" stroke-width="4" d="M4.267 237h460.479c1.194 0 2.254-1.175 2.254-2.72V4.72c0-1.55-1.06-2.72-2.27-2.72H4.27C3.065 2 2 3.177 2 4.72v229.56C2 235.83 3.058 237 4.267 237z"/></g><path d="M2.55 36a2 2 0 1 1 0-4h434.902a2 2 0 1 1 0 4H2.55zM15 21a2 2 0 1 1 0-4h18a2 2 0 1 1 0 4H15zm32 0a2 2 0 1 1 0-4h18a2 2 0 1 1 0 4H47zm32 0a2 2 0 1 1 0-4h18a2 2 0 1 1 0 4H79zm32 0a2 2 0 0 1 0-4h18a2 2 0 0 1 0 4h-18zm32 0a2 2 0 0 1 0-4h18a2 2 0 0 1 0 4h-18zm32 0a2 2 0 0 1 0-4h18a2 2 0 0 1 0 4h-18zM450 58.796a2 2 0 0 1 4 0v119.578a2 2 0 1 1-4 0V58.796zm.333 129.973a2 2 0 1 1 4 0V202a2 2 0 1 1-4 0v-13.23z" fill="#256782" fill-rule="nonzero"/><path d="M25 63a2 2 0 1 1 0-4h399a2 2 0 0 1 0 4H25zm0 16a2 2 0 1 1 0-4h399a2 2 0 0 1 0 4H25zm0 16a2 2 0 1 1 0-4h219a2 2 0 0 1 0 4H25zM25 119a2 2 0 0 1 0-4h220a2 2 0 0 1 0 4H25zm0 16a2 2 0 0 1 0-4h220a2 2 0 0 1 0 4H25zm0 16a2 2 0 0 1 0-4h200a2 2 0 0 1 0 4H25z" fill="#BDD1D9" fill-rule="nonzero"/><path d="M113 151a2 2 0 0 1 0-4h89a2 2 0 0 1 0 4h-89z" fill="#0A90EB" fill-rule="nonzero"/><g transform="translate(267 90)"><use stroke="#BDD1D9" mask="url(#c)" stroke-width="8" fill="#FFF" stroke-linecap="round" stroke-linejoin="round" stroke-dasharray="1,1,1" xlink:href="#a"/><path d="M100 66.375v-21.75C100 42.631 98.323 41 96.273 41H62.727C60.677 41 59 42.631 59 44.625v21.75C59 68.369 60.677 70 62.727 70h33.546c2.05 0 3.727-1.631 3.727-3.625zm-27.023-9.969l4.66 5.456 6.522-8.175 8.386 10.876h-26.09l6.522-8.157z" fill="#BDD1D9"/></g></g></svg>