<svg xmlns="http://www.w3.org/2000/svg" width="490" height="517" viewBox="0 0 490 517"><g fill="none" fill-rule="evenodd" transform="translate(-13 -21)"><path fill="#8E44AD" d="M261.461 25.434c-16.527-7.522-35.93-5.825-50.9 4.453L35.465 150.098c-14.97 10.278-23.232 27.575-21.675 45.375l18.214 208.192c1.558 17.8 12.698 33.399 29.226 40.92l193.308 87.981c16.527 7.522 35.93 5.825 50.9-4.453l175.095-120.211c14.97-10.278 23.232-27.575 21.675-45.375l-18.214-208.192c-1.558-17.8-12.698-33.399-29.226-40.92L261.461 25.433z" opacity=".058"/><path fill="#8E44AD" d="M289.875 123.725c-9.242-6.59-21.349-7.863-31.76-3.339l-121.763 52.921c-10.411 4.525-17.544 14.16-18.712 25.274l-13.664 130.002c-1.168 11.115 3.806 22.022 13.048 28.612l108.1 77.08c9.243 6.59 21.35 7.863 31.76 3.339l121.764-52.921c10.411-4.525 17.544-14.16 18.712-25.274l13.664-130.002c1.168-11.115-3.806-22.022-13.048-28.612l-108.1-77.08z" opacity=".133"/><ellipse cx="260.5" cy="282" fill="#FFF" rx="55.5" ry="55"/><path fill="#8E44AD" d="M280.2 260.38a11.916 11.916 0 0 0 7.375 2.53c6.51 0 11.787-5.15 11.787-11.506 0-6.355-5.277-11.507-11.787-11.507-6.51 0-11.786 5.152-11.786 11.507 0 1.715.384 3.342 1.073 4.804l-7.001 6.834a20.523 20.523 0 0 0-11.521-3.503c-4.629 0-8.895 1.514-12.307 4.062l-6.281-6.132a11.253 11.253 0 0 0 1.768-6.065c0-6.355-5.277-11.507-11.787-11.507-6.51 0-11.787 5.152-11.787 11.507 0 6.355 5.277 11.507 11.787 11.507 2.28 0 4.409-.632 6.212-1.726l6.282 6.132c-2.61 3.331-4.162 7.496-4.162 12.015a19.38 19.38 0 0 0 3.59 11.247l-7.002 6.835a11.984 11.984 0 0 0-4.92-1.048c-6.51 0-11.787 5.152-11.787 11.507 0 6.356 5.277 11.507 11.787 11.507 6.51 0 11.787-5.151 11.787-11.507 0-2.725-.97-5.229-2.593-7.2l6.352-6.201c3.528 2.903 8.085 4.653 13.06 4.653 4.63 0 8.895-1.514 12.308-4.063l6.91 6.746a11.253 11.253 0 0 0-1.768 6.065c0 6.356 5.277 11.507 11.786 11.507 6.51 0 11.787-5.151 11.787-11.507 0-6.355-5.277-11.507-11.787-11.507-2.28 0-4.408.632-6.212 1.727l-6.91-6.746c2.61-3.332 4.161-7.497 4.161-12.015 0-4.858-1.792-9.306-4.766-12.75l6.352-6.202zm-14.19-60.284l57.98 32.679c4.956 2.794 8.01 7.958 8.01 13.546v65.358c0 5.588-3.054 10.752-8.01 13.546l-57.98 32.68a16.36 16.36 0 0 1-16.02 0l-57.98-32.68c-4.956-2.794-8.01-7.958-8.01-13.546v-65.358c0-5.588 3.054-10.752 8.01-13.546l57.98-32.68a16.36 16.36 0 0 1 16.02 0zm-7.67 93.815c-8.248 0-14.934-6.527-14.934-14.58 0-8.051 6.686-14.579 14.934-14.579s14.934 6.528 14.934 14.58-6.686 14.58-14.934 14.58zm29.235 20.256c-3.56 0-6.446-2.818-6.446-6.294 0-3.475 2.886-6.293 6.446-6.293 3.56 0 6.447 2.818 6.447 6.293 0 3.476-2.886 6.294-6.447 6.294zm-57.842 0c-3.56 0-6.446-2.818-6.446-6.294 0-3.475 2.886-6.293 6.446-6.293 3.56 0 6.446 2.818 6.446 6.293 0 3.476-2.886 6.294-6.446 6.294zm0-56.47c-3.56 0-6.446-2.817-6.446-6.293s2.886-6.293 6.446-6.293c3.56 0 6.446 2.817 6.446 6.293s-2.886 6.293-6.446 6.293zm57.842 0c-3.56 0-6.446-2.817-6.446-6.293s2.886-6.293 6.446-6.293c3.56 0 6.447 2.817 6.447 6.293s-2.886 6.293-6.447 6.293z"/></g></svg>