<svg width="517" height="295" viewBox="0 0 517 295" xmlns="http://www.w3.org/2000/svg"><title>Group</title><g fill="none" fill-rule="evenodd"><path d="M3.784 216C1.694 216 0 214.1 0 211.734V4.266C0 1.91 1.698 0 3.788 0h408.424C414.304 0 416 1.9 416 4.266v207.468c0 2.356-1.692 4.266-3.774 4.266H3.784z" fill="#FFF"/><path d="M3.784 214h408.442c.92 0 1.774-.965 1.774-2.266V4.266C414 2.96 413.147 2 412.212 2H3.788C2.858 2 2 2.966 2 4.266v207.468C2 213.04 2.852 214 3.784 214z" stroke="#256782" stroke-width="4"/><path d="M395.532 67.546a2 2 0 1 1 4 0v82.024a2 2 0 0 1-4 0V67.546zm0 94.992a2 2 0 1 1 4 0V176a2 2 0 0 1-4 0v-13.462z" fill="#256782" fill-rule="nonzero"/><path d="M41 68a2 2 0 1 1 0-4h150a2 2 0 0 1 0 4H41zm0 15a2 2 0 1 1 0-4h150a2 2 0 0 1 0 4H41zm0 15a2 2 0 1 1 0-4h110a2 2 0 0 1 0 4H41zm0 27a2 2 0 0 1 0-4h150a2 2 0 0 1 0 4H41zm0 15a2 2 0 0 1 0-4h150a2 2 0 0 1 0 4H41zm0 15a2 2 0 0 1 0-4h110a2 2 0 0 1 0 4H41z" fill="#BDD1D9" fill-rule="nonzero"/><path d="M61 83a2 2 0 1 1 0-4h77.006a2 2 0 1 1 0 4H61z" fill="#0A90EB" fill-rule="nonzero"/><path d="M221 68a2 2 0 0 1 0-4h150a2 2 0 0 1 0 4H221zm0 15a2 2 0 0 1 0-4h150a2 2 0 0 1 0 4H221zm0 15a2 2 0 0 1 0-4h110a2 2 0 0 1 0 4H221z" fill="#BDD1D9" fill-rule="nonzero"/><path d="M29 53v121h173V53H29zm-3-3h179v127H26V50z" fill="#19B159" fill-rule="nonzero"/><g><path d="M104.784 295c-2.09 0-3.784-1.601-3.784-3.595v-174.81c0-1.986 1.698-3.595 3.788-3.595h408.424c2.092 0 3.788 1.601 3.788 3.595v174.81c0 1.986-1.692 3.595-3.774 3.595H104.784z" fill="#FFF"/><path d="M104.784 293h408.442c1 0 1.774-.737 1.774-1.595v-174.81c0-.862-.774-1.595-1.788-1.595H104.788c-1.01 0-1.788.739-1.788 1.595v174.81c0 .862.773 1.595 1.784 1.595z" stroke="#256782" stroke-width="4"/><path d="M103.721 147h385.402" stroke="#256782" stroke-width="4" stroke-linecap="round"/><path d="M120 135a4 4 0 1 1 0-8 4 4 0 0 1 0 8zm16 0a4 4 0 1 1 0-8 4 4 0 0 1 0 8zm16 0a4 4 0 1 1 0-8 4 4 0 0 1 0 8z" fill="#256782" fill-rule="nonzero"/><path d="M132 178a2 2 0 1 1 0-4h280.158a2 2 0 0 1 0 4H132zm0 15a2 2 0 1 1 0-4h280.158a2 2 0 0 1 0 4H132zm0 15a2 2 0 1 1 0-4h204.863a2 2 0 1 1 0 4H132zm0 27a2 2 0 0 1 0-4h280.158a2 2 0 0 1 0 4H132zm0 15a2 2 0 0 1 0-4h280.158a2 2 0 0 1 0 4H132zm0 15a2 2 0 0 1 0-4h204.863a2 2 0 1 1 0 4H132z" fill="#BDD1D9" fill-rule="nonzero"/><path d="M175.952 235a2 2 0 0 1 0-4h93.08a2 2 0 0 1 0 4h-93.08z" fill="#0A90EB" fill-rule="nonzero"/></g></g></svg>