<svg width="507" height="367" viewBox="0 0 507 367" xmlns="http://www.w3.org/2000/svg" xmlns:xlink="http://www.w3.org/1999/xlink"><title>cke4_01</title><defs><path d="M75 210v-16.362c0-3.886 3.352-6.496 6.462-6.496 1.028 0 1.811.272 2.839.789 2.595 1.304 5.434 2.065 8.543 2.065 5.435 0 10.356-2.338 13.708-6.496 3.353-4.158 4.65-9.621 3.623-15.084-1.297-6.768-6.975-12.204-13.707-13.78-4.137-.789-8.274-.272-11.896 1.82-.785.517-1.812.789-2.84.789-3.108 0-6.732-2.61-6.732-6.768v-15.845h16.033c4.137 0 7.76-2.066 9.815-5.463 2.054-3.37 2.325-7.529.513-11.171l-.27-.516c-1.298-2.61-1.811-5.463-1.028-8.589 1.028-4.675 4.921-8.588 9.572-9.621 1.027-.272 1.81-.272 2.838-.272 6.976 0 12.68 5.708 12.68 12.747 0 2.066-.513 4.158-1.54 5.98-2.055 3.641-1.812 7.8.27 11.442 2.054 3.37 5.677 5.463 9.57 5.707H150V210H75z" id="a"/><filter x="-7.3%" y="-5%" width="114.7%" height="109.9%" filterUnits="objectBoundingBox" id="b"><feOffset dx="3" in="SourceAlpha" result="shadowOffsetInner1"/><feComposite in="shadowOffsetInner1" in2="SourceAlpha" operator="arithmetic" k2="-1" k3="1" result="shadowInnerInner1"/><feColorMatrix values="0 0 0 0 1 0 0 0 0 1 0 0 0 0 1 0 0 0 1 0" in="shadowInnerInner1"/></filter><path d="M8.573 108h15.571v15.723a11.866 11.866 0 0 0 11.936 11.866c1.818 0 3.636-.512 5.453-1.295 2.604-1.294 5.453-1.806 8.572-1.025 4.666 1.025 8.573 4.909 9.604 9.547.786 3.857 0 7.74-2.605 10.572-3.635 4.638-10.39 5.933-15.815 3.101-1.546-.782-3.364-1.294-5.181-1.294-6.728-.027-11.936 5.394-11.936 11.57V183H8" id="c"/></defs><g fill="none" fill-rule="evenodd"><path fill="#FFF" d="M42 101h462v213H202.696v-96.385H42z"/><path d="M40 232.523l300.885 3.5V314h161.86a2.262 2.262 0 0 0 2.255-2.266V104.266a2.262 2.262 0 0 0-2.27-2.266H42.27a2.27 2.27 0 0 0-2.27 2.266v128.257z" stroke="#256782" stroke-width="4"/><path fill="#FFF" d="M42 212h306v100H197l-74.985 2v-22l5.985-4 15 3 13-9 2-11-7-9-10-3-13 3-5.985-8v-17.451L42 235z"/><path d="M40.55 134h434.902" stroke="#256782" stroke-width="4" stroke-linecap="round"/><g stroke="#256782" stroke-width="4" stroke-linecap="round" opacity=".3"><path d="M63 162h238M63 178h238M63 194h174"/></g><g stroke="#256782" stroke-width="4" stroke-linecap="round"><path d="M53 119h22M93 119h22M137 119h22M181 119h22"/></g><g stroke="#256782" stroke-width="4" stroke-linecap="round"><path d="M490 166.546v82.024M490 261.538V275"/></g><g transform="translate(328)"><path d="M46.01 176.811h29.103c8.786 0 34.046 19.701 38.439 14.229 2.64-3.289 10.31-23.69 12.08-39.95 1.77-16.259-3.499-19.705-2.196-20.795 8.651-7.24-11.532-13.529-11.532-22.437 0-10.952-.835-22.543-4.404-43.858C103.93 42.685 65 4.5 65 4.5S41.5 21.5 29.5 41s-12.045 55.923-12.045 66.858c0 6.102-17.428 11.97-13.728 16.965 1.505 2.032-7.688 17.512-1.648 26.268 1.965 2.848 9.336 35.023 13.729 39.949 4.393 4.925 23.055-14.229 30.201-14.229z" fill="#FFF"/><path d="M73.763 9l8.842 8.902L92 31.256s-12.263 3.792-18.237 4.451c-5.974.66-23.763 0-23.763 0s7.075-11.109 11.053-15.58C65.03 15.658 73.763 9 73.763 9zM112.364 105l11.454 19.158L126 147.147s-7.74 43.14-13.636 43.789c-5.897.648-10.364-3.832-10.364-3.832s10.241-20.821 12-39.957c1.759-19.136-6.056-28.21-4.364-30.105 3.926-4.398 2.728-12.042 2.728-12.042zM17.926 102.69l7.735 36.854L45 176.95 36.16 183s-15.792-19.213-21.55-39.95c-5.756-20.736-6.26-32.182-4.42-33.76 4.42-3.79 7.736-6.6 7.736-6.6z" fill="#F29988"/><path d="M46.15 177h36.147c.195-.234.409-.497.64-.788a86.71 86.71 0 0 0 3.297-4.436c3.431-4.915 6.868-10.701 10.077-17.318C105.491 135.533 111 113.775 111 89.5c0-24.101-8.865-45.738-23.667-64.596A132.3 132.3 0 0 0 71.016 7.577a106.552 106.552 0 0 0-5.357-4.455c-.338-.262-.653-.501-.942-.718-.29.185-.605.388-.942.611a89.207 89.207 0 0 0-5.518 3.98c-5.733 4.458-11.47 9.853-16.822 16.198C26.155 41.302 17 63.351 17 89.5c0 26.33 5.606 48.51 14.94 66.683 3.256 6.342 6.74 11.726 10.218 16.167a65.129 65.129 0 0 0 3.33 3.948c.241.262.462.495.662.702z" stroke="#256782" stroke-width="4"/><path d="M33.548 155H70.03M78.548 155h5.482M37 31s7.762 5 27 5 27-5 27-5" stroke="#256782" stroke-width="4" stroke-linecap="round" stroke-linejoin="round"/><circle stroke="#256782" stroke-width="4" stroke-linecap="round" stroke-linejoin="round" cx="65" cy="78" r="15"/><path d="M93 184.292s8.799 4.95 18.147 7.7c2.168.637 15.154-33.374 14.848-53.895-.307-20.522-14.848-34.097-14.848-34.097M45 177.143c-13.75 8.799-19.795 12.098-29.145 14.848-2.168.638-15.156-33.373-14.85-53.894C1.312 117.575 15.855 104 15.855 104M54 177.55v31.9M54 221v9M65 177v45M65 232v4M76 177v18M76 207v4" stroke="#256782" stroke-width="4" stroke-linecap="round"/></g><path d="M482.548 314.452L505 292" stroke="#256782" stroke-width="2" stroke-linecap="square"/><path d="M218.53 314h7.09M119.53 234h7.09M199.53 314h11.09M236 314h141" stroke="#256782" stroke-width="4" stroke-linecap="round"/><g><g stroke-linecap="round" stroke-linejoin="round" transform="rotate(117 40.638 224.631)"><use fill="#F29988" xlink:href="#a"/><use fill="#000" filter="url(#b)" xlink:href="#a"/><path stroke="#256782" stroke-width="4" d="M85.616 158.163c-1.104.71-2.486 1.082-3.883 1.082-4.543 0-8.733-3.794-8.733-8.768v-17.845h18.033c3.407 0 6.396-1.675 8.107-4.505 1.732-2.84 1.907-6.27.45-9.202l-.29-.553c-1.59-3.198-2.039-6.526-1.19-9.908 1.194-5.434 5.68-9.943 11.013-11.126a9.629 9.629 0 0 1 1.781-.298c.448-.034.779-.04 1.57-.04 8.09 0 14.68 6.614 14.68 14.747 0 2.442-.618 4.868-1.8 6.962-1.646 2.919-1.534 6.32.236 9.418 1.678 2.752 4.658 4.525 7.93 4.75H152V212H73v-18.362c0-4.775 4.01-8.496 8.462-8.496 1.31 0 2.353.306 3.737 1.002 2.433 1.222 4.969 1.852 7.645 1.852 4.828 0 9.177-2.062 12.151-5.751 2.972-3.687 4.138-8.552 3.216-13.453-1.122-5.854-6.09-10.779-12.118-12.192-3.79-.722-7.395-.203-10.477 1.563z"/></g><g transform="rotate(90 8.5 216.5)"><use fill="#FFF" xlink:href="#c"/><path stroke="#256782" stroke-width="4" d="M40.695 132.478c3.177-1.567 6.482-2.004 9.84-1.162 5.424 1.192 9.926 5.667 11.133 11.1.933 4.573-.102 9.035-3.038 12.267-4.242 5.348-12.01 6.844-18.244 3.59-1.364-.69-2.872-1.078-4.286-1.078-5.492-.022-9.928 4.375-9.928 9.57V185H5.985l.603-79h19.556v17.723c0 5.44 4.384 9.866 9.936 9.866 1.38 0 2.882-.37 4.615-1.111z"/></g><path fill="#FFF" d="M131 208v24h-21v-24z"/><path d="M134.299 288.577c2.41 1.193 4.922 1.807 7.572 1.807 8.72 0 15.845-7.123 15.845-15.857 0-.82-.105-1.557-.412-3.146l-.066-.345c-1.121-5.822-6.089-10.724-12.116-12.13-3.81-.723-7.461-.201-10.818 1.608l-.445.239h-.334c-2.453 1.056-5.062.817-7.457-.58-2.564-1.62-4.04-4.278-4.04-7.129V235h33.404l47.088 79H122v-18.234c0-3.032 1.396-5.479 4.122-7.177 2.572-1.46 5.604-1.572 8.177-.012z" stroke="#256782" stroke-width="4" stroke-linecap="round" stroke-linejoin="round"/><path fill="#FFF" d="M161.5 208H225v101h-47l-24-59.603h-30V228H42v-20z"/><path fill="#FFF" d="M206 288v24h-15v-24z"/></g></g></svg>