<svg width="100" height="100" viewBox="0 0 200 200" xmlns="http://www.w3.org/2000/svg"><title>logotype/adobe</title><g fill-rule="nonzero" fill="#A1B0C2"><path d="M140.702 58.28h.537c.663 0 1.205-.22 1.205-.8 0-.437-.32-.84-1.161-.84-.264 0-.443 0-.581.018v1.622zm0 2.821h-.901V56.1c.418-.06.839-.14 1.5-.14.801 0 1.3.162 1.62.403.28.22.44.556.44 1.04 0 .64-.42 1.057-.957 1.198v.038c.437.082.716.48.817 1.223.12.781.22 1.077.301 1.24h-.92c-.12-.163-.223-.621-.323-1.278-.098-.604-.437-.843-1.059-.843h-.518v2.121zm.82-6.342c-1.982 0-3.583 1.66-3.583 3.74 0 2.081 1.601 3.741 3.602 3.741 1.98.022 3.563-1.66 3.563-3.74s-1.582-3.74-3.563-3.74h-.02zm.019-.759A4.458 4.458 0 0 1 146 58.481c0 2.52-1.981 4.519-4.478 4.519A4.503 4.503 0 0 1 137 58.481c0-2.48 2.022-4.481 4.522-4.481h.019zM76.185 136.65l-.756-4.559c-.215-1.313-.49-3.367-.7-4.79h-.082c-.22 1.434-.53 3.545-.755 4.801l-.813 4.548h3.106zm-3.512 2.97l-.981 5.058h-3.626l4.523-21.045h4.444l4.108 21.045h-3.644l-.96-5.058h-3.864zM89.395 135.278c0-.281 0-.609-.055-.91-.144-1.038-.687-1.974-1.56-1.974-1.496 0-2.047 2.197-2.047 4.767 0 2.953.785 4.634 1.996 4.634.553 0 1.19-.29 1.537-1.529.085-.247.129-.577.129-.963v-4.025zm3.721-12.204v17.24c0 1.366.068 3.047.123 4.361h-3.214l-.21-1.753h-.077c-.54 1.081-1.714 2-3.119 2-3.078 0-4.604-3.46-4.604-7.83 0-5.326 2.276-7.915 4.757-7.915 1.298 0 2.138.647 2.56 1.584h.063v-7.687h3.721zM100.867 142.014c1.42 0 1.772-2.728 1.772-4.986 0-2.148-.351-4.945-1.834-4.945-1.57 0-1.9 2.797-1.9 4.945 0 2.591.414 4.986 1.93 4.986h.032zm-.07 2.909c-3.43 0-5.582-2.806-5.582-7.828 0-5.482 2.762-7.918 5.669-7.918 3.383 0 5.504 2.943 5.504 7.829 0 6.278-3.323 7.917-5.561 7.917h-.03zM112.19 139.23c0 .38.069.737.148.975.373 1.276 1.006 1.59 1.513 1.59 1.44 0 2.02-1.86 2.02-4.832 0-2.705-.613-4.569-2.037-4.569-.706 0-1.3.78-1.505 1.62-.07.264-.139.674-.139.958v4.258zm-3.722-16.156h3.722v7.945h.06c.733-1.173 1.71-1.842 3.127-1.842 2.806 0 4.215 3.25 4.215 7.5 0 5.37-2.102 8.245-4.826 8.245-1.298 0-2.162-.586-2.942-2.072h-.078l-.207 1.825h-3.196c.055-1.264.125-2.995.125-4.361v-17.24zM128.51 135.597c.02-2.142-.596-3.642-1.777-3.642-1.347 0-1.92 2.009-1.96 3.642h3.738zm-3.75 2.681c.043 2.758 1.466 3.656 3.233 3.656 1.12 0 2.08-.253 2.789-.525l.502 2.728c-.988.433-2.512.705-3.973.705-3.994 0-6.176-2.78-6.176-7.53 0-5.098 2.53-8.16 5.835-8.16 3.193 0 4.962 2.706 4.962 7.123 0 1.011-.041 1.58-.107 2.025l-7.066-.022z"/><g><path d="M107.93 54h24.005v57.986zM91.018 54H67v57.986zM88.978 100.32l10.499-24.954 15.293 36.617h-10.02l-4.575-11.663z"/></g></g></svg>