<svg width="100" height="100" viewBox="0 0 200 200" xmlns="http://www.w3.org/2000/svg"><title>logotype/att</title><g fill-rule="nonzero" fill="#A1B0C2"><path d="M164.604 113.44c-.407 0-.688-.28-.688-.684v-20.06h-6.858c-.408 0-.689-.28-.689-.684v-2.767c0-.405.281-.686.689-.686h18.254c.408 0 .688.28.688.686v2.767c0 .404-.28.684-.688.684h-6.857v20.06c0 .404-.282.684-.688.684h-3.163zm-52.532-10.015l-3.6-10.262-3.632 10.262h7.232zm7.985 9.205c.157.405-.094.81-.533.81h-3.255c-.47 0-.752-.217-.91-.654l-1.846-5.285h-10.112l-1.85 5.285c-.155.438-.438.654-.907.654h-3.067a.582.582 0 0 1-.533-.81l8.485-23.447c.157-.437.438-.623.907-.623h4.196c.47 0 .783.186.94.623l8.485 23.447zm24.32-2.55c2.003 0 3.35-.962 4.446-2.61l-5.071-5.413c-1.942 1.09-3.195 2.177-3.195 4.354 0 2.147 1.753 3.67 3.82 3.67zm1.409-18.224c-1.628 0-2.567 1.027-2.567 2.395 0 1.058.563 1.99 1.847 3.36 2.223-1.276 3.162-2.054 3.162-3.422 0-1.276-.813-2.333-2.442-2.333zm13.871 20.713c.407.436.157.871-.345.871h-3.977c-.532 0-.814-.125-1.158-.53l-2.38-2.61c-1.596 2.114-3.82 3.7-7.514 3.7-4.571 0-8.173-2.737-8.173-7.432 0-3.609 1.942-5.537 4.886-7.154-1.442-1.648-2.098-3.39-2.098-4.913 0-3.858 2.724-6.501 6.825-6.501 4.195 0 6.763 2.458 6.763 6.096 0 3.11-2.254 4.85-4.634 6.157l3.507 3.765 1.973-3.423c.25-.403.532-.56 1.032-.56h3.036c.502 0 .784.344.472.872l-3.508 5.97 5.293 5.692zm-31.246.871c.407 0 .69-.28.69-.684v-20.06h6.856c.407 0 .688-.28.688-.684v-2.767c0-.405-.281-.686-.688-.686h-18.254c-.408 0-.69.28-.69.686v2.767c0 .404.282.684.69.684h6.855v20.06c0 .404.283.684.69.684h3.163zM36.184 125.38c5.34 4.135 12.043 6.62 19.316 6.62 7.958 0 15.214-2.956 20.751-7.808.067-.06.034-.099-.032-.06-2.485 1.66-9.567 5.284-20.719 5.284-9.692 0-15.817-2.163-19.275-4.094-.067-.033-.091.017-.041.057m21.454 1.61c7.752 0 16.27-2.113 21.364-6.298 1.394-1.14 2.722-2.657 3.912-4.697a30.225 30.225 0 0 0 1.9-3.938c.024-.066-.018-.099-.068-.024-4.737 6.975-18.456 11.325-32.622 11.325-10.013 0-20.786-3.203-25.004-9.32-.042-.056-.083-.032-.058.033 3.93 8.355 15.85 12.92 30.576 12.92m-8.47-13.86c-16.121 0-23.723-7.513-25.102-12.639-.017-.074-.066-.058-.066.009 0 1.726.173 3.953.47 5.431.141.72.727 1.849 1.585 2.749 3.904 4.07 13.637 9.775 30.493 9.775 22.965 0 28.216-7.653 29.288-10.17.767-1.8 1.164-5.053 1.164-7.785 0-.661-.017-1.19-.042-1.708 0-.084-.048-.09-.065-.009-1.148 6.158-20.769 14.346-37.724 14.346M27.037 86.986c-.924 1.834-1.948 4.929-2.252 6.53-.134.686-.077 1.016.163 1.528 1.933 4.101 11.707 10.664 34.506 10.664 13.909 0 24.714-3.419 26.464-9.657.323-1.148.34-2.36-.074-3.995-.463-1.825-1.33-3.954-2.063-5.45-.024-.048-.067-.04-.058.017.273 8.182-22.535 13.455-34.043 13.455-12.466 0-22.865-4.968-22.865-11.242 0-.603.125-1.206.28-1.833.016-.057-.033-.067-.058-.017M76.302 76.94c.133.208.199.43.199.728 0 3.5-10.708 9.691-27.752 9.691-12.524 0-14.87-4.648-14.87-7.604 0-1.056.406-2.137 1.298-3.235.049-.066.007-.09-.049-.042a31.57 31.57 0 0 0-4.433 4.607c-.627.792-1.016 1.494-1.016 1.915 0 6.125 15.353 10.566 29.71 10.566 15.295 0 22.122-4.995 22.122-9.385 0-1.57-.61-2.485-2.172-4.26a37.133 37.133 0 0 0-2.988-3.022c-.049-.04-.083-.008-.049.041m-4.69-3.499C66.893 70.611 61.41 69 55.5 69c-5.951 0-11.598 1.667-16.336 4.572-1.421.875-2.221 1.577-2.221 2.478 0 2.657 6.207 5.514 17.219 5.514 10.898 0 19.35-3.13 19.35-6.141 0-.72-.628-1.222-1.9-1.982"/></g></svg>