<svg width="100" height="100" viewBox="0 0 200 200" xmlns="http://www.w3.org/2000/svg"><title>logotype/citi</title><g fill="#A1B0C2" fill-rule="evenodd"><path d="M81.524 119.899l-.173.168c-2.796 2.85-6.031 4.361-9.365 4.361-6.96 0-12.012-5.225-12.012-12.436 0-7.197 5.052-12.43 12.012-12.43 3.334 0 6.57 1.516 9.365 4.375l.173.173L86 98.693l-.12-.147C82.158 94.143 77.692 92 72.202 92c-5.51 0-10.546 1.856-14.176 5.203-3.944 3.625-6.026 8.736-6.026 14.79 0 6.049 2.082 11.173 6.026 14.799 3.63 3.362 8.666 5.208 14.176 5.208 5.49 0 9.956-2.142 13.678-6.547l.12-.136-4.476-5.418zM91 132h8V93h-8zM129.54 122.044c-2.07 1.28-3.997 1.924-5.728 1.924-2.508 0-3.64-1.344-3.64-4.337V99.216h7.904v-7.245h-7.905V80l-7.608 4.134v7.837H106v7.245h6.563v21.717c0 5.917 3.452 9.959 8.604 10.064 3.5.07 5.608-.989 6.89-1.763l.074-.056L130 121.76l-.46.284zM136 132h8V93h-8z" fill-rule="nonzero"/><path d="M148.634 85.47C141.36 75.153 129.284 69 116.996 69c-12.283 0-24.363 6.154-31.624 16.47L85 86h9.157l.102-.11c6.232-6.442 14.368-9.848 22.737-9.848 8.37 0 16.504 3.406 22.748 9.848l.102.11H149l-.366-.53z"/></g></svg>