<svg width="100" height="100" viewBox="0 0 200 200" xmlns="http://www.w3.org/2000/svg"><title>logotype/disney</title><path d="M149.858 102.222c-2.384.547-8.678.851-8.678.851l-.774 2.47s3.116-.262 5.398-.04c0 0 .733-.06.815.81.04.892-.061 1.823-.061 1.823s-.062.547-.815.689c-.876.142-6.784.405-6.784.405l-.957 3.2s-.347.729.448.526c.733-.202 6.926-1.377 7.74-1.215.857.203 1.834 1.377 1.55 2.43-.327 1.276-6.52 5.205-10.268 4.942 0 0-1.976.122-3.626-2.531-1.589-2.532.55-7.291.55-7.291s-.957-2.228-.244-3.038c0 0 .407-.345 1.63-.446l1.527-3.119s-1.731.102-2.75-1.154c-.937-1.215-1.018-1.742-.285-2.066.774-.405 7.945-1.68 12.874-1.519 0 0 1.732-.202 3.26 2.775 0 0 .692 1.215-.53 1.498m-18.599 11.99c-.61 1.478-2.302 3.038-4.339 2.086-2.078-.972-5.357-7.615-5.357-7.615s-1.223-2.47-1.467-2.39c0 0-.265-.486-.407 2.228-.204 2.694.04 7.94-1.08 8.77-1.019.81-2.24.465-2.933-.487-.57-.952-.815-3.24-.49-7.23.367-3.99 1.284-8.243 2.445-9.56 1.222-1.336 2.2-.364 2.567 0 0 0 1.568 1.419 4.217 5.61l.448.77s2.404 3.99 2.648 3.97c0 0 .204.203.367.04.244-.06.163-1.356.163-1.356s-.448-4.314-2.69-11.605c0 0-.325-.932-.101-1.823.204-.81 1.08-.405 1.08-.405s3.381 1.62 5.031 7.088c1.63 5.469.53 10.43-.081 11.909m-16.603-14.035c-.326.567-.468 1.357-1.874 1.58 0 0-13.648.952-14.32 1.903 0 0-.449.567.285.71.774.161 3.87.566 5.337.647 1.589 0 6.926.04 8.882 2.43 0 0 1.12 1.135 1.08 3.707-.042 2.633-.51 3.564-1.549 4.516-1.08.891-10.328 5.023-16.297-1.296 0 0-2.73-3.038.958-5.347 0 0 2.648-1.62 9.431.264 0 0 2.038.729 1.956 1.478-.122.81-1.69 1.62-3.972 1.58-2.2-.061-3.83-1.114-3.504-.932.305.101-2.384-1.296-3.219-.344-.815.891-.61 1.418.204 1.964 2.037 1.175 10.043.75 12.426-1.903 0 0 .958-1.074-.489-1.945-1.426-.81-5.581-1.316-7.19-1.377-1.528-.08-7.253 0-8.108-1.478 0 0-.815-1.053.081-3.93.937-3.037 7.599-4.212 10.491-4.455 0 0 7.945-.324 9.432 1.296 0 0 .204.365-.04.912m-22.531 17.822c-.957.709-2.995.405-3.585-.405-.57-.709-.774-3.504-.673-7.899.143-4.496.204-10.004 1.223-10.895 1.018-.871 1.63-.102 2.037.486.407.607.937 1.276 1.018 2.673.123 1.418.469 8.709.469 8.709s.448 6.642-.469 7.331m2.017-23.696c-2.811.952-4.726.649-6.356-.06-.713 1.276-1.14 1.66-1.67 1.741-.815.081-1.528-1.215-1.63-1.62-.163-.304-.55-.85-.081-2.086-1.59-1.417-1.711-3.321-1.426-4.597.367-1.499 3.055-7.13 11.204-7.797 0 0 3.993-.284 4.685 1.822h.122s3.87 0 3.79 3.443c0 3.443-4.278 7.737-8.638 9.215m3.626-9.863c-2.567.405-6.519 3.808-8.413 6.623 2.913.526 8.006.324 10.287-4.253 0 0 1.08-2.876-1.874-2.37M86.565 86.71c-.815 1.316-.856 2.106-.469 2.633.958-1.418 2.649-3.646 5.195-5.387-1.956.202-3.606 1.012-4.726 2.754m69.404 31.128c-1.874 4.577-3.463 9.215-4.38 16.162 0 0-.203 1.357-1.324.911-1.12-.405-2.954-2.228-3.361-4.8-.408-3.362 1.1-9.032 4.176-15.554-.896-1.417-1.528-3.524-1.019-6.48 0 0 .815-5.469 6.315-10.41 0 0 .652-.547 1.019-.365.448.203.265 1.944-.102 2.835-.326.851-2.77 5.064-2.77 5.064s-1.528 2.875-1.1 5.124c2.892-4.416 9.472-13.367 13.546-10.532 2.587 1.823 2.587 7.696.652 11.099-1.528 2.693-5.846 8.263-11.611 6.966m8.474-13.771c-1.507 1.62-4.196 4.698-6.315 8.87 2.24-.243 4.42-1.478 5.093-2.106 1.08-.952 3.565-3.524 3.178-6.926 0 0-.245-1.783-1.956.162m-91.262 16.141c-7.211 2.187-14.015 1.175-17.723.203-.102 1.498-.265 2.126-.509 2.37-.285.323-2.648 1.66-3.952-.244-.57-.911-.856-2.552-1.019-4.05-8.352-3.767-12.222-9.317-12.344-9.52-.204-.202-2.099-2.166-.204-4.596 1.772-2.188 7.639-4.395 12.895-5.266.203-4.456.692-7.899 1.324-9.418.754-1.822 1.711-.202 2.567 1.013.692.911 1.12 4.82 1.16 7.939 3.423-.162 5.5.081 9.31.81 5.012.85 8.352 3.403 8.088 6.278-.245 2.836-2.852 4.01-3.87 4.091-1.02.081-2.65-.668-2.65-.668-1.14-.526-.101-1.013 1.223-1.58 1.467-.708 1.14-1.417 1.14-1.417-.529-1.62-7.027-2.694-13.485-2.694 0 3.544.143 9.418.245 12.84 4.522.85 7.904.669 7.904.669s16.5-.466 16.969-10.937c.509-10.49-16.5-20.536-29.029-23.695-12.508-3.261-19.597-.952-20.208-.648-.672.324-.061.445-.061.445s.672.101 1.894.506c1.223.406.245 1.013.245 1.013-2.14.73-4.522.304-4.991-.668-.469-.952.306-1.823 1.222-3.099.856-1.316 1.834-1.276 1.834-1.276 15.482-5.367 34.386 4.253 34.386 4.253 17.682 8.87 20.697 19.301 20.37 23.351-.284 3.99-1.833 10.734-12.731 14.015m-34.02-14.5c-1.751.81-.53 2.106-.53 2.106 3.3 3.503 7.334 5.71 11.205 7.088.448-6.076.407-8.243.407-11.3-5.989.404-9.452 1.376-11.082 2.105" fill-rule="nonzero" fill="#A1B0C2"/></svg>