<svg width="100" height="100" viewBox="0 0 200 200" xmlns="http://www.w3.org/2000/svg"><title>logotype/ibm</title><path d="M34 74v3.626h25.694V74H34zm29.334 0v3.626h36.614S96.208 74 91.255 74H63.334zm43.797 0v3.626h22.151L127.967 74h-20.836zm38.033 0l-1.315 3.626h21.95V74h-20.635zM34 81.052v3.626h25.694v-3.626H34zm29.334.005v3.621h40.863s-.477-2.79-1.31-3.62H63.334zm43.797 0v3.621h24.58l-1.217-3.62h-23.363zm35.403 0l-1.217 3.621h24.482v-3.62h-23.265zm-101.15 7.047v3.631H52.51v-3.631H41.384zm29.334 0v3.631h11.127v-3.631H70.718zm21.95 0v3.631h11.127s.706-1.918.706-3.631H92.668zm21.847 0v3.631h19.728l-1.315-3.631h-18.413zm25.595 0l-1.32 3.631h19.826v-3.631H140.11zM41.384 95.16v3.626H52.51v-3.626H41.384zm29.334 0v3.626h28.42s2.378-1.86 3.136-3.626H70.718zm43.797 0v3.626h11.127V96.77l.706 2.018h20.383l.758-2.018v2.018h11.127v-3.626h-20.888l-1.108 3.071-1.114-3.071h-20.991zm-73.131 7.052v3.626H52.51v-3.626H41.384zm29.334 0v3.626h31.556c-.758-1.76-3.135-3.626-3.135-3.626H70.718zm43.797 0v3.626h11.127v-3.626h-11.127zm13.148 0l1.346 3.626h15.283l1.279-3.626h-17.908zm19.826 0v3.626h11.127v-3.626H147.49zm-106.105 7.052v3.626H52.51v-3.626H41.384zm29.334 0v3.626h11.127v-3.626H70.718zm21.95 0v3.626H104.5c0-1.711-.706-3.626-.706-3.626H92.668zm21.847 0v3.626h11.127v-3.626h-11.127zm15.675 0l1.304 3.626h10.246l1.315-3.626H130.19zm17.3 0v3.626h11.126v-3.626H147.49zM34.2 116.317v3.631h25.694v-3.631H34.2zm29.133 0v3.631h39.553c.833-.831 1.31-3.631 1.31-3.631H63.334zm43.998 0v3.631h18.31v-3.631h-18.31zm25.39 0l1.34 3.631h5.213l1.258-3.631h-7.811zm14.767 0v3.631H166v-3.631h-18.51zm-113.288 7.057V127h25.694v-3.626H34.2zm29.133 0v3.62h27.921c4.953 0 8.693-3.62 8.693-3.62H63.334zm43.998 0V127h18.31v-3.626h-18.31zm27.932 0l1.289 3.616.221.005 1.31-3.621h-2.82zm12.225 0V127H166v-3.626h-18.51z" fill-rule="nonzero" fill="#A1B0C2"/></svg>