<svg width="100" height="100" viewBox="0 0 200 200" xmlns="http://www.w3.org/2000/svg"><title>logotype/microsoft</title><g fill-rule="nonzero" fill="#A1B0C2"><path d="M77.898 102.332l-1.005 2.88h-.084a20.605 20.605 0 0 0-.977-2.824l-5.388-13.694h-5.276v21.826h3.49V97.052c0-.847 0-1.807-.029-2.993-.028-.593-.083-1.045-.111-1.384h.083c.168.847.363 1.469.503 1.864l6.477 15.925h2.457l6.42-16.066c.14-.367.28-1.102.42-1.723h.083c-.084 1.61-.14 3.05-.167 3.925v13.835h3.713V88.638h-5.081l-5.528 13.694zm14.126-7.54h3.63v15.643h-3.63V94.793zm1.843-6.606c-.614 0-1.117.226-1.536.621-.418.395-.642.904-.642 1.525 0 .593.224 1.1.642 1.496.42.396.922.593 1.536.593s1.144-.226 1.535-.593c.42-.395.642-.903.642-1.496s-.223-1.101-.642-1.525c-.363-.395-.893-.621-1.535-.621zm14.657 6.466a10.014 10.014 0 0 0-2.038-.226c-1.648 0-3.155.367-4.411 1.101-1.257.734-2.262 1.75-2.904 3.021-.67 1.3-1.005 2.796-1.005 4.518 0 1.496.335 2.823.977 4.038.642 1.185 1.536 2.145 2.736 2.795 1.145.65 2.485.988 3.992.988 1.731 0 3.21-.367 4.383-1.045l.028-.028v-3.388l-.14.113a6.215 6.215 0 0 1-1.758.932c-.642.225-1.228.338-1.73.338-1.453 0-2.597-.423-3.407-1.355-.837-.903-1.256-2.146-1.256-3.699 0-1.61.419-2.88 1.284-3.811.866-.932 2.01-1.412 3.406-1.412 1.173 0 2.373.395 3.462 1.186l.14.113v-3.586l-.029-.029c-.474-.197-1.005-.423-1.73-.564zm11.976-.113c-.893 0-1.73.282-2.457.875-.614.508-1.032 1.242-1.395 2.118h-.028v-2.74h-3.63v15.643h3.63v-7.99c0-1.356.279-2.485.893-3.304.614-.847 1.396-1.27 2.345-1.27.335 0 .67.084 1.089.14.39.114.67.227.865.368l.14.113v-3.67l-.084-.03c-.251-.168-.754-.253-1.368-.253zm9.883-.085c-2.54 0-4.578.762-6.002 2.259-1.452 1.496-2.15 3.558-2.15 6.155 0 2.428.726 4.405 2.122 5.845 1.396 1.412 3.294 2.146 5.667 2.146 2.485 0 4.467-.763 5.89-2.287 1.452-1.525 2.15-3.558 2.15-6.07 0-2.486-.67-4.462-2.038-5.902-1.312-1.44-3.238-2.146-5.639-2.146zm2.903 12.028c-.67.876-1.73 1.3-3.043 1.3-1.312 0-2.373-.424-3.126-1.356-.754-.875-1.117-2.146-1.117-3.755 0-1.666.39-2.937 1.117-3.84.753-.904 1.786-1.356 3.099-1.356 1.284 0 2.289.424 3.015 1.3.726.874 1.116 2.145 1.116 3.81-.055 1.695-.363 3.022-1.06 3.897zm12.87-5.195c-1.144-.48-1.87-.847-2.205-1.158-.28-.282-.419-.677-.419-1.185 0-.424.168-.848.587-1.13.418-.282.893-.423 1.59-.423.615 0 1.257.113 1.871.282.615.17 1.173.423 1.62.762l.14.113v-3.444l-.085-.029a9.987 9.987 0 0 0-1.647-.48 11.07 11.07 0 0 0-1.786-.17c-1.731 0-3.155.424-4.272 1.356-1.117.875-1.647 2.061-1.647 3.445 0 .734.112 1.383.363 1.92a4.274 4.274 0 0 0 1.117 1.468c.502.395 1.228.847 2.233 1.27.838.368 1.48.65 1.87.876.391.226.643.48.838.678.14.226.223.508.223.875 0 1.045-.781 1.553-2.373 1.553-.614 0-1.256-.113-2.01-.367a7.734 7.734 0 0 1-2.038-1.045l-.14-.113v3.586l.084.028c.53.254 1.173.424 1.955.621.781.142 1.48.255 2.094.255 1.87 0 3.405-.424 4.494-1.356 1.117-.903 1.703-2.06 1.703-3.557 0-1.045-.279-1.977-.893-2.683a11.295 11.295 0 0 0-3.266-1.948zm13.736-6.833c-2.54 0-4.578.762-6.002 2.259-1.424 1.496-2.15 3.558-2.15 6.155 0 2.428.726 4.405 2.122 5.845 1.396 1.412 3.294 2.146 5.667 2.146 2.485 0 4.467-.763 5.89-2.287 1.452-1.525 2.15-3.558 2.15-6.07 0-2.486-.67-4.462-2.038-5.902-1.312-1.44-3.238-2.146-5.639-2.146zm2.876 12.028c-.67.876-1.731 1.3-3.044 1.3-1.34 0-2.373-.424-3.126-1.356-.754-.875-1.117-2.146-1.117-3.755 0-1.666.39-2.937 1.117-3.84.753-.904 1.786-1.356 3.099-1.356 1.256 0 2.289.424 3.015 1.3.726.874 1.116 2.145 1.116 3.81 0 1.695-.363 3.022-1.06 3.897zM186.972 97.814v-3.021h-3.657v-4.63l-.112.028-3.462 1.044-.083.029v3.529h-5.472v-1.977c0-.903.223-1.609.614-2.06.39-.452.977-.678 1.703-.678.502 0 1.033.113 1.62.367l.139.084v-3.19l-.084-.028c-.502-.17-1.173-.283-2.038-.283a6.478 6.478 0 0 0-2.903.678 4.87 4.87 0 0 0-1.983 2.005c-.474.847-.725 1.807-.725 2.908v2.174h-2.54v2.993h2.54v12.65h3.657V97.813h5.472v8.047c0 3.304 1.535 4.97 4.606 4.97.503 0 1.033-.085 1.536-.17.53-.113.92-.254 1.144-.367l.028-.028v-3.021l-.14.113a2.347 2.347 0 0 1-.753.338 2.53 2.53 0 0 1-.726.113c-.726 0-1.229-.169-1.591-.593-.335-.395-.503-1.044-.503-2.004v-7.398h3.713zM18 82h17v17H18zM37 82h17v17H37zM18 101h17v17H18zM37 101h17v17H37z"/></g></svg>