<svg width="100" height="100" viewBox="0 0 200 200" xmlns="http://www.w3.org/2000/svg"><title>logotype/oracle</title><g fill-rule="nonzero" fill="#A1B0C2"><path d="M86.246 102.784h10.14l-5.362-8.497-9.84 15.362h-4.479l11.97-18.453c.52-.746 1.387-1.196 2.349-1.196.93 0 1.797.435 2.302 1.165l12.016 18.484h-4.478l-2.113-3.433H88.485l-2.24-3.432zm46.52 3.432v-16.03h-3.801v17.6c0 .48.19.947.552 1.304.362.357.851.56 1.388.56h17.33l2.24-3.434h-17.71zm-62.873-2.873c3.69 0 6.686-2.936 6.686-6.57 0-3.635-2.996-6.587-6.686-6.587H53.267v19.463h3.799V93.62H69.64c1.767 0 3.186 1.414 3.186 3.153 0 1.74-1.42 3.154-3.186 3.154l-10.713-.016 11.344 9.74h5.52l-7.633-6.307h1.735zm-40.012 6.306c-5.455 0-9.881-4.35-9.881-9.723 0-5.375 4.426-9.74 9.881-9.74h11.485c5.456 0 9.88 4.365 9.88 9.74 0 5.374-4.424 9.723-9.88 9.723H29.88zm11.23-3.433c3.533 0 6.396-2.811 6.396-6.29 0-3.48-2.863-6.307-6.397-6.307H30.135c-3.532 0-6.396 2.827-6.396 6.307 0 3.479 2.864 6.29 6.396 6.29H41.11zm72.163 3.433c-5.456 0-9.887-4.35-9.887-9.723 0-5.375 4.431-9.74 9.887-9.74h13.64l-2.223 3.433h-11.164c-3.533 0-6.403 2.827-6.403 6.307 0 3.479 2.87 6.29 6.403 6.29h13.703l-2.239 3.433h-11.717zm46.473-3.433c-2.918 0-5.393-1.926-6.15-4.582h16.242l2.24-3.433h-18.482c.757-2.64 3.232-4.582 6.15-4.582h11.149l2.255-3.433h-13.657c-5.456 0-9.887 4.365-9.887 9.74 0 5.374 4.431 9.723 9.887 9.723h11.717l2.24-3.433h-13.704zM175.821 93.258c0-1.012.816-1.825 1.831-1.825 1.033 0 1.848.813 1.848 1.825a1.83 1.83 0 0 1-1.848 1.842 1.826 1.826 0 0 1-1.83-1.842zm1.831 2.356a2.34 2.34 0 0 0 2.348-2.34 2.34 2.34 0 0 0-2.348-2.338 2.337 2.337 0 0 0-2.33 2.339 2.337 2.337 0 0 0 2.33 2.339zm-.216-3.733c.366 0 .516.017.683.083.466.15.516.564.516.73 0 .033 0 .116-.034.216a.673.673 0 0 1-.316.448c-.033.016-.05.033-.116.066l.599 1.079h-.583l-.533-.996h-.366v.996h-.516V91.88h.666zm.183 1.195c.167-.017.333-.017.433-.166a.35.35 0 0 0 .067-.232.372.372 0 0 0-.2-.316c-.117-.05-.233-.05-.483-.05h-.15v.764h.333z"/></g></svg>