<svg width="100" height="100" viewBox="0 0 200 200" xmlns="http://www.w3.org/2000/svg"><title>logotype/siemens</title><g fill="#A1B0C2" fill-rule="evenodd"><path d="M174.235 88.842v4.492c-2.33-.878-4.403-1.322-6.218-1.322-1.075 0-1.931.199-2.575.583-.643.388-.972.865-.972 1.43 0 .748.727 1.415 2.19 2.012l4.227 2.055c3.418 1.628 5.113 3.79 5.113 6.505 0 2.258-.9 4.058-2.714 5.39-1.802 1.347-4.227 2.013-7.247 2.013-1.393 0-2.644-.06-3.755-.186-1.112-.119-2.39-.364-3.806-.716v-4.701c2.598.879 4.964 1.323 7.094 1.323 2.541 0 3.805-.736 3.805-2.221 0-.74-.517-1.337-1.569-1.804l-4.695-2c-1.732-.782-3.02-1.73-3.862-2.854-.83-1.134-1.251-2.433-1.251-3.918 0-2.08.876-3.754 2.608-5.027 1.745-1.263 4.061-1.896 6.941-1.896.936 0 2.014.083 3.209.235 1.204.163 2.362.362 3.477.607zM41.23 88.842v4.492c-2.33-.878-4.4-1.322-6.216-1.322-1.079 0-1.932.199-2.576.583-.644.388-.972.865-.972 1.43 0 .748.737 1.415 2.2 2.012l4.23 2.055C41.3 99.72 43 101.882 43 104.597c0 2.258-.903 4.058-2.705 5.39-1.816 1.347-4.229 2.013-7.26 2.013-1.393 0-2.648-.06-3.76-.186-1.112-.119-2.376-.364-3.804-.716v-4.701c2.61.879 4.976 1.323 7.093 1.323 2.543 0 3.808-.736 3.808-2.221 0-.74-.515-1.337-1.557-1.804l-4.697-2c-1.746-.782-3.034-1.73-3.863-2.854C25.412 97.707 25 96.408 25 94.923c0-2.08.87-3.754 2.612-5.027C29.345 88.633 31.665 88 34.546 88c.946 0 2.011.083 3.22.235a42.98 42.98 0 0 1 3.465.607zM46 89h7v23h-7zM74.792 89v4.251H64.6v5.1h8.839v3.833H64.6v5.354H75V112H58V89zM107 89v22.791h-6.398V96.76L93.962 112h-3.95l-6.384-15.24v15.031H79V89h8.367l5.71 13.952L99.054 89zM129.792 89v4.251h-10.135v5.1h8.838v3.833h-8.838v5.354H130V112h-17V89zM153 89v23h-7.25l-8.138-14.752V112H133V89h7.462l7.926 14.498V89z"/></g></svg>