<svg width="398" height="272" viewBox="0 0 398 272" xmlns="http://www.w3.org/2000/svg"><title>window</title><g fill="none" fill-rule="evenodd"><path d="M3.62 272C1.622 272 0 269.607 0 266.628V5.372C0 2.405 1.624 0 3.624 0h390.752C396.378 0 398 2.393 398 5.372v261.256c0 2.967-1.619 5.372-3.61 5.372H3.62z" fill="#FFF"/><path d="M3.62 270h390.77c.68 0 1.61-1.382 1.61-3.372V5.372C396 3.374 395.072 2 394.376 2H3.624C2.933 2 2 3.382 2 5.372v261.256c0 1.999.927 3.372 1.62 3.372z" stroke="#256782" stroke-width="4"/><path d="M2.55 34h370.472" stroke="#256782" stroke-width="4" stroke-linecap="round"/><g stroke-linecap="round" stroke="#256782" stroke-width="4"><path d="M20 19h13M48.333 19h13M76.667 19h13M105 19h13M133.333 19h13M161.667 19h13M190 19h13"/></g><g opacity=".3" stroke-linecap="round" stroke="#256782" stroke-width="4"><path d="M23.637 59h323.16M23.637 71h323.16M23.637 83h323.16M23.637 95h263.16"/></g><g opacity=".3" stroke-linecap="round" stroke="#256782" stroke-width="4"><path d="M23.637 119h323.16M23.637 131h323.16M23.637 143h323.16M23.637 155h263.16"/></g><g opacity=".3" stroke-linecap="round" stroke="#256782" stroke-width="4"><path d="M23.637 179h323.16M23.637 191h323.16M23.637 203h323.16M23.637 215h263.16"/></g></g></svg>