<svg width="486" height="443" viewBox="0 0 486 443" xmlns="http://www.w3.org/2000/svg" xmlns:xlink="http://www.w3.org/1999/xlink"><title>cke5_f_01</title><defs><path d="M0 225h235v35.01c0 2.203-1.79 3.99-4.005 3.99H4.005A4 4 0 0 1 0 260.01V225z" id="a"/></defs><g fill="none" fill-rule="evenodd"><path fill="#FFF" d="M73 3h410v147H73z"/><path d="M72.004 152h410.213c1.068 0 1.783-.575 1.783-1.042V3.042c0-.47-.716-1.042-1.797-1.042H72.797C71.72 2 71 2.577 71 3.042v147.96c0 .545.453.998 1.004.998z" stroke="#256782" stroke-width="4"/><path d="M71.55 34h384.9" stroke="#256782" stroke-width="4" stroke-linecap="round"/><g stroke="#256782" stroke-width="4" stroke-linecap="round"><path d="M84 19h22M124 19h22M168 19h22M212 19h22"/></g><g stroke="#256782" stroke-width="4" stroke-linecap="round"><path d="M469 50.4v60.202M469 120.12V130"/></g><path d="M84.997 152H275" stroke="#FFF" stroke-width="4" stroke-linecap="round"/><path d="M246.53 152h7.09M264 152h141" stroke="#256782" stroke-width="4" stroke-linecap="round"/><g><path d="M93 144h127V54H93v90z" stroke="#B7CED9" stroke-width="4"/><path d="M170 107.375v-15.75c0-1.444-1.064-2.625-2.364-2.625h-21.272c-1.3 0-2.364 1.181-2.364 2.625v15.75c0 1.444 1.064 2.625 2.364 2.625h21.272c1.3 0 2.364-1.181 2.364-2.625zm-17.136-7.219l2.954 3.95 4.137-5.918 5.318 7.874h-16.546l4.137-5.906z" fill="#B7CED9"/><g stroke="#256782" stroke-width="4" stroke-linecap="round" opacity=".3"><path d="M236 55h212M236 70h212M236 85h154.992"/></g><g stroke="#256782" stroke-width="4" stroke-linecap="round" opacity=".3"><path d="M236 100h212M236 115h212M236 130h189.731"/></g></g><g><path fill="#F7FCFF" d="M4 148h226v229H4z"/><path fill="#FFF" d="M4 115h227v32H4z"/><path d="M232.392 375c.04-.077.086-.172.132-.284.293-.716.476-1.775.476-2.93V118.214c0-1.16-.184-2.218-.477-2.931a2.976 2.976 0 0 0-.132-.283H2.61a2.997 2.997 0 0 0-.134.287c-.293.715-.477 1.773-.477 2.927v255.79c0 .546.452.996 1.008.996h229.384z" stroke="#256782" stroke-width="4"/><path d="M4.997 147h208.45" stroke="#256782" stroke-width="4" stroke-linecap="round"/><g stroke="#256782" stroke-width="4" stroke-linecap="round"><path d="M21 132h91M191 132h22"/></g><g transform="translate(15 165)"><rect fill="#A1B0C2" width="186" height="49" rx="20"/><path d="M24 14h140M24 24h140M24 34h103" stroke="#FFF" stroke-width="4" stroke-linecap="round"/></g><g transform="translate(15 275)"><rect fill="#A1B0C2" width="186" height="49" rx="20"/><path d="M24 14h108M24 24h108M24 34h79" stroke="#FFF" stroke-width="4" stroke-linecap="round"/></g><g fill="#FFF"><path d="M178.5 299c.83 0 1.5-.67 1.5-1.5s-.67-1.5-1.5-1.5-1.5.67-1.5 1.5.67 1.5 1.5 1.5zm-7 0c.83 0 1.5-.67 1.5-1.5s-.67-1.5-1.5-1.5-1.5.67-1.5 1.5.67 1.5 1.5 1.5zm3.5 7a5.99 5.99 0 0 0 5.65-4h-11.3c.82 2.33 3.04 4 5.65 4zm-.01-16c-5.52 0-9.99 4.48-9.99 10s4.47 10 9.99 10c5.53 0 10.01-4.48 10.01-10s-4.48-10-10.01-10zm.01 18c-4.42 0-8-3.58-8-8s3.58-8 8-8 8 3.58 8 8-3.58 8-8 8z"/></g><g transform="translate(35 225)"><rect fill="#A1B0C2" width="186" height="39" rx="19.5"/><path d="M24 14h140M61.995 24H164" stroke="#FFF" stroke-width="4" stroke-linecap="round"/></g><g opacity=".98" transform="translate(0 113)"><use fill="#FFF" xlink:href="#a"/><path stroke="#256782" stroke-width="4" d="M2 227v33.01A2 2 0 0 0 4.005 262h226.99c1.11 0 2.005-.891 2.005-1.99V227H2z"/></g></g><g><path fill="#F7FCFF" d="M226.523 214h199.072v229H226.523z"/><path fill="#FFF" d="M226.523 181h199.953v32H226.523z"/><path d="M427.487 441c.026-.06.054-.13.081-.205.266-.74.432-1.826.432-3.01v-253.57c0-1.189-.166-2.275-.433-3.011a3.665 3.665 0 0 0-.08-.204H225.515c-.026.061-.054.13-.082.207-.267.739-.433 1.825-.433 3.007V439c0 1.104.897 2 2.005 2h200.482z" stroke="#256782" stroke-width="4"/><path d="M227.402 215h183.613a2 2 0 0 0 0-4H227.402a2 2 0 1 0 0 4zM398.59 200H411a2 2 0 0 0 0-4h-12.41a2 2 0 0 0 0 4zM372 200h12.41a2 2 0 0 0 0-4H372a2 2 0 0 0 0 4zM191 360h22a2 2 0 0 0 0-4h-22a2 2 0 0 0 0 4z" fill="#256782" fill-rule="nonzero"/><g fill-rule="nonzero" fill="#256782"><path d="M246 247a2 2 0 1 1 0-4h161a2 2 0 0 1 0 4H246zm0 10a2 2 0 1 1 0-4h161a2 2 0 0 1 0 4H246zm0 10a2 2 0 1 1 0-4h118a2 2 0 0 1 0 4H246zm0 30a2 2 0 1 1 0-4h70a2 2 0 1 1 0 4h-70zm0 10a2 2 0 1 1 0-4h52a2 2 0 1 1 0 4h-52zm91-10a2 2 0 1 1 0-4h70a2 2 0 0 1 0 4h-70zm0 10a2 2 0 1 1 0-4h52a2 2 0 0 1 0 4h-52zm-91 30a2 2 0 1 1 0-4h70a2 2 0 1 1 0 4h-70zm0 10a2 2 0 0 1 0-4h52a2 2 0 0 1 0 4h-52zm91-10a2 2 0 1 1 0-4h70a2 2 0 0 1 0 4h-70zm0 10a2 2 0 0 1 0-4h52a2 2 0 0 1 0 4h-52z"/></g><g transform="translate(306 374)"><circle fill="#17C5A9" cx="22" cy="22" r="22"/><path fill="#FFF" d="M17.679 28.007L11.672 22l-2.046 2.031 8.053 8.052 17.285-17.285-2.03-2.031z"/></g></g></g></svg>