<svg width="422" height="337" viewBox="0 0 422 337" xmlns="http://www.w3.org/2000/svg"><title>window</title><g fill="none" fill-rule="evenodd"><path d="M3.84 337C1.718 337 0 334.035 0 330.344V6.656C0 2.98 1.722 0 3.842 0h414.316C420.28 0 422 2.965 422 6.656v323.688c0 3.676-1.716 6.656-3.828 6.656H3.839z" fill="#FFF"/><path d="M3.84 335h414.332c.712 0 1.828-1.94 1.828-4.656V6.656C420 3.929 418.885 2 418.158 2H3.842C3.12 2 2 3.94 2 6.656v323.688C2 333.071 3.114 335 3.84 335z" stroke="#256782" stroke-width="4"/><path d="M2.55 34h416.9" stroke="#256782" stroke-width="4" stroke-linecap="round"/><path d="M35 77h248M35 92h248M35 107h246.893" stroke="#256782" stroke-width="4" opacity=".3" stroke-linecap="round"/><path d="M115 107h98.082" stroke="#F15649" stroke-width="4" stroke-linecap="round"/><path d="M35 122h246.893M35 137h246.893M35 152h102.649" stroke="#256782" stroke-width="4" opacity=".3" stroke-linecap="round"/><g opacity=".3" stroke-linecap="round" stroke="#256782" stroke-width="4"><path d="M35 187h248M35 202h248M35 217h159.845"/></g><g opacity=".3" stroke-linecap="round" stroke="#256782" stroke-width="4"><path d="M35 247h248M35 262h248M35 277h214.865"/></g><path d="M19 19h69.007" stroke-linecap="round" stroke="#256782" stroke-width="4"/><g stroke-linecap="round" stroke="#256782" stroke-width="4"><path d="M402 66.546v82.024M402 161.538V175"/></g><circle fill="#BDD1D9" fill-rule="nonzero" cx="379.5" cy="18.5" r="8.5"/><circle fill="#BDD1D9" fill-rule="nonzero" cx="357.5" cy="18.5" r="8.5"/><circle fill="#BDD1D9" fill-rule="nonzero" cx="335.5" cy="18.5" r="8.5"/><circle fill="#BDD1D9" fill-rule="nonzero" cx="313.5" cy="18.5" r="8.5"/><circle fill="#BDD1D9" fill-rule="nonzero" cx="313.5" cy="82.5" r="8.5"/><path d="M328 78h57M328 87h44" stroke="#256782" stroke-width="4" opacity=".3" stroke-linecap="round"/></g></svg>