<svg width="470" height="216" viewBox="0 0 470 216" xmlns="http://www.w3.org/2000/svg" xmlns:xlink="http://www.w3.org/1999/xlink"><title>window</title><defs><path d="M4.267 216A4.26 4.26 0 0 1 0 211.734V4.266A4.27 4.27 0 0 1 4.27 0h460.46c2.358 0 4.27 1.9 4.27 4.266v207.468a4.262 4.262 0 0 1-4.254 4.266H4.266z" id="a"/><path d="M.983 61C.44 61 0 60.463 0 59.795V1.205C0 .539.44 0 .983 0h106.034c.543 0 .983.537.983 1.205v58.59c0 .666-.44 1.205-.98 1.205H.983z" id="b"/><path d="M.983 61C.44 61 0 60.463 0 59.795V1.205C0 .539.44 0 .983 0h106.034c.543 0 .983.537.983 1.205v58.59c0 .666-.44 1.205-.98 1.205H.983z" id="c"/></defs><g fill="none" fill-rule="evenodd"><g><use fill="#FFF" xlink:href="#a"/><path stroke="#256782" stroke-width="4" d="M4.267 214h460.479a2.262 2.262 0 0 0 2.254-2.266V4.266A2.262 2.262 0 0 0 464.73 2H4.27A2.27 2.27 0 0 0 2 4.266v207.468A2.26 2.26 0 0 0 4.267 214z"/></g><path d="M445.548 214.452L468 192" stroke="#256782" stroke-width="2" stroke-linecap="square"/><path d="M2.55 34h434.902" stroke="#256782" stroke-width="4" stroke-linecap="round"/><g stroke="#256782" stroke-width="4" stroke-linecap="round" opacity=".3"><path d="M25 62h238M25 77h238M25 92h174"/></g><g stroke="#256782" stroke-width="4" stroke-linecap="round"><path d="M15 19h22M55 19h22M99 19h22"/></g><g stroke="#256782" stroke-width="4" stroke-linecap="round"><path d="M452 66.546v82.024M452 161.538V175"/></g><g fill="#F15649"><path d="M158 12h-8l-2-2h-6c-1.1 0-1.99.9-1.99 2L140 24c0 1.1.9 2 2 2h16c1.1 0 2-.9 2-2V14c0-1.1-.9-2-2-2zm-15 11l4.5-6 3.5 4.51 2.5-3.01L157 23h-14z"/></g><g><g transform="translate(23 105)"><use fill="#FFF" xlink:href="#b"/><path stroke="#BDD1D9" stroke-width="4" d="M2 59h104V2H2v57z"/></g><path d="M96 145.625v-20.25c0-1.856-1.514-3.375-3.364-3.375H62.364c-1.85 0-3.364 1.519-3.364 3.375v20.25c0 1.856 1.514 3.375 3.364 3.375h30.272c1.85 0 3.364-1.519 3.364-3.375zm-24.386-9.281l4.204 5.08 5.887-7.612 7.568 10.125H65.727l5.887-7.593z" fill="#BDD1D9"/><path d="M25 175h47.096M81 175h5.36" stroke="#BDD1D9" stroke-width="4" stroke-linecap="round"/></g><g><g transform="translate(143 105)"><use fill="#FFF" xlink:href="#c"/><path stroke="#BDD1D9" stroke-width="4" d="M2 59h104V2H2v57z"/></g><path d="M216 145.625v-20.25c0-1.856-1.514-3.375-3.364-3.375h-30.272c-1.85 0-3.364 1.519-3.364 3.375v20.25c0 1.856 1.514 3.375 3.364 3.375h30.272c1.85 0 3.364-1.519 3.364-3.375zm-24.386-9.281l4.204 5.08 5.887-7.612 7.568 10.125h-23.546l5.887-7.593z" fill="#BDD1D9"/><path d="M145 175h47.096M201 175h5.36" stroke="#BDD1D9" stroke-width="4" stroke-linecap="round"/></g></g></svg>