<svg width="526" height="345" viewBox="0 0 526 345" xmlns="http://www.w3.org/2000/svg" xmlns:xlink="http://www.w3.org/1999/xlink"><title>cloud_03</title><defs><rect id="h" width="269" height="179" rx="20"/><path d="M107 175h56s0 54 30 54H77c30 0 30-54 30-54z" id="i"/><path d="M.546 38C.244 38 0 37.666 0 37.25V.75C0 .337.245 0 .546 0h58.908c.301 0 .546.334.546.75v36.5c0 .414-.244.75-.544.75H.546z" id="a"/><mask id="j" x="0" y="0" width="60" height="38" fill="#fff"><use xlink:href="#a"/></mask><path d="M.546 38C.244 38 0 37.666 0 37.25V.75C0 .337.245 0 .546 0h58.908c.301 0 .546.334.546.75v36.5c0 .414-.244.75-.544.75H.546z" id="b"/><mask id="k" x="0" y="0" width="60" height="38" fill="#fff"><use xlink:href="#b"/></mask><path d="M.546 38C.244 38 0 37.666 0 37.25V.75C0 .337.245 0 .546 0h58.908c.301 0 .546.334.546.75v36.5c0 .414-.244.75-.544.75H.546z" id="c"/><mask id="l" x="0" y="0" width="60" height="38" fill="#fff"><use xlink:href="#c"/></mask><path d="M.546 38C.244 38 0 37.666 0 37.25V.75C0 .337.245 0 .546 0h58.908c.301 0 .546.334.546.75v36.5c0 .414-.244.75-.544.75H.546z" id="d"/><mask id="m" x="0" y="0" width="60" height="38" fill="#fff"><use xlink:href="#d"/></mask><path d="M.546 38C.244 38 0 37.666 0 37.25V.75C0 .337.245 0 .546 0h58.908c.301 0 .546.334.546.75v36.5c0 .414-.244.75-.544.75H.546z" id="e"/><mask id="n" x="0" y="0" width="60" height="38" fill="#fff"><use xlink:href="#e"/></mask><path d="M.546 38C.244 38 0 37.666 0 37.25V.75C0 .337.245 0 .546 0h58.908c.301 0 .546.334.546.75v36.5c0 .414-.244.75-.544.75H.546z" id="f"/><mask id="o" x="0" y="0" width="60" height="38" fill="#fff"><use xlink:href="#f"/></mask><path d="M3.248 267C1.454 267 0 264.651 0 261.727V5.273C0 2.361 1.457 0 3.25 0h350.5c1.795 0 3.25 2.349 3.25 5.273v256.454c0 2.912-1.452 5.273-3.238 5.273H3.248z" id="p"/><path d="M1.019 77C.456 77 0 76.323 0 75.48V1.52C0 .68.457 0 1.02 0h109.96c.563 0 1.02.677 1.02 1.52v73.96c0 .84-.456 1.52-1.016 1.52H1.019z" id="g"/><mask id="q" x="0" y="0" width="112" height="77" fill="#fff"><use xlink:href="#g"/></mask></defs><g fill="none" fill-rule="evenodd"><g transform="translate(257 116)"><use fill="#FFF" xlink:href="#h"/><rect stroke="#256782" stroke-width="4" x="2" y="2" width="265" height="175" rx="20"/><use fill="#EBF1F7" xlink:href="#i"/><path stroke="#256782" stroke-width="4" d="M108.955 177a119.028 119.028 0 0 1-.432 6.622c-.596 6.438-1.67 12.88-3.346 18.913-3.14 11.307-7.975 19.814-14.795 24.465h89.236c-6.82-4.65-11.654-13.158-14.795-24.465-1.676-6.033-2.75-12.475-3.346-18.913a119.028 119.028 0 0 1-.432-6.622h-52.09z"/><path d="M3.5 140h263.017" stroke="#256782" stroke-width="4" stroke-linecap="square"/><path d="M74.496 227H195.02" stroke="#256782" stroke-width="4" stroke-linecap="round" stroke-linejoin="round"/><circle fill="#256782" cx="135" cy="159" r="7"/><g transform="translate(188 20)"><use stroke="#A1B0C2" mask="url(#j)" stroke-width="4" fill="#FFF" stroke-linecap="square" stroke-linejoin="round" stroke-dasharray="1,1,1" xlink:href="#a"/><path d="M38.235 23.5v-9c0-.825-.664-1.5-1.476-1.5H23.476c-.812 0-1.476.675-1.476 1.5v9c0 .825.664 1.5 1.476 1.5h13.283c.812 0 1.476-.675 1.476-1.5zm-10.715-4l1.855 2.341 2.598-3.508L35.313 23h-10.39l2.597-3.5z" fill="#A1B0C2"/><path d="M1 42h58M1 47h50" stroke="#A1B0C2" stroke-width="2" stroke-linecap="round" stroke-linejoin="round"/></g><g transform="translate(188 80)"><use stroke="#A1B0C2" mask="url(#k)" stroke-width="4" fill="#FFF" opacity=".5" stroke-linecap="square" stroke-linejoin="round" stroke-dasharray="1,1,1" xlink:href="#b"/><path d="M38.235 23.5v-9c0-.825-.664-1.5-1.476-1.5H23.476c-.812 0-1.476.675-1.476 1.5v9c0 .825.664 1.5 1.476 1.5h13.283c.812 0 1.476-.675 1.476-1.5zm-10.715-4l1.855 2.341 2.598-3.508L35.313 23h-10.39l2.597-3.5z" fill="#A1B0C2" opacity=".5"/><path d="M1 42h58M1 47h50" stroke="#A1B0C2" stroke-width="2" stroke-linecap="round" stroke-linejoin="round"/></g><g transform="translate(118 80)"><use stroke="#A1B0C2" mask="url(#l)" stroke-width="4" fill="#FFF" stroke-linecap="square" stroke-linejoin="round" stroke-dasharray="1,1,1" xlink:href="#c"/><path d="M38.235 23.5v-9c0-.825-.664-1.5-1.476-1.5H23.476c-.812 0-1.476.675-1.476 1.5v9c0 .825.664 1.5 1.476 1.5h13.283c.812 0 1.476-.675 1.476-1.5zm-10.715-4l1.855 2.341 2.598-3.508L35.313 23h-10.39l2.597-3.5z" fill="#A1B0C2"/><path d="M1 42h58M1 47h50" stroke="#A1B0C2" stroke-width="2" stroke-linecap="round" stroke-linejoin="round"/></g><g transform="translate(118 20)"><use stroke="#A1B0C2" mask="url(#m)" stroke-width="4" fill="#FFF" stroke-linecap="square" stroke-linejoin="round" stroke-dasharray="1,1,1" xlink:href="#d"/><path d="M38.235 23.5v-9c0-.825-.664-1.5-1.476-1.5H23.476c-.812 0-1.476.675-1.476 1.5v9c0 .825.664 1.5 1.476 1.5h13.283c.812 0 1.476-.675 1.476-1.5zm-10.715-4l1.855 2.341 2.598-3.508L35.313 23h-10.39l2.597-3.5z" fill="#A1B0C2"/><path d="M1 42h58M1 47h50" stroke="#A1B0C2" stroke-width="2" stroke-linecap="round" stroke-linejoin="round"/></g><g><g transform="translate(48 20)"><use stroke="#A1B0C2" mask="url(#n)" stroke-width="4" fill="#FFF" stroke-linecap="square" stroke-linejoin="round" stroke-dasharray="1,1,1" xlink:href="#e"/><path d="M38.235 23.5v-9c0-.825-.664-1.5-1.476-1.5H23.476c-.812 0-1.476.675-1.476 1.5v9c0 .825.664 1.5 1.476 1.5h13.283c.812 0 1.476-.675 1.476-1.5zm-10.715-4l1.855 2.341 2.598-3.508L35.313 23h-10.39l2.597-3.5z" fill="#A1B0C2"/><path d="M1 42h58M1 47h50" stroke="#A1B0C2" stroke-width="2" stroke-linecap="round" stroke-linejoin="round"/></g></g><g><g transform="translate(48 80)"><use stroke="#A1B0C2" mask="url(#o)" stroke-width="4" fill="#FFF" stroke-linecap="square" stroke-linejoin="round" stroke-dasharray="1,1,1" xlink:href="#f"/><path d="M38.235 23.5v-9c0-.825-.664-1.5-1.476-1.5H23.476c-.812 0-1.476.675-1.476 1.5v9c0 .825.664 1.5 1.476 1.5h13.283c.812 0 1.476-.675 1.476-1.5zm-10.715-4l1.855 2.341 2.598-3.508L35.313 23h-10.39l2.597-3.5z" fill="#A1B0C2"/><path d="M1 42h58M1 47h50" stroke="#A1B0C2" stroke-width="2" stroke-linecap="round" stroke-linejoin="round"/></g></g></g><g><use fill="#FFF" xlink:href="#p"/><path stroke="#256782" stroke-width="4" d="M3.248 265h350.514c.093 0 .315-.153.585-.591.402-.655.653-1.621.653-2.682V5.273c0-1.065-.251-2.03-.654-2.682-.27-.437-.494-.591-.597-.591H3.251c-.1 0-.325.155-.596.594C2.252 3.248 2 4.214 2 5.274v256.453c0 1.066.251 2.031.653 2.683.27.437.494.59.595.59z"/></g><path d="M336.548 265.452l17.5-17.5" stroke="#256782" stroke-width="2" stroke-linecap="square"/><path d="M2.55 34h327.9" stroke="#256782" stroke-width="4" stroke-linecap="round"/><g stroke="#256782" stroke-width="4" stroke-linecap="round" opacity=".3"><path d="M25 62h293M25 77h293M25 92h161"/></g><g stroke="#256782" stroke-width="4" stroke-linecap="round" opacity=".3"><path d="M25 108h161M25 123h161M25 138h118"/></g><g stroke="#256782" stroke-width="4" stroke-linecap="round" opacity=".3"><path d="M25 169h161M25 184h293M25 199h292M25 214h213"/></g><g stroke="#256782" stroke-width="4" stroke-linecap="round"><path d="M339 60.796v119.578M339.333 192.77V206M15 19h18M47 19h18M79 19h18M111 19h18M143 19h18M175 19h18"/></g><g><path fill="#FFF" fill-rule="nonzero" d="M201 92h115v77H201z"/><g stroke-width="4" stroke="#19B159"><path d="M316.281 162.551v6.695h-7.222"/><path d="M303.613 169.246h-92.66" stroke-dasharray="9.434062957763672,3.773625373840332"/><path d="M208.222 169.246H201v-6.695"/><path d="M201 157.008v-55.541" stroke-dasharray="10.36827850341797,4.147311687469482"/><path d="M201 98.695V92h7.222"/><path d="M213.668 92h92.675" stroke-dasharray="9.434062957763672,3.773625373840332"/><path d="M309.059 92h7.222v6.695"/><path d="M316.281 104.252v55.527" stroke-dasharray="10.36827850341797,4.147311687469482"/></g><g transform="translate(326 50)"><use stroke="#256782" mask="url(#q)" stroke-width="8" fill="#FFF" stroke-linecap="square" stroke-linejoin="round" stroke-dasharray="8,8,8,8" xlink:href="#g"/><path d="M77 50.25v-22.5c0-2.063-1.677-3.75-3.727-3.75H39.727C37.677 24 36 25.688 36 27.75v22.5c0 2.063 1.677 3.75 3.727 3.75h33.546C75.323 54 77 52.312 77 50.25zm-27.06-10l4.686 5.853 6.56-8.77L69.62 49H43.38l6.56-8.75z" fill="#256782"/></g><g><path d="M446 162l24-14s-3-16-7-22c-1.298-1.947-4.27-12.688-8-15-3.73-2.312-8 2-8 2s-4.285-.488-7 0c-1.02.184-12 3-12 3s-5.793-10.278-9-11c-7.057-1.588-5 3-5 3s-.418 4.608 1 7c.662 1.118 6.93 12.305 14 23 .721 1.091-5.32-2.027-9-2-3.68.027-3.608 3.12-3 4 .302.437-1.224 2.256 1 4 1.09.855 9.4 2.794 16 7 6.6 4.206 12 11 12 11z" fill="#FFF"/><path d="M447.53 115.165a7.856 7.856 0 0 0-.464-.655 7.834 7.834 0 0 0-1.561-1.541c-1.805-1.326-3.71-1.41-5.712-.254-1.163.671-2.055 1.157-2.676 1.458l-.545.315 1.575 2.729 2.813 4.873m-2.813-4.873a7.856 7.856 0 0 0-.464-.655 7.834 7.834 0 0 0-1.562-1.541c-1.805-1.326-3.709-1.41-5.712-.254-1.163.672-2.055 1.158-2.675 1.458l-.546.315 4.389 7.602m-4.387-7.603l-4.693-8.127a7.639 7.639 0 0 0-.458-.659 8.408 8.408 0 0 0-1.522-1.564c-1.631-1.27-3.31-1.479-5.036-.627-1.598 1.068-2.255 2.625-1.971 4.673.095.684.293 1.385.593 2.1.12.287.232.53.338.728l13.993 24.237c-10.091-3.885-13.787-1.637-11.088 6.744 10.616 2.218 20.344 8.268 29.184 18.147l23.612-13.718c-.53-2.972-1.434-6.89-2.716-11.756-1.279-4.866-3.996-11.36-8.15-19.48l-1.897-3.323a6.852 6.852 0 0 0-.545-.794 7.834 7.834 0 0 0-1.561-1.542c-1.805-1.325-3.71-1.41-5.712-.253-1.163.67-2.055 1.157-2.676 1.457l-.583.25 1.23 2.132.047.08 2.556 4.45.593 1.005" stroke="#256782" stroke-width="3" stroke-linecap="round" stroke-linejoin="round"/></g></g></g></svg>